<svg width="18" height="19" viewBox="0 0 18 19" fill="none" xmlns="http://www.w3.org/2000/svg">
<g id="&#236;&#149;&#132;&#235;&#169;&#148;&#235;&#176;&#148;">
<path id="Union" fill-rule="evenodd" clip-rule="evenodd" d="M7.45502 10.7493C6.15666 10.4055 4.22003 9.77321 3.11702 8.84446C1.49852 7.48246 1.06352 6.03496 1.95452 4.97146C2.37452 4.46896 2.94902 4.23196 3.61652 4.28746C4.33052 4.34746 5.12102 4.73596 5.96252 5.44396C6.88991 6.22509 7.68942 7.65117 8.24019 8.83114C8.35914 8.53791 8.48345 8.24683 8.61299 7.9581C9.44249 6.1101 10.3005 4.8081 11.163 4.0776C13.053 2.4876 14.832 2.3166 15.924 3.6171C16.425 4.1916 16.614 4.9761 16.431 5.7171C16.236 6.5541 15.636 7.4016 14.643 8.2356C13.7805 8.9616 12.369 9.6051 10.4505 10.1481C10.1271 10.2393 9.80205 10.3242 9.47552 10.4029V16.0625C9.47473 16.1125 9.45431 16.1602 9.41867 16.1953C9.38303 16.2303 9.33503 16.25 9.28502 16.25H7.64552C7.59499 16.25 7.54654 16.2299 7.51081 16.1942C7.47509 16.1585 7.45502 16.11 7.45502 16.0595V10.7493Z" fill="#58B721"/>
</g>
</svg>
