<svg width="24" height="24" viewBox="0 0 24 24" fill="none" xmlns="http://www.w3.org/2000/svg">
<g id="down_line">
<path id="Vector" fill-rule="evenodd" clip-rule="evenodd" d="M12.707 15.7073C12.5194 15.8948 12.2651 16.0001 12 16.0001C11.7348 16.0001 11.4805 15.8948 11.293 15.7073L5.63598 10.0503C5.54047 9.9581 5.46428 9.84775 5.41188 9.72575C5.35947 9.60374 5.33188 9.47252 5.33073 9.33974C5.32957 9.20696 5.35487 9.07529 5.40516 8.95239C5.45544 8.82949 5.52969 8.71784 5.62358 8.62395C5.71747 8.53006 5.82913 8.4558 5.95202 8.40552C6.07492 8.35524 6.2066 8.32994 6.33938 8.33109C6.47216 8.33225 6.60338 8.35983 6.72538 8.41224C6.84739 8.46465 6.95773 8.54083 7.04998 8.63634L12 13.5863L16.95 8.63634C17.1386 8.45418 17.3912 8.35339 17.6534 8.35567C17.9156 8.35795 18.1664 8.46312 18.3518 8.64852C18.5372 8.83393 18.6424 9.08474 18.6447 9.34694C18.6469 9.60914 18.5461 9.86174 18.364 10.0503L12.707 15.7073Z" fill="#666666"/>
</g>
</svg>
