<svg xmlns="http://www.w3.org/2000/svg" width="100" height="125" viewBox="0 0 100 125" fill="none">
  <path d="M14.082 107.09C14.082 104.452 16.2236 102.314 18.8654 102.314C21.5072 102.314 23.6488 104.452 23.6488 107.09V120.224C23.6488 122.862 21.5072 125 18.8654 125C16.2236 125 14.082 122.862 14.082 120.224V107.09Z" fill="#C8A16D"/>
  <path d="M75.6069 107.09C75.6069 104.452 77.7485 102.314 80.3903 102.314C83.0321 102.314 85.1737 104.452 85.1737 107.09V120.224C85.1737 122.862 83.0321 125 80.3903 125C77.7485 125 75.6069 122.862 75.6069 120.224V107.09Z" fill="#C8A16D"/>
  <path d="M26.3086 12.0728C26.3086 5.40519 31.7221 0 38.4 0C40.3079 0 41.8546 1.54434 41.8546 3.44938V54.3277C33.2688 54.3277 26.3086 47.3782 26.3086 38.8055V12.0728Z" fill="#C8A16D"/>
  <path d="M72.9464 12.0728C72.9464 5.40519 67.5329 0 60.8551 0C58.9471 0 57.4004 1.54434 57.4004 3.44938V54.3277C65.9862 54.3277 72.9464 47.3782 72.9464 38.8055V12.0728Z" fill="#C8A16D"/>
  <path d="M29.8961 15.493C29.8961 11.5525 33.0954 8.35806 37.042 8.35806C37.7185 8.35806 38.267 8.90568 38.267 9.5812V45.3726C33.6439 45.3726 29.8961 41.6305 29.8961 37.0145V15.493Z" fill="#FBECC3"/>
  <path d="M69.359 15.493C69.359 11.5525 66.1596 8.35806 62.213 8.35806C61.5365 8.35806 60.988 8.90568 60.988 9.5812V45.3726C65.6112 45.3726 69.359 41.6305 69.359 37.0145V15.493Z" fill="#FBECC3"/>
  <path d="M0 73.786C0 46.2141 22.3858 23.8627 50 23.8627C77.6142 23.8627 100 46.2141 100 73.786V111.623C100 112.784 99.0574 113.725 97.8947 113.725H2.10527C0.942561 113.725 0 112.784 0 111.623V73.786Z" fill="#C8A16D"/>
  <path d="M18.5714 113.725C18.5714 102.696 27.5257 93.7554 38.5714 93.7554H61.4286C72.4743 93.7554 81.4286 102.696 81.4286 113.725H18.5714Z" fill="#FBECC3"/>
  <path d="M42.9912 85.645C42.5214 86.8636 40.7946 86.8636 40.3248 85.645L39.0689 82.3871H44.2471L42.9912 85.645Z" fill="white"/>
  <path d="M59.7331 85.645C59.2633 86.8636 57.5364 86.8636 57.0667 85.645L55.8108 82.3871H60.989L59.7331 85.645Z" fill="white"/>
  <path d="M34.2857 76.4171C34.2857 72.4605 37.4981 69.253 41.4608 69.253H58.2027C62.1654 69.253 65.3778 72.4605 65.3778 76.4171C65.3778 80.3737 62.1654 83.5812 58.2027 83.5812H41.4608C37.4981 83.5812 34.2857 80.3737 34.2857 76.4171Z" fill="#FBECC3"/>
  <path d="M46.2437 70.7453C46.2437 69.5913 47.1807 68.6558 48.3365 68.6558H51.3261C52.4819 68.6558 53.4188 69.5913 53.4188 70.7453C53.4188 71.8994 52.4819 72.8349 51.3261 72.8349H48.3365C47.1807 72.8349 46.2437 71.8994 46.2437 70.7453Z" fill="#3E2A2A"/>
  <path fill-rule="evenodd" clip-rule="evenodd" d="M27.1429 61.3344V65.6136H24.2857V61.3344C24.2857 60.5467 24.9253 59.9081 25.7143 59.9081C26.5033 59.9081 27.1429 60.5467 27.1429 61.3344Z" fill="#3E2A2A"/>
  <path fill-rule="evenodd" clip-rule="evenodd" d="M75.7143 61.3344V65.6136H72.8571V61.3344C72.8571 60.5467 73.4967 59.9081 74.2857 59.9081C75.0747 59.9081 75.7143 60.5467 75.7143 61.3344Z" fill="#3E2A2A"/>
  <path d="M32.8571 71.3191C32.8571 75.258 29.6592 78.451 25.7143 78.451C21.7694 78.451 18.5714 75.258 18.5714 71.3191C18.5714 67.3803 21.7694 64.1872 25.7143 64.1872C29.6592 64.1872 32.8571 67.3803 32.8571 71.3191Z" fill="white"/>
  <path fill-rule="evenodd" clip-rule="evenodd" d="M25.7143 75.5983C28.0812 75.5983 30 73.6824 30 71.3191C30 68.9558 28.0812 67.04 25.7143 67.04C23.3474 67.04 21.4286 68.9558 21.4286 71.3191C21.4286 73.6824 23.3474 75.5983 25.7143 75.5983ZM25.7143 78.451C29.6592 78.451 32.8571 75.258 32.8571 71.3191C32.8571 67.3803 29.6592 64.1872 25.7143 64.1872C21.7694 64.1872 18.5714 67.3803 18.5714 71.3191C18.5714 75.258 21.7694 78.451 25.7143 78.451Z" fill="#3E2A2A"/>
  <path d="M81.4286 71.3191C81.4286 75.258 78.2306 78.451 74.2857 78.451C70.3408 78.451 67.1429 75.258 67.1429 71.3191C67.1429 67.3803 70.3408 64.1872 74.2857 64.1872C78.2306 64.1872 81.4286 67.3803 81.4286 71.3191Z" fill="white"/>
  <path fill-rule="evenodd" clip-rule="evenodd" d="M74.2857 75.5983C76.6526 75.5983 78.5714 73.6824 78.5714 71.3191C78.5714 68.9558 76.6526 67.04 74.2857 67.04C71.9188 67.04 70 68.9558 70 71.3191C70 73.6824 71.9188 75.5983 74.2857 75.5983ZM74.2857 78.451C78.2306 78.451 81.4286 75.258 81.4286 71.3191C81.4286 67.3803 78.2306 64.1872 74.2857 64.1872C70.3408 64.1872 67.1429 67.3803 67.1429 71.3191C67.1429 75.258 70.3408 78.451 74.2857 78.451Z" fill="#3E2A2A"/>
</svg>