<svg width="18" height="20" viewBox="0 0 18 20" fill="none" xmlns="http://www.w3.org/2000/svg">
<path id="Vector" fill-rule="evenodd" clip-rule="evenodd" d="M0 1.58521C0 1.18738 0.158035 0.80585 0.43934 0.524545C0.720644 0.24324 1.10218 0.0852051 1.5 0.0852051H16.5C16.8978 0.0852051 17.2794 0.24324 17.5607 0.524545C17.842 0.80585 18 1.18738 18 1.58521V3.67121C17.9999 4.20159 17.7891 4.71022 17.414 5.08521L12 10.4992V17.9232C12 18.1107 11.9521 18.2951 11.8608 18.4589C11.7695 18.6227 11.6379 18.7605 11.4783 18.8591C11.3188 18.9577 11.1368 19.0138 10.9494 19.0223C10.7621 19.0307 10.5757 18.9911 10.408 18.9072L6.691 17.0492C6.48337 16.9454 6.30875 16.7858 6.1867 16.5884C6.06466 16.3909 6.00001 16.1633 6 15.9312V10.4992L0.586 5.08521C0.210901 4.71022 0.000113275 4.20159 0 3.67121V1.58521ZM2 2.08521V3.67121L7.56 9.2312C7.69945 9.37048 7.81008 9.53587 7.88558 9.71792C7.96108 9.89997 7.99996 10.0951 8 10.2922V15.4672L10 16.4672V10.2922C10 9.89421 10.158 9.51221 10.44 9.23221L16 3.67021V2.08521H2Z" fill="#969696"/>
</svg>
