<svg width="18" height="19" viewBox="0 0 18 19" fill="none" xmlns="http://www.w3.org/2000/svg">
<path id="Vector" d="M8 17.5544C8 17.8197 8.10536 18.074 8.29289 18.2616C8.48043 18.4491 8.73478 18.5544 9 18.5544C9.26522 18.5544 9.51957 18.4491 9.70711 18.2616C9.89464 18.074 10 17.8197 10 17.5544V10.5544H17C17.2652 10.5544 17.5196 10.4491 17.7071 10.2615C17.8946 10.074 18 9.81966 18 9.55444C18 9.28923 17.8946 9.03487 17.7071 8.84734C17.5196 8.6598 17.2652 8.55444 17 8.55444H10V1.55444C10 1.28923 9.89464 1.03487 9.70711 0.847337C9.51957 0.6598 9.26522 0.554443 9 0.554443C8.73478 0.554443 8.48043 0.6598 8.29289 0.847337C8.10536 1.03487 8 1.28923 8 1.55444V8.55444H1C0.734784 8.55444 0.48043 8.6598 0.292893 8.84734C0.105357 9.03487 0 9.28923 0 9.55444C0 9.81966 0.105357 10.074 0.292893 10.2615C0.48043 10.4491 0.734784 10.5544 1 10.5544H8V17.5544Z" fill="#F7F7F7"/>
</svg>
