<svg width="25" height="25" viewBox="0 0 25 25" fill="none" xmlns="http://www.w3.org/2000/svg">
<g id="refresh">
<path id="Vector" fill-rule="evenodd" clip-rule="evenodd" d="M10.038 20.2824C11.789 20.7512 13.6473 20.6119 15.3088 19.887C16.9703 19.1622 18.3366 17.8948 19.184 16.2924C19.2452 16.1761 19.3286 16.0731 19.4297 15.9892C19.5307 15.9052 19.6472 15.842 19.7727 15.8031C19.8981 15.7641 20.03 15.7503 20.1608 15.7624C20.2916 15.7745 20.4187 15.8122 20.535 15.8734C20.6512 15.9346 20.7542 16.018 20.8382 16.1191C20.9221 16.2201 20.9854 16.3366 21.0243 16.4621C21.0632 16.5875 21.077 16.7194 21.0649 16.8502C21.0529 16.981 21.0152 17.1081 20.954 17.2244C18.824 21.2644 14.118 23.4454 9.51996 22.2144C4.18496 20.7844 1.01996 15.3014 2.44896 9.96635C3.87896 4.63135 9.36196 1.46635 14.696 2.89535C16.8094 3.46158 18.6789 4.70513 20.018 6.43546C21.3571 8.16578 22.092 10.2874 22.11 12.4754C22.117 13.3784 21.115 13.8774 20.397 13.3954L17.724 11.5934C16.716 10.9134 17.392 9.34235 18.578 9.60735L19.636 9.84335C19.1696 8.54906 18.3773 7.3969 17.3357 6.49817C16.2941 5.59945 15.0383 4.98453 13.6896 4.71282C12.341 4.44111 10.945 4.52179 9.63665 4.94707C8.32827 5.37235 7.15168 6.12785 6.22053 7.14059C5.28937 8.15334 4.63512 9.3891 4.32098 10.7285C4.00684 12.0679 4.04342 13.4657 4.42718 14.7868C4.81095 16.108 5.52894 17.3078 6.51179 18.2705C7.49464 19.2332 8.70913 19.9261 10.038 20.2824Z" fill="#969696"/>
</g>
</svg>
