<svg xmlns="http://www.w3.org/2000/svg" width="18" height="18" viewBox="0 0 18 18" fill="none">
  <path fill-rule="evenodd" clip-rule="evenodd" d="M15.6642 2.44539L3.07222 6.99839L7.26722 9.42639L10.9662 5.72639C11.1539 5.53889 11.4083 5.4336 11.6736 5.43369C11.9388 5.43378 12.1932 5.53925 12.3807 5.72689C12.5682 5.91453 12.6735 6.16898 12.6734 6.43425C12.6733 6.69952 12.5679 6.95389 12.3802 7.14139L8.68022 10.8414L11.1102 15.0354L15.6642 2.44539ZM15.9872 0.201393C17.1822 -0.231607 18.3402 0.926393 17.9072 2.12139L12.6252 16.7264C12.1912 17.9244 10.5552 18.0704 9.91622 16.9674L6.69922 11.4094L1.14122 8.19239C0.0382236 7.55339 0.184224 5.91739 1.38222 5.48339L15.9872 0.201393Z" fill="white"/>
</svg>