<svg xmlns="http://www.w3.org/2000/svg" width="16" height="17" viewBox="0 0 16 17" fill="none">
  <path fill-rule="evenodd" clip-rule="evenodd" d="M8.94263 1.89996C8.69259 1.65 8.35352 1.50958 7.99996 1.50958C7.64641 1.50958 7.30733 1.65 7.0573 1.89996L5.79063 3.16663H3.99996C3.64634 3.16663 3.3072 3.30711 3.05716 3.55716C2.80711 3.8072 2.66663 4.14634 2.66663 4.49996V6.29063L1.39996 7.5573C1.15 7.80733 1.00958 8.14641 1.00958 8.49996C1.00958 8.85352 1.15 9.19259 1.39996 9.44263L2.66663 10.7093V12.5C2.66663 12.8536 2.80711 13.1927 3.05716 13.4428C3.3072 13.6928 3.64634 13.8333 3.99996 13.8333H5.79063L7.0573 15.1C7.30733 15.3499 7.64641 15.4903 7.99996 15.4903C8.35352 15.4903 8.69259 15.3499 8.94263 15.1L10.2093 13.8333H12C12.3536 13.8333 12.6927 13.6928 12.9428 13.4428C13.1928 13.1927 13.3333 12.8536 13.3333 12.5V10.7093L14.6 9.44263C14.8499 9.19259 14.9903 8.85352 14.9903 8.49996C14.9903 8.14641 14.8499 7.80733 14.6 7.5573L13.3333 6.29063V4.49996C13.3333 4.14634 13.1928 3.8072 12.9428 3.55716C12.6927 3.30711 12.3536 3.16663 12 3.16663H10.2093L8.94263 1.89996ZM7.99996 2.84396L9.26663 4.11063C9.51668 4.36004 9.85546 4.50007 10.2086 4.49996H12V6.29063C11.9999 6.46582 12.0344 6.63931 12.1014 6.80117C12.1685 6.96304 12.2667 7.1101 12.3906 7.23396L13.6573 8.50063L12.3906 9.76663C12.1406 10.0166 12 10.3557 12 10.7093V12.5H10.2093C10.0341 12.4999 9.86062 12.5344 9.69875 12.6014C9.53689 12.6685 9.38983 12.7667 9.26596 12.8906L7.9993 14.1573L6.7333 12.8906C6.48331 12.6406 6.14422 12.5 5.79063 12.5H3.99996V10.7093C4.00001 10.5341 3.96554 10.3606 3.8985 10.1988C3.83147 10.0369 3.7332 9.88983 3.6093 9.76596L2.34263 8.49996L3.6093 7.2333C3.8592 6.98347 3.99971 6.64466 3.99996 6.2913V4.49996H5.79063C6.14422 4.49989 6.48331 4.35936 6.7333 4.1093L7.99996 2.84263V2.84396ZM6.66663 8.49996C6.66663 8.14634 6.80711 7.8072 7.05716 7.55716C7.3072 7.30711 7.64634 7.16663 7.99996 7.16663C8.35359 7.16663 8.69272 7.30711 8.94277 7.55716C9.19282 7.8072 9.3333 8.14634 9.3333 8.49996C9.3333 8.85359 9.19282 9.19272 8.94277 9.44277C8.69272 9.69282 8.35359 9.8333 7.99996 9.8333C7.64634 9.8333 7.3072 9.69282 7.05716 9.44277C6.80711 9.19272 6.66663 8.85359 6.66663 8.49996ZM7.99996 5.8333C7.29272 5.8333 6.61444 6.11425 6.11435 6.61435C5.61425 7.11444 5.3333 7.79272 5.3333 8.49996C5.3333 9.20721 5.61425 9.88549 6.11435 10.3856C6.61444 10.8857 7.29272 11.1666 7.99996 11.1666C8.70721 11.1666 9.38549 10.8857 9.88558 10.3856C10.3857 9.88549 10.6666 9.20721 10.6666 8.49996C10.6666 7.79272 10.3857 7.11444 9.88558 6.61435C9.38549 6.11425 8.70721 5.8333 7.99996 5.8333Z" fill="white"/>
</svg>