<svg xmlns="http://www.w3.org/2000/svg" width="32" height="36" viewBox="0 0 32 36" fill="none">
  <g clip-path="url(#clip0_848_738)">
    <path opacity="0.24" d="M7.80944 2.75239L4.04788 0.581325C2.25059 -0.460467 0 0.843761 0 2.91939V32.6144C0 34.6901 2.25059 35.9943 4.04788 34.9525L7.80944 32.7814C8.64447 32.2963 9.1614 31.4056 9.1614 30.4354V5.09841C9.1614 4.12819 8.64447 3.2375 7.80944 2.75239Z" fill="white"/>
    <path d="M15.0304 28.6702L18.7841 26.5071C19.6191 26.022 20.136 25.1313 20.136 24.1611V11.5005C20.136 10.5303 19.6191 9.63959 18.7841 9.15448L15.0304 6.99137C13.2252 5.94958 10.9746 7.25381 10.9746 9.33739V26.3401C10.9746 28.4157 13.2252 29.712 15.0304 28.6702Z" fill="white"/>
    <path d="M29.7587 15.4925L26.005 13.3214C24.1998 12.2797 21.9492 13.5839 21.9492 15.6675V22.3397C21.9492 23.3815 23.0785 24.0336 23.9771 23.5087L29.7587 20.1686C31.5639 19.1269 31.5639 16.5343 29.7587 15.4925Z" fill="white"/>
    <path d="M2.02791 23.4858L8.48542 19.7561C8.90691 19.5175 9.1614 19.0642 9.1614 18.587V5.13917C9.1614 4.16895 8.64447 3.27826 7.80944 2.79315L4.05584 0.630041C2.25059 -0.411751 0 0.892477 0 2.97606V22.3168C0 23.3506 1.12926 24.0028 2.02791 23.4858Z" fill="white"/>
  </g>
  <defs>
    <clipPath id="clip0_848_738">
      <rect width="32" height="36" fill="white"/>
    </clipPath>
  </defs>
</svg>