<svg width="24" height="25" viewBox="0 0 24 25" fill="none" xmlns="http://www.w3.org/2000/svg">
<g id="wallet">
<path id="Vector" d="M19 4.96399C19.5304 4.96399 20.0391 5.1747 20.4142 5.54978C20.7893 5.92485 21 6.43356 21 6.96399V9.23199C21.304 9.40752 21.5565 9.65999 21.732 9.96402C21.9076 10.268 22 10.6129 22 10.964V14.964C22 15.3151 21.9076 15.6599 21.732 15.964C21.5565 16.268 21.304 16.5205 21 16.696V18.964C21 19.4944 20.7893 20.0031 20.4142 20.3782C20.0391 20.7533 19.5304 20.964 19 20.964H5C4.46957 20.964 3.96086 20.7533 3.58579 20.3782C3.21071 20.0031 3 19.4944 3 18.964V6.96399C3 6.43356 3.21071 5.92485 3.58579 5.54978C3.96086 5.1747 4.46957 4.96399 5 4.96399H19ZM19 6.96399H5V18.964H19V16.964H15C13.9564 16.964 12.9542 16.5562 12.2071 15.8276C11.46 15.099 11.0273 14.1072 11.0012 13.064C10.9751 12.0208 11.3577 11.0087 12.0674 10.2436C12.7772 9.47856 13.7578 9.02115 14.8 8.96899L15 8.96399H19V6.96399ZM20 10.964H15C14.4696 10.964 13.9609 11.1747 13.5858 11.5498C13.2107 11.9248 13 12.4336 13 12.964C13 13.4944 13.2107 14.0031 13.5858 14.3782C13.9609 14.7533 14.4696 14.964 15 14.964H20V10.964ZM16 11.964C16.2652 11.964 16.5196 12.0693 16.7071 12.2569C16.8946 12.4444 17 12.6988 17 12.964C17 13.2292 16.8946 13.4836 16.7071 13.6711C16.5196 13.8586 16.2652 13.964 16 13.964C15.7348 13.964 15.4804 13.8586 15.2929 13.6711C15.1054 13.4836 15 13.2292 15 12.964C15 12.6988 15.1054 12.4444 15.2929 12.2569C15.4804 12.0693 15.7348 11.964 16 11.964Z" fill="#00BFA3"/>
</g>
</svg>
