<svg xmlns="http://www.w3.org/2000/svg" width="180" height="125" viewBox="0 0 180 125" fill="none">
  <path d="M69.9995 30.217C68.3495 28.787 66.6795 27.267 64.9795 25.637C61.7395 22.527 58.8795 19.467 56.3695 16.567C52.6195 15.277 47.6495 13.967 41.7095 13.437C40.1195 13.297 38.5895 13.227 37.1295 13.207C34.2195 13.587 31.1095 14.257 27.8495 15.347C22.1795 17.257 17.6295 19.927 14.1495 22.497C13.7695 22.857 13.3795 23.227 12.9895 23.607C8.56953 27.997 5.62953 32.407 3.72953 35.807C3.58953 39.827 3.25953 44.207 2.64953 48.887C1.96953 54.097 1.03953 58.857 0.0195312 63.137C17.8795 56.267 35.7495 49.407 53.6095 42.537C58.1395 37.377 63.6995 33.157 69.9895 30.217H69.9995Z" fill="url(#paint0_radial_2697_4555)"/>
  <path d="M66.1097 32.2568C64.9397 31.5568 63.7397 30.8168 62.5197 29.9868C59.0097 27.6068 56.1097 25.1768 53.7597 22.9668C51.1297 23.9968 47.0897 25.2368 42.0197 25.4468C36.4197 25.6768 31.9097 24.5568 29.1097 23.6168C27.9097 25.9368 25.4597 29.9568 20.9597 33.4968C16.6197 36.9168 12.3197 38.3668 9.80969 39.0068C9.96969 41.8268 9.89969 45.9668 8.63969 50.7468C7.32969 55.6968 5.25969 59.4368 3.67969 61.8368C6.23969 62.4668 10.3797 63.8168 14.6397 66.9268C19.3897 70.3968 22.0697 74.4168 23.4097 76.7968C25.8897 75.3968 29.9797 73.4968 35.3597 72.6768C37.5297 72.3468 39.5297 72.2568 41.3397 72.2968C42.3997 55.1868 52.0897 40.4068 66.1197 32.2568H66.1097Z" fill="url(#paint1_radial_2697_4555)"/>
  <path d="M56.0898 100.927C56.2198 101.417 56.3598 102.207 56.2698 103.157C56.1698 104.207 55.8298 104.997 55.5898 105.477C55.5698 105.397 55.4998 105.217 55.3298 105.057C55.1398 104.877 54.9198 104.837 54.8398 104.827C55.0898 104.317 55.3398 103.727 55.5598 103.067C55.8198 102.287 55.9898 101.567 56.0898 100.937V100.927Z" fill="url(#paint2_linear_2697_4555)"/>
  <path d="M56.0905 100.927C56.2005 101.617 56.2505 102.217 56.2705 102.697C56.2905 103.077 56.3005 103.447 56.2705 103.937C56.2205 104.617 56.1005 105.207 55.9805 105.667C56.0505 105.637 56.2505 105.567 56.4905 105.637C56.8605 105.747 57.0005 106.107 57.0105 106.147C57.0905 105.547 57.1305 104.757 57.0105 103.847C56.8405 102.577 56.4305 101.577 56.0905 100.937V100.927Z" fill="url(#paint3_linear_2697_4555)"/>
  <path d="M26.5202 12.5969C26.2502 12.3969 26.0602 12.2169 25.9402 12.0969C25.4002 11.5369 24.2902 10.2869 24.0902 10.0469C24.0502 9.99687 23.9802 9.98688 23.9402 10.0169C23.9002 10.0369 23.8802 10.0869 23.8902 10.1269C23.9202 10.4169 24.0002 12.2969 24.0202 12.8669C24.0202 13.0169 24.0202 13.2369 24.0002 13.5169C24.2802 13.3169 24.6802 13.0669 25.2102 12.8769C25.7202 12.6969 26.1802 12.6269 26.5202 12.5969Z" fill="url(#paint4_linear_2697_4555)"/>
  <path d="M37.1302 13.2164C33.9902 13.1664 31.1702 13.3664 28.7702 13.6564C28.6102 13.6564 28.3802 13.6564 28.1202 13.5764C27.8802 13.5064 27.7002 13.4164 27.5302 13.3164C27.1002 13.0664 26.7302 12.7764 26.5202 12.6064C26.2102 12.6064 25.7502 12.6464 25.2302 12.8264C24.6602 13.0264 24.2502 13.3164 24.0102 13.5164C24.0102 13.8664 23.9502 14.3564 23.7202 14.8864C23.6502 15.0464 23.5702 15.1964 23.4802 15.3264C23.3402 15.5164 23.2002 15.6364 23.0902 15.7264C20.4802 17.3264 17.3502 19.5364 14.1602 22.5264C14.8102 22.3164 15.6102 21.9964 16.4802 21.4864C17.4602 20.9064 18.1902 20.2664 18.7102 19.7464C19.3102 19.6564 20.1502 19.4664 21.0702 19.0164C22.1802 18.4764 22.9402 17.7864 23.4002 17.3064C24.2102 17.2464 25.3602 17.0864 26.6402 16.5864C27.8902 16.1064 28.8402 15.4864 29.4802 14.9964C30.0202 15.0464 30.8802 15.0664 31.8602 14.7964C32.6002 14.5864 33.1902 14.2864 33.5902 14.0264C34.1702 14.0664 35.0202 14.0464 35.9702 13.7464C36.4302 13.5964 36.8102 13.4164 37.1302 13.2464V13.2164Z" fill="url(#paint5_radial_2697_4555)"/>
  <path d="M41.33 72.2968C39.52 72.2568 37.52 72.3468 35.35 72.6768C29.97 73.4968 25.88 75.3968 23.4 76.7968C22.06 74.4168 19.38 70.3968 14.63 66.9268C10.37 63.8168 6.23 62.4668 3.67 61.8368C5.25 59.4368 7.32 55.7068 8.63 50.7468C9.89 45.9668 9.97 41.8268 9.8 39.0068C12.46 38.3568 17.51 36.7468 22.32 32.4868C25.92 29.2968 27.98 25.8668 29.1 23.6168C31.9 24.5468 36.41 25.6768 42.01 25.4468C47.08 25.2368 51.12 24.0068 53.75 22.9668C55.03 24.9668 57.44 28.1568 61.45 30.9268C62.63 31.7468 63.8 32.4068 64.92 32.9668C66.15 32.2068 67.42 31.4968 68.72 30.8468C68.78 30.5768 68.84 30.3068 68.91 30.0368C68.34 29.4568 67.54 28.7668 66.49 28.1268C65.62 27.5968 64.8 27.2468 64.13 27.0068C63.73 27.5568 63.33 28.0968 62.92 28.6468C63.16 27.9868 63.41 27.3168 63.65 26.6568C63.26 26.1368 62.72 25.5168 62.01 24.8968C61.3 24.2768 60.61 23.8268 60.04 23.5068C59.52 24.0368 59.01 24.5568 58.49 25.0868C58.88 24.4368 59.27 23.7868 59.66 23.1268C59.09 22.5168 58.34 21.8168 57.39 21.1468C56.29 20.3668 55.25 19.8568 54.41 19.5068C53.7 19.2768 52.45 18.9668 50.91 19.1368C49.79 19.2568 48.89 19.5868 48.3 19.8668C48.3 20.5268 48.32 21.1868 48.33 21.8468C48.12 21.2068 47.92 20.5768 47.71 19.9368C47.02 19.8268 46.04 19.7368 44.87 19.8868C43.75 20.0368 42.86 20.3468 42.23 20.6168C42.09 21.2768 41.95 21.9368 41.81 22.5968C41.74 21.9468 41.67 21.2868 41.61 20.6368C40.93 20.3868 39.91 20.0868 38.64 20.0368C37.44 19.9868 36.44 20.1668 35.75 20.3468C35.6 21.0468 35.45 21.7568 35.3 22.4568C35.3 21.7368 35.28 21.0168 35.28 20.2968C34.48 20.0568 33.41 19.8268 32.13 19.7868C30.41 19.7368 29 20.0468 28.05 20.3368C27.21 20.8568 26.11 21.6668 25.05 22.8468C24.22 23.7668 23.63 24.6768 23.22 25.4268C23.57 25.8768 23.92 26.3268 24.26 26.7768C23.78 26.4768 23.3 26.1768 22.82 25.8768C22.14 26.2868 21.34 26.8368 20.52 27.5668C19.81 28.2068 19.23 28.8368 18.78 29.3968C19.04 30.0268 19.3 30.6568 19.56 31.2768C19.12 30.7668 18.68 30.2468 18.24 29.7368C17.39 30.0268 16.39 30.4468 15.33 31.0368C14.4 31.5568 13.62 32.0968 12.98 32.6068C13.12 33.3768 13.26 34.1368 13.4 34.9068C13.05 34.2668 12.7 33.6368 12.35 32.9968C11.72 33.0968 10.65 33.3468 9.54 34.0768C8.12 35.0068 7.4 36.2168 7.09 36.8068C6.58 37.6068 5.97 38.7668 5.58 40.2668C5.33 41.2268 5.22 42.0968 5.19 42.8068C5.89 43.0668 6.58 43.3268 7.28 43.5868C6.55 43.5768 5.81 43.5568 5.08 43.5468C4.77 44.2668 4.44 45.1868 4.21 46.2668C4 47.2468 3.91 48.1368 3.89 48.8668C4.57 49.2768 5.26 49.6968 5.94 50.1068C5.23 49.8868 4.53 49.6768 3.82 49.4568C3.36 50.1568 2.85 51.0568 2.42 52.1668C1.93 53.4168 1.67 54.5568 1.54 55.4568C2.26 55.7868 2.97 56.1068 3.69 56.4368C2.93 56.3068 2.18 56.1768 1.42 56.0568C1.13 56.9468 0.86 57.9168 0.62 58.9868C0.29 60.4968 0.1 61.8868 0 63.1268C1.89 65.8868 5.01 69.7568 9.77 73.3368C14.65 77.0168 19.35 78.9668 22.57 80.0168C26.14 80.1468 30.59 80.0168 35.61 79.1668C37.6 78.8368 39.46 78.4268 41.2 77.9768V75.4068C41.2 74.3568 41.24 73.3168 41.31 72.2868L41.33 72.2968Z" fill="#394E68"/>
  <path d="M69.4305 30.2471C69.3605 30.3571 69.3005 30.4671 69.2305 30.5871C69.3805 30.5171 69.5305 30.4371 69.6805 30.3671C69.6005 30.3271 69.5105 30.2871 69.4305 30.2471Z" fill="#394E68"/>
  <path d="M23.3999 76.7969C23.1599 76.8069 21.2599 76.8869 20.0199 75.4169C19.3099 74.5869 19.1599 73.6669 19.1199 73.2569C19.0299 73.2769 17.7699 73.5069 16.8399 72.5569C15.8899 71.5869 16.1799 70.2869 16.1999 70.2069C16.1099 70.2469 14.8299 70.7769 13.6499 69.9869C12.8399 69.4469 12.3899 68.4869 12.4699 67.5069C12.2999 67.5669 11.1799 67.9369 10.0399 67.2969C8.81992 66.6069 8.59992 65.3169 8.56992 65.1669C8.20992 65.2569 7.07992 65.4869 5.87992 64.9069C4.04992 64.0269 3.69992 62.0369 3.66992 61.8369C6.22992 62.4669 10.3699 63.8169 14.6299 66.9269C19.3799 70.3969 22.0599 74.4169 23.3999 76.7969Z" fill="#9EB5C6"/>
  <path d="M3.6702 61.8368C2.9002 60.8968 2.6902 59.6568 3.1202 58.6068C3.5702 57.5068 4.5502 57.0568 4.7802 56.9568C4.7302 56.8768 4.0402 55.7968 4.5702 54.5768C5.1102 53.3268 6.4302 53.1168 6.5102 53.0968C6.4402 53.0268 5.4702 52.0368 5.7502 50.6568C5.9502 49.6968 6.6602 48.9268 7.6102 48.6368C7.4902 48.5068 6.7302 47.6068 6.8902 46.3068C7.0702 44.9168 8.1802 44.2268 8.3202 44.1468C8.1902 43.9968 7.3202 42.9668 7.5402 41.5568C7.7302 40.3768 8.6002 39.3868 9.7902 39.0068C9.9502 41.8268 9.8802 45.9668 8.6202 50.7468C7.3102 55.6968 5.2402 59.4368 3.6602 61.8368H3.6702Z" fill="#9EB5C6"/>
  <path d="M9.7998 39.0067C9.8698 38.7367 10.3198 37.0867 11.9498 36.2767C12.9298 35.7967 13.8498 35.8567 14.2598 35.9067C14.2598 35.8167 14.3398 34.5367 15.4698 33.8567C16.6398 33.1567 17.8298 33.7467 17.8998 33.7867C17.8798 33.6867 17.6698 32.3267 18.7098 31.3567C19.4298 30.6967 20.4598 30.4767 21.3998 30.7867C21.3798 30.6067 21.2798 29.4267 22.1698 28.4767C23.1298 27.4467 24.4298 27.5367 24.5898 27.5467C24.5898 27.1867 24.6198 26.0167 25.4698 24.9867C26.8098 23.3667 28.9398 23.5867 29.1098 23.6067C27.9798 25.8767 25.6598 29.8267 21.2998 33.3467C16.7998 36.9767 12.2898 38.4067 9.8098 38.9967L9.7998 39.0067Z" fill="#9EB5C6"/>
  <path d="M29.1098 23.6166C29.2398 23.4866 30.4998 22.2266 32.2598 22.5066C33.3898 22.6866 34.0798 23.3966 34.3098 23.6366C34.3698 23.5666 35.2198 22.6066 36.5298 22.7666C37.8798 22.9366 38.4598 24.1366 38.4898 24.2066C38.5398 24.1166 39.2098 22.9166 40.6198 22.7966C41.5898 22.7166 42.5398 23.1866 43.0798 24.0066C43.1798 23.8566 43.8198 22.8666 45.1098 22.6666C46.4998 22.4466 47.4698 23.3166 47.5798 23.4266C47.8398 23.0966 48.5898 22.2666 49.8498 21.9566C51.9298 21.4466 53.5698 22.8066 53.7498 22.9566C51.1098 24.0066 46.8998 25.3166 41.5798 25.4666C36.1598 25.6266 31.8098 24.5166 29.0898 23.6066L29.1098 23.6166Z" fill="#9EB5C6"/>
  <path d="M21.3096 19.577C22.4996 19.667 24.3496 19.667 26.4596 18.987C27.2796 18.727 27.8896 18.437 28.3196 18.237C29.4796 17.687 31.1396 16.757 32.9196 15.167C32.6596 15.717 31.2496 18.547 27.8696 19.767C24.6596 20.927 21.9196 19.827 21.3196 19.567L21.3096 19.577Z" fill="url(#paint6_linear_2697_4555)"/>
  <path d="M32.9199 15.1768C35.2699 16.0768 37.3099 16.3568 38.7099 16.4368C39.9499 16.5068 40.9399 16.4368 41.4999 16.3868C43.8399 16.1668 45.7299 15.5368 47.0799 14.9668C46.4399 15.5368 43.9499 17.6168 40.1299 17.7068C36.1999 17.7968 33.5599 15.7168 32.9199 15.1768Z" fill="url(#paint7_linear_2697_4555)"/>
  <path d="M10.0498 28.3071C12.4798 27.6271 14.2698 26.6271 15.4398 25.8571C16.4898 25.1571 17.2498 24.5071 17.6498 24.1571C19.3898 22.5871 20.5498 20.9271 21.3198 19.5771C21.1598 20.4071 20.4098 23.6371 17.3398 26.0271C14.2398 28.4471 10.8898 28.3471 10.0498 28.3071Z" fill="url(#paint8_linear_2697_4555)"/>
  <path d="M3.74023 35.8164C4.50023 35.5564 5.66023 35.0464 6.84023 34.0664C7.68023 33.3564 8.20023 32.6764 8.41023 32.3964C9.50023 30.8864 9.90023 29.3364 10.0602 28.3164C10.1102 28.6664 10.4802 31.6764 8.24023 33.9264C6.47023 35.7064 4.25023 35.8164 3.75023 35.8264L3.74023 35.8164Z" fill="url(#paint9_linear_2697_4555)"/>
  <path d="M56.3701 16.5768C55.6401 16.7868 54.5801 17.0168 53.2901 17.0268C52.1101 17.0268 51.2301 16.8468 51.0101 16.8068C49.3201 16.4368 48.0001 15.6668 47.0801 14.9668C47.3101 15.2968 49.0501 17.6568 52.1501 17.8368C54.3201 17.9568 55.8901 16.9268 56.3801 16.5768H56.3701Z" fill="url(#paint10_linear_2697_4555)"/>
  <path d="M3.59961 35.7165C3.99961 35.7265 4.44961 35.7165 4.93961 35.6465C5.36961 35.5865 5.74961 35.4965 6.07961 35.3965C6.04961 35.4865 6.00961 35.6765 6.05961 35.9365C6.10961 36.2365 6.24961 36.4465 6.30961 36.5365C5.80961 36.6265 5.38961 36.6265 5.07961 36.6065C4.39961 36.5565 4.15961 36.4065 4.01961 36.2765C3.80961 36.0965 3.67961 35.8665 3.59961 35.7165Z" fill="url(#paint11_radial_2697_4555)"/>
  <path d="M3.11988 36.6162C3.14988 36.9862 3.15988 37.6462 2.90988 38.3362C2.74988 38.7662 2.54988 39.0562 2.37988 39.2562C2.56988 39.2862 2.81988 39.3462 3.10988 39.4762C3.36988 39.5962 3.58988 39.7362 3.74988 39.8562C3.82988 39.5362 3.89988 39.1162 3.90988 38.6262C3.92988 37.8262 3.79988 37.1262 3.67988 36.6462C3.48988 36.6462 3.29988 36.6262 3.10988 36.6162H3.11988Z" fill="url(#paint12_radial_2697_4555)"/>
  <path d="M4.07965 36.3164C4.29965 36.6264 4.72965 37.1564 5.37965 37.5564C5.78965 37.8064 6.14965 37.9264 6.39965 37.9764C6.26965 38.1064 6.10965 38.2964 5.96965 38.5664C5.83965 38.8064 5.75965 39.0464 5.70965 39.2364C5.43965 39.0264 5.10965 38.7364 4.76965 38.3564C4.21965 37.7364 3.85965 37.1064 3.63965 36.6564C3.77965 36.5464 3.92965 36.4264 4.06965 36.3164H4.07965Z" fill="url(#paint13_radial_2697_4555)"/>
  <path d="M4.02973 36.1261L3.96973 35.9561C4.23973 35.9961 4.52973 36.0261 4.83973 36.0461C5.29973 36.0661 5.70973 36.0261 6.05973 35.9761C5.70973 36.0561 5.31973 36.1161 4.86973 36.1361C4.56973 36.1461 4.28973 36.1461 4.02973 36.1361V36.1261Z" fill="#2D485C"/>
  <path d="M3.88965 36.6267C3.98965 36.7667 4.12965 36.9467 4.29965 37.1467C5.15965 38.1267 6.01965 38.5067 6.01965 38.4967C6.01965 38.4867 5.16965 38.0967 4.34965 37.0867C4.19965 36.8967 4.07965 36.7267 3.99965 36.5967L3.88965 36.6367V36.6267Z" fill="#2D485C"/>
  <path d="M3.49008 36.7568C3.50008 36.9268 3.51008 37.1468 3.51008 37.3968C3.49008 38.6568 3.09008 39.4668 3.08008 39.4568C3.08008 39.4568 3.46008 38.6468 3.42008 37.3768C3.42008 37.1468 3.39008 36.9468 3.38008 36.7868L3.49008 36.7568Z" fill="#2D485C"/>
  <path d="M3.70955 36.7662C3.41955 36.8562 3.10955 36.7362 3.01955 36.4962L2.95955 36.3362C2.86955 36.0962 3.02955 35.8262 3.32955 35.7262C3.61955 35.6362 3.92955 35.7562 4.01955 35.9962L4.07955 36.1562C4.16955 36.3962 4.00955 36.6662 3.70955 36.7662Z" fill="url(#paint14_radial_2697_4555)"/>
  <path d="M55.5802 16.5469C55.3802 16.8969 55.1302 17.2669 54.8102 17.6469C54.5302 17.9769 54.2602 18.2469 53.9902 18.4769C54.0802 18.5069 54.2702 18.5669 54.4602 18.7469C54.6902 18.9469 54.8002 19.1769 54.8402 19.2769C55.1802 18.9069 55.4102 18.5469 55.5502 18.2669C55.8702 17.6669 55.8602 17.3769 55.8302 17.1969C55.7902 16.9169 55.6602 16.6869 55.5702 16.5469H55.5802Z" fill="url(#paint15_radial_2697_4555)"/>
  <path d="M56.5903 16.6162C56.8903 16.8362 57.4503 17.1962 58.1603 17.3462C58.6103 17.4362 58.9703 17.4162 59.2203 17.3762C59.1403 17.5562 59.0603 17.7962 59.0203 18.1062C58.9803 18.3962 58.9903 18.6562 59.0103 18.8562C58.6903 18.7562 58.3103 18.5962 57.8803 18.3462C57.1803 17.9462 56.6603 17.4662 56.3203 17.1062C56.4103 16.9462 56.5103 16.7762 56.6003 16.6162H56.5903Z" fill="url(#paint16_radial_2697_4555)"/>
  <path d="M55.8301 17.2659C55.9801 17.6159 56.2001 18.2659 56.2001 19.0259C56.2001 19.5059 56.1001 19.8659 56.0201 20.1159C56.2001 20.0759 56.4401 20.0359 56.7401 20.0559C57.0201 20.0759 57.2601 20.1359 57.4401 20.1959C57.4101 19.8559 57.3301 19.4259 57.1901 18.9359C56.9501 18.1359 56.6101 17.5059 56.3501 17.0859C56.1801 17.1459 56.0001 17.2059 55.8301 17.2659Z" fill="url(#paint17_radial_2697_4555)"/>
  <path d="M55.6905 17.1263L55.5805 16.9863C55.4805 17.2363 55.3505 17.4963 55.1905 17.7663C54.9605 18.1663 54.7105 18.4963 54.4805 18.7663C54.7305 18.5163 54.9905 18.2063 55.2505 17.8463C55.4205 17.6063 55.5605 17.3663 55.6905 17.1363V17.1263Z" fill="#2D485C"/>
  <path d="M56.2006 17.2656C56.2706 17.4256 56.3506 17.6356 56.4206 17.8856C56.8006 19.1256 56.6606 20.0656 56.6506 20.0556C56.6406 20.0556 56.7706 19.1256 56.3306 17.8956C56.2506 17.6756 56.1706 17.4856 56.1006 17.3356L56.1906 17.2656H56.2006Z" fill="#2D485C"/>
  <path d="M56.5205 16.996C56.6605 17.096 56.8405 17.216 57.0505 17.346C58.1405 17.996 59.0305 18.086 59.0305 18.076C59.0305 18.066 58.1405 17.966 57.0805 17.266C56.8905 17.136 56.7305 17.016 56.6105 16.916L56.5205 16.996Z" fill="#2D485C"/>
  <path d="M56.4099 17.1964C56.6399 16.9964 56.6999 16.6664 56.5499 16.4664L56.4499 16.3364C56.2899 16.1364 55.9699 16.1264 55.7399 16.3364C55.5099 16.5364 55.4499 16.8664 55.5999 17.0664L55.6999 17.1964C55.8599 17.3964 56.1799 17.4064 56.4099 17.1964Z" fill="url(#paint18_radial_2697_4555)"/>
  <path d="M33.3301 15.0668C33.8001 15.1168 34.3401 15.1468 34.9401 15.1368C35.4601 15.1168 35.9301 15.0668 36.3501 15.0068C36.3001 15.0868 36.1901 15.2668 36.1701 15.5268C36.1501 15.8168 36.2501 16.0368 36.3001 16.1268C35.6901 16.1668 35.1901 16.1268 34.8301 16.0768C34.0401 15.9668 33.8001 15.7868 33.6701 15.6668C33.4701 15.4668 33.3801 15.2468 33.3301 15.0868V15.0668Z" fill="url(#paint19_radial_2697_4555)"/>
  <path d="M32.7101 15.1672C32.2801 15.3672 31.7801 15.5672 31.2101 15.7372C30.7101 15.8872 30.2501 15.9872 29.8301 16.0572C29.9101 16.1172 30.0601 16.2572 30.1601 16.4872C30.2701 16.7572 30.2401 16.9972 30.2301 17.0972C30.8201 16.9472 31.2901 16.7472 31.6101 16.5772C32.3201 16.2172 32.4901 15.9772 32.5801 15.8172C32.7101 15.5672 32.7201 15.3272 32.7201 15.1572L32.7101 15.1672Z" fill="url(#paint20_radial_2697_4555)"/>
  <path d="M32.5199 15.8772C32.4499 16.2372 32.2899 16.8672 31.7999 17.4972C31.4999 17.8872 31.1699 18.1572 30.9199 18.3172C31.1299 18.3672 31.4099 18.4472 31.7199 18.5972C31.9999 18.7372 32.2199 18.8972 32.3799 19.0272C32.5599 18.7272 32.7499 18.3372 32.9099 17.8672C33.1599 17.0972 33.1999 16.4272 33.1899 15.9472C32.9699 15.9172 32.7499 15.8972 32.5299 15.8672L32.5199 15.8772Z" fill="url(#paint21_radial_2697_4555)"/>
  <path d="M33.7401 15.6768C33.9101 15.9968 34.2801 16.5468 34.9301 16.9868C35.3401 17.2668 35.7301 17.4068 36.0201 17.4868C35.8301 17.5968 35.5901 17.7668 35.3501 18.0068C35.1301 18.2268 34.9701 18.4468 34.8601 18.6268C34.5901 18.3968 34.2901 18.0968 33.9901 17.6968C33.5101 17.0468 33.2601 16.4168 33.1201 15.9668C33.3201 15.8768 33.5201 15.7768 33.7201 15.6868L33.7401 15.6768Z" fill="url(#paint22_radial_2697_4555)"/>
  <path d="M32.4699 15.6973L32.4399 15.5273C32.1699 15.6873 31.8699 15.8473 31.5399 16.0073C31.0499 16.2373 30.5799 16.3973 30.1699 16.5173C30.5899 16.4173 31.0599 16.2873 31.5599 16.0973C31.8899 15.9673 32.1899 15.8373 32.4699 15.6973Z" fill="#2D485C"/>
  <path d="M33.7302 15.4971L33.7002 15.3271C34.0002 15.3971 34.3402 15.4571 34.7002 15.4971C35.2402 15.5571 35.7302 15.5671 36.1602 15.5471C35.7302 15.5871 35.2402 15.6071 34.7102 15.5871C34.3602 15.5771 34.0302 15.5371 33.7202 15.4971H33.7302Z" fill="#2D485C"/>
  <path d="M33.4209 15.9665C33.5009 16.1065 33.6109 16.2965 33.7609 16.4965C34.5009 17.5165 35.4209 17.9565 35.4209 17.9465C35.4209 17.9465 34.5209 17.4865 33.8409 16.4365C33.7209 16.2465 33.6209 16.0665 33.5609 15.9365L33.4209 15.9665Z" fill="#2D485C"/>
  <path d="M32.9105 16.0469C32.8805 16.2069 32.8305 16.4169 32.7605 16.6569C32.3805 17.8569 31.7005 18.5969 31.6905 18.5869C31.6805 18.5869 32.3605 17.8469 32.6605 16.6269C32.7205 16.4069 32.7505 16.2069 32.7705 16.0669L32.9105 16.0469Z" fill="#2D485C"/>
  <path d="M33.1759 15.014L32.86 15.0652C32.5765 15.1112 32.3839 15.3782 32.4299 15.6617C32.4759 15.9452 32.7429 16.1378 33.0264 16.0918L33.3423 16.0406C33.6258 15.9946 33.8183 15.7275 33.7724 15.4441C33.7264 15.1606 33.4593 14.968 33.1759 15.014Z" fill="url(#paint23_radial_2697_4555)"/>
  <path d="M47.1995 14.9067C47.6495 15.0467 48.1695 15.1867 48.7595 15.2867C49.2695 15.3767 49.7495 15.4167 50.1695 15.4367C50.0995 15.5067 49.9595 15.6667 49.8895 15.9067C49.8095 16.1867 49.8695 16.4267 49.8895 16.5167C49.2795 16.4367 48.7995 16.2867 48.4595 16.1667C47.7095 15.8967 47.5095 15.6767 47.4095 15.5267C47.2495 15.2967 47.2095 15.0567 47.1895 14.8867L47.1995 14.9067Z" fill="url(#paint24_radial_2697_4555)"/>
  <path d="M46.5696 14.877C46.1096 14.987 45.5796 15.077 44.9796 15.137C44.4596 15.187 43.9896 15.187 43.5596 15.177C43.6196 15.257 43.7496 15.417 43.7996 15.667C43.8596 15.957 43.7796 16.187 43.7396 16.277C44.3496 16.247 44.8496 16.137 45.1996 16.047C45.9696 15.837 46.1796 15.637 46.2996 15.497C46.4696 15.277 46.5396 15.037 46.5696 14.877Z" fill="url(#paint25_radial_2697_4555)"/>
  <path d="M46.2395 15.5371C46.0995 15.8771 45.8095 16.4671 45.2095 16.9871C44.8395 17.3071 44.4595 17.5071 44.1895 17.6171C44.3895 17.7071 44.6495 17.8371 44.9095 18.0471C45.1595 18.2371 45.3395 18.4371 45.4695 18.5971C45.7095 18.3371 45.9695 17.9971 46.2195 17.5671C46.6195 16.8671 46.7895 16.2071 46.8695 15.7471C46.6595 15.6771 46.4495 15.6071 46.2395 15.5371Z" fill="url(#paint26_radial_2697_4555)"/>
  <path d="M47.4798 15.5871C47.5898 15.9371 47.8298 16.5471 48.3898 17.1071C48.7398 17.4571 49.0898 17.6871 49.3598 17.8171C49.1498 17.8871 48.8898 18.0071 48.5998 18.1871C48.3398 18.3571 48.1398 18.5371 47.9998 18.6971C47.7798 18.4171 47.5498 18.0571 47.3398 17.6071C46.9998 16.8771 46.8798 16.2071 46.8398 15.7371C47.0598 15.6871 47.2698 15.6271 47.4898 15.5771L47.4798 15.5871Z" fill="url(#paint27_radial_2697_4555)"/>
  <path d="M46.2293 15.3468V15.1768C45.9393 15.2768 45.6193 15.3768 45.2593 15.4668C44.7293 15.5868 44.2393 15.6568 43.8193 15.6868C44.2493 15.6768 44.7393 15.6368 45.2593 15.5468C45.6093 15.4868 45.9293 15.4168 46.2293 15.3368V15.3468Z" fill="#2D485C"/>
  <path d="M47.5098 15.4063V15.2363C47.7998 15.3663 48.1198 15.4863 48.4698 15.5963C48.9898 15.7663 49.4698 15.8663 49.8898 15.9363C49.4598 15.8863 48.9798 15.8163 48.4598 15.6863C48.1198 15.5963 47.7998 15.5063 47.5098 15.4063Z" fill="#2D485C"/>
  <path d="M47.1094 15.7959C47.1594 15.9559 47.2294 16.1559 47.3394 16.3859C47.8594 17.5359 48.6694 18.1559 48.6794 18.1459C48.6794 18.1459 47.8894 17.5159 47.4294 16.3459C47.3494 16.1359 47.2894 15.9459 47.2594 15.7959H47.1194H47.1094Z" fill="#2D485C"/>
  <path d="M46.5896 15.7764C46.5296 15.9264 46.4396 16.1264 46.3196 16.3464C45.7096 17.4564 44.8896 18.0264 44.8896 18.0264C44.8896 18.0264 45.6896 17.4364 46.2296 16.3064C46.3296 16.0964 46.3996 15.9164 46.4496 15.7764H46.5896Z" fill="#2D485C"/>
  <path d="M47.0473 14.8289L46.7276 14.816C46.4406 14.8043 46.1986 15.0275 46.187 15.3145C46.1753 15.6014 46.3985 15.8435 46.6855 15.8551L47.0052 15.8681C47.2922 15.8797 47.5342 15.6565 47.5458 15.3695C47.5575 15.0826 47.3343 14.8406 47.0473 14.8289Z" fill="url(#paint28_radial_2697_4555)"/>
  <path d="M10.1496 27.797C10.5596 27.557 11.0096 27.267 11.4796 26.897C11.8896 26.577 12.2396 26.257 12.5396 25.957C12.5396 26.057 12.5696 26.267 12.6996 26.477C12.8596 26.727 13.0696 26.837 13.1596 26.877C12.6896 27.267 12.2596 27.537 11.9396 27.707C11.2396 28.087 10.9396 28.087 10.7596 28.057C10.4796 28.017 10.2696 27.887 10.1396 27.787L10.1496 27.797Z" fill="url(#paint29_radial_2697_4555)"/>
  <path d="M9.70992 28.2471C9.47992 28.6571 9.19992 29.1171 8.83992 29.5971C8.52992 30.0171 8.20992 30.3671 7.91992 30.6771C8.01992 30.6771 8.22992 30.6971 8.43992 30.8271C8.68992 30.9771 8.80992 31.1871 8.84992 31.2771C9.22992 30.7971 9.48992 30.3671 9.65992 30.0471C10.0199 29.3371 10.0199 29.0471 9.98992 28.8671C9.93992 28.5871 9.80992 28.3871 9.70992 28.2571V28.2471Z" fill="url(#paint30_radial_2697_4555)"/>
  <path d="M9.97949 28.9269C10.1395 29.2569 10.3795 29.8669 10.3695 30.6569C10.3695 31.1569 10.2495 31.5569 10.1495 31.8369C10.3495 31.7469 10.6195 31.6469 10.9595 31.5869C11.2695 31.5369 11.5395 31.5269 11.7395 31.5469C11.7095 31.1969 11.6295 30.7669 11.4795 30.2969C11.2295 29.5369 10.8595 28.9669 10.5695 28.5869C10.3795 28.6969 10.1795 28.8069 9.98949 28.9169L9.97949 28.9269Z" fill="url(#paint31_radial_2697_4555)"/>
  <path d="M10.8393 28.0471C11.1693 28.1971 11.7893 28.4271 12.5793 28.3971C13.0793 28.3771 13.4793 28.2571 13.7593 28.1571C13.6693 28.3571 13.5793 28.6371 13.5293 28.9671C13.4793 29.2771 13.4893 29.5471 13.4993 29.7471C13.1493 29.7171 12.7193 29.6571 12.2493 29.5071C11.4793 29.2671 10.8993 28.9071 10.5293 28.6271C10.6393 28.4271 10.7393 28.2371 10.8493 28.0371L10.8393 28.0471Z" fill="url(#paint32_radial_2697_4555)"/>
  <path d="M9.82973 28.8173L9.70973 28.6973C9.58973 28.9873 9.43973 29.2873 9.26973 29.6173C9.00973 30.0973 8.72973 30.4973 8.46973 30.8373C8.74973 30.5073 9.04973 30.1273 9.33973 29.6773C9.52973 29.3773 9.69973 29.0873 9.83973 28.8173H9.82973Z" fill="#2D485C"/>
  <path d="M10.7294 27.9071L10.6094 27.7871C10.8894 27.6571 11.1994 27.5071 11.5194 27.3271C11.9894 27.0571 12.3894 26.7671 12.7194 26.4971C12.3994 26.7871 12.0194 27.0871 11.5794 27.3871C11.2894 27.5871 10.9994 27.7571 10.7294 27.8971V27.9071Z" fill="#2D485C"/>
  <path d="M10.75 28.4674C10.9 28.5374 11.1 28.6174 11.34 28.6974C12.54 29.0774 13.54 28.8974 13.54 28.8774C13.54 28.8674 12.54 29.0374 11.37 28.5974C11.16 28.5174 10.98 28.4274 10.85 28.3574L10.75 28.4674Z" fill="#2D485C"/>
  <path d="M10.4 28.8271C10.47 28.9771 10.56 29.1771 10.64 29.4071C11.05 30.5971 10.93 31.5971 10.92 31.5971C10.91 31.5971 11.02 30.6071 10.54 29.4471C10.45 29.2371 10.36 29.0571 10.29 28.9271L10.39 28.8271H10.4Z" fill="#2D485C"/>
  <path d="M9.99212 27.855L9.76819 28.0836C9.56722 28.2888 9.57061 28.618 9.77576 28.819C9.98091 29.0199 10.3101 29.0165 10.5111 28.8114L10.735 28.5828C10.936 28.3776 10.9326 28.0484 10.7275 27.8475C10.5223 27.6465 10.1931 27.6499 9.99212 27.855Z" fill="url(#paint33_radial_2697_4555)"/>
  <path d="M21.4807 19.3263C21.9407 19.2163 22.4607 19.0663 23.0107 18.8363C23.4907 18.6463 23.9207 18.4363 24.2907 18.2363C24.2707 18.3363 24.2307 18.5363 24.2907 18.7863C24.3707 19.0663 24.5407 19.2363 24.6207 19.3063C24.0607 19.5563 23.5707 19.6863 23.2207 19.7563C22.4407 19.9163 22.1607 19.8363 21.9907 19.7563C21.7407 19.6363 21.5707 19.4563 21.4707 19.3263H21.4807Z" fill="url(#paint34_radial_2697_4555)"/>
  <path d="M20.9403 19.6367C20.6103 19.9667 20.2003 20.3267 19.7203 20.6867C19.3003 20.9967 18.9003 21.2467 18.5303 21.4567C18.6203 21.4867 18.8203 21.5667 18.9903 21.7567C19.1903 21.9767 19.2403 22.2067 19.2603 22.3067C19.7603 21.9567 20.1303 21.6167 20.3803 21.3467C20.9303 20.7667 21.0103 20.4867 21.0303 20.3067C21.0603 20.0267 21.0003 19.7967 20.9403 19.6467V19.6367Z" fill="url(#paint35_radial_2697_4555)"/>
  <path d="M20.9998 20.3668C21.0598 20.7268 21.1198 21.3768 20.8798 22.1368C20.7298 22.6068 20.5098 22.9668 20.3398 23.2068C20.5598 23.1768 20.8498 23.1568 21.1798 23.2068C21.4898 23.2468 21.7498 23.3168 21.9398 23.3868C22.0098 23.0468 22.0598 22.6068 22.0398 22.1168C22.0098 21.3168 21.8198 20.6568 21.6498 20.2168C21.4298 20.2668 21.2198 20.3168 20.9998 20.3668Z" fill="url(#paint36_radial_2697_4555)"/>
  <path d="M22.0801 19.7666C22.3501 20.0066 22.8801 20.3966 23.6501 20.5966C24.1301 20.7166 24.5501 20.7166 24.8501 20.6966C24.7101 20.8666 24.5401 21.1066 24.4001 21.4066C24.2701 21.6866 24.1901 21.9466 24.1501 22.1466C23.8201 22.0266 23.4301 21.8366 23.0201 21.5666C22.3501 21.1166 21.9001 20.6166 21.6201 20.2366C21.7801 20.0766 21.9301 19.9166 22.0901 19.7666H22.0801Z" fill="url(#paint37_radial_2697_4555)"/>
  <path d="M20.8905 20.2164L20.8105 20.0664C20.6105 20.3064 20.3905 20.5664 20.1305 20.8164C19.7405 21.1964 19.3605 21.5064 19.0205 21.7564C19.3805 21.5264 19.7805 21.2364 20.1805 20.8864C20.4505 20.6564 20.6905 20.4264 20.9005 20.2064L20.8905 20.2164Z" fill="#2D485C"/>
  <path d="M22.0107 19.5964L21.9307 19.4464C22.2407 19.4064 22.5707 19.3464 22.9307 19.2664C23.4607 19.1364 23.9207 18.9764 24.3207 18.8164C23.9307 18.9964 23.4807 19.1864 22.9707 19.3464C22.6307 19.4564 22.3107 19.5364 22.0107 19.5964Z" fill="#2D485C"/>
  <path d="M21.8701 20.1462C21.9901 20.2562 22.1601 20.3862 22.3701 20.5362C23.4101 21.2462 24.4301 21.3462 24.4301 21.3362C24.4301 21.3262 23.4301 21.2062 22.4301 20.4462C22.2501 20.3062 22.1001 20.1762 22.0001 20.0762L21.8801 20.1462H21.8701Z" fill="#2D485C"/>
  <path d="M21.4201 20.3965C21.4501 20.5565 21.4701 20.7765 21.4801 21.0265C21.5401 22.2865 21.1401 23.2065 21.1301 23.2065C21.1201 23.2065 21.5001 22.2865 21.3801 21.0365C21.3601 20.8065 21.3201 20.6165 21.2901 20.4665L21.4201 20.3965Z" fill="#2D485C"/>
  <path d="M21.3159 19.3443L21.0363 19.5C20.7854 19.6397 20.6953 19.9563 20.835 20.2072C20.9747 20.4582 21.2914 20.5483 21.5423 20.4086L21.8219 20.2529C22.0728 20.1132 22.1629 19.7965 22.0232 19.5456C21.8835 19.2947 21.5668 19.2046 21.3159 19.3443Z" fill="url(#paint38_radial_2697_4555)"/>
  <path d="M53.4203 88.0666C53.4203 88.0666 53.5103 88.0866 53.5603 88.0966L51.6103 82.7366C51.4003 82.6766 51.0103 82.5966 50.5803 82.7766C50.1203 82.9666 49.8803 83.3366 49.7803 83.5466L51.4203 88.0566C52.1303 87.9566 52.8203 87.9366 53.4203 88.0566V88.0666Z" fill="url(#paint39_linear_2697_4555)"/>
  <path d="M58.97 103.007L55.37 93.0967C55.04 93.8067 54.53 94.4567 53.96 95.0767L57.09 103.697C57.72 103.467 58.34 103.247 58.97 103.017V103.007Z" fill="url(#paint40_linear_2697_4555)"/>
  <path d="M54.7999 88.7168C54.3499 88.3168 53.8599 88.1668 53.5699 88.1068C53.5199 88.0968 53.4599 88.0768 53.4299 88.0768C52.8299 87.9468 52.1399 87.9768 51.4299 88.0768C49.5699 88.3368 47.5999 89.1568 46.8799 89.4768C46.6299 89.5868 46.5099 89.8868 46.6299 90.1368C46.7399 90.3868 47.0399 90.5068 47.2899 90.3868C47.7999 90.1568 49.9499 89.2368 51.7699 89.0368C52.2899 88.9768 52.7899 88.9668 53.2099 89.0568C53.3899 89.0968 53.7199 89.1768 54.0299 89.3968C54.0699 89.4268 54.0999 89.4468 54.1399 89.4768C54.5699 89.8568 54.7899 90.4768 54.7999 91.3068C54.7999 91.3668 54.7899 91.4168 54.7799 91.4668C54.7399 92.3968 54.2499 93.2268 53.5799 94.0168C53.1199 94.5468 52.5899 95.0568 52.0599 95.5668C50.7899 96.7768 49.3399 97.8068 47.7299 98.6368C47.4799 98.7668 47.3899 99.0668 47.5099 99.3068C47.5999 99.4768 47.7699 99.5768 47.9599 99.5768C48.0399 99.5768 48.1099 99.5568 48.1899 99.5168C49.8799 98.6468 51.4199 97.5568 52.7499 96.2868C53.1599 95.8968 53.5799 95.4968 53.9599 95.0768C54.5399 94.4668 55.0399 93.8168 55.3699 93.0968C55.6299 92.5368 55.7999 91.9468 55.7899 91.2868C55.7699 89.8768 55.2399 89.1168 54.7899 88.7168H54.7999Z" fill="black"/>
  <path d="M55.8301 100.207C55.9401 100.077 56.2201 99.7672 56.7001 99.6072C57.1601 99.4572 57.5501 99.5072 57.7201 99.5472C57.8001 99.7572 57.8701 99.9672 57.9501 100.177C57.8001 100.137 57.3901 100.057 56.9201 100.237C56.4201 100.427 56.1701 100.797 56.0901 100.917C56.0001 100.677 55.9201 100.437 55.8301 100.197V100.207Z" fill="url(#paint41_radial_2697_4555)"/>
  <path d="M57.0895 103.687C56.9695 103.357 57.3795 102.887 57.8195 102.737C58.2395 102.587 58.8495 102.677 58.9695 103.007C59.0895 103.327 58.6895 103.787 58.2895 103.947C57.8495 104.127 57.2095 104.017 57.0895 103.687Z" fill="url(#paint42_linear_2697_4555)"/>
  <path d="M61.6198 31.037C62.7498 31.807 63.8598 32.427 64.9298 32.967C65.8298 32.407 66.7498 31.877 67.6898 31.377C67.4598 31.097 67.1698 30.827 66.7598 30.617C65.5898 30.037 64.4898 30.467 64.3298 30.527C64.3698 29.537 63.8698 28.607 63.0298 28.107C61.8098 27.387 60.5598 27.977 60.4698 28.017C60.4898 27.937 60.7098 26.627 59.7098 25.707C58.7398 24.807 57.4898 25.097 57.3998 25.117C57.3998 25.047 57.4598 23.747 56.3898 23.007C55.6198 22.477 54.5798 22.457 53.7598 22.967C55.0498 24.977 57.5098 28.237 61.6198 31.037Z" fill="#9EB5C6"/>
  <path d="M48.2403 49.9065C48.4303 49.5965 48.6203 49.2865 48.8103 48.9765C45.8403 48.5865 42.8203 48.5165 39.8403 48.7865C44.5803 44.5765 49.9703 41.3065 55.8803 39.0865C56.4403 38.8765 57.0003 38.6865 57.5703 38.4965C58.1903 37.9365 58.8303 37.3865 59.4703 36.8565C58.1403 37.2365 56.8303 37.6765 55.5303 38.1565C49.7603 40.3165 44.4803 43.4565 39.8003 47.4865C41.7803 43.1665 43.9903 38.9165 46.4203 34.8365C48.7903 30.8665 51.3903 26.9765 54.1503 23.2665C54.3203 23.0465 54.2703 22.7365 54.0503 22.5665C53.8303 22.3965 53.5203 22.4465 53.3503 22.6665C50.5603 26.3965 47.9403 30.3165 45.5603 34.3165C42.9203 38.7565 40.5203 43.3965 38.4103 48.1165L29.5603 23.4465C29.4703 23.1865 29.1803 23.0565 28.9203 23.1465C28.6603 23.2365 28.5303 23.5265 28.6203 23.7865L37.4403 48.3865C33.3503 46.1465 29.0703 44.1865 24.7003 42.5865C19.9003 40.8265 14.9103 39.4665 9.88033 38.5165C9.61033 38.4665 9.35033 38.6465 9.30033 38.9165C9.25033 39.1865 9.43033 39.4465 9.70033 39.4965C14.6703 40.4265 19.6103 41.7765 24.3603 43.5165C28.5403 45.0465 32.6203 46.9065 36.5403 49.0265C31.0003 49.3565 25.5503 50.4365 20.3103 52.2565C14.1903 54.3865 8.49033 57.4765 3.36033 61.4265C3.14033 61.5965 3.10033 61.9065 3.27033 62.1265C3.37033 62.2565 3.52033 62.3165 3.67033 62.3165C3.78033 62.3165 3.88033 62.2865 3.98033 62.2165C9.03033 58.3265 14.6403 55.2865 20.6503 53.1965C25.8803 51.3765 31.3203 50.3065 36.8503 50.0065C32.9903 53.1765 29.7203 57.1265 27.3603 61.5165C24.8503 66.1865 23.3103 71.4465 22.9003 76.7365C22.8803 77.0165 23.0803 77.2565 23.3603 77.2765C23.3703 77.2765 23.3903 77.2765 23.4003 77.2765C23.6603 77.2765 23.8803 77.0765 23.9003 76.8165C24.3003 71.6665 25.8003 66.5365 28.2403 61.9865C30.7603 57.2965 34.3303 53.1265 38.5603 49.9065C41.7603 49.4965 45.0303 49.5065 48.2403 49.8865V49.9065Z" fill="url(#paint43_radial_2697_4555)"/>
  <path d="M40.1596 55.1068C39.7596 55.1068 39.3796 54.8668 39.2296 54.4668L37.4396 49.8068C37.2396 49.2868 37.4996 48.7168 38.0096 48.5168C38.5296 48.3168 39.0996 48.5768 39.2996 49.0868L41.0896 53.7468C41.2896 54.2668 41.0296 54.8368 40.5196 55.0368C40.3996 55.0768 40.2796 55.1068 40.1596 55.1068Z" fill="url(#paint44_linear_2697_4555)"/>
  <path d="M41.3304 72.297C39.5204 72.257 37.5204 72.3469 35.3504 72.6769C29.9704 73.4869 25.8804 75.397 23.4004 76.797C23.4804 76.867 24.9104 78.1169 26.7004 77.5769C28.0604 77.1569 28.6404 76.007 28.7404 75.797C28.8704 75.887 29.9604 76.6169 31.3004 76.2069C32.5504 75.8269 33.0504 74.7569 33.1204 74.5869C33.7704 75.3269 34.7804 75.657 35.7304 75.437C37.1104 75.117 37.6104 73.8269 37.6404 73.7369C37.6804 73.8069 38.4204 74.9069 39.7804 74.8869C40.4104 74.8869 40.9004 74.627 41.2404 74.367C41.2504 73.677 41.2804 72.9869 41.3204 72.3069L41.3304 72.297Z" fill="#9EB5C6"/>
  <path d="M46.9705 52.1866L40.8505 53.4566L55.5305 38.9366C55.6305 38.8366 55.6305 38.6866 55.5305 38.5866C55.4305 38.4866 55.2805 38.4866 55.1805 38.5866L40.5905 53.0166L45.6405 35.6866C45.6805 35.5566 45.6005 35.4166 45.4705 35.3766C45.3405 35.3366 45.2005 35.4166 45.1605 35.5466L40.0505 53.0766L33.7305 35.7566C33.6805 35.6266 33.5405 35.5566 33.4105 35.6066C33.2805 35.6566 33.2105 35.7966 33.2605 35.9266L39.5705 53.2266L24.2205 42.6866C24.1105 42.6066 23.9505 42.6366 23.8705 42.7466C23.7905 42.8566 23.8205 43.0166 23.9305 43.0966L39.1805 53.5766L20.4905 52.4966C20.3605 52.4966 20.2305 52.5966 20.2305 52.7366C20.2305 52.8766 20.3305 52.9966 20.4705 52.9966L39.2605 54.0866L27.9705 61.0266C27.8505 61.0966 27.8205 61.2566 27.8905 61.3666C27.9405 61.4466 28.0205 61.4866 28.1005 61.4866C28.1405 61.4866 28.1905 61.4766 28.2305 61.4466L40.1605 54.1166L46.6705 52.7666C46.7705 52.5766 46.8605 52.3866 46.9605 52.1966L46.9705 52.1866Z" fill="url(#paint45_radial_2697_4555)"/>
  <path d="M50.58 82.7772C51.01 82.5972 51.41 82.6672 51.61 82.7372L41.1 53.7672C40.91 53.2472 40.34 52.9872 39.82 53.1672C39.3 53.3572 39.03 53.9272 39.22 54.4472L49.78 83.5472C49.88 83.3372 50.12 82.9672 50.58 82.7772Z" fill="url(#paint46_linear_2697_4555)"/>
  <defs>
    <radialGradient id="paint0_radial_2697_4555" cx="0" cy="0" r="1" gradientUnits="userSpaceOnUse" gradientTransform="translate(35.9947 42.0937) rotate(-110.33) scale(34.66 41.9386)">
      <stop offset="0.25" stop-color="#394E68"/>
      <stop offset="0.48" stop-color="#48617B"/>
      <stop offset="0.71" stop-color="#506C85"/>
    </radialGradient>
    <radialGradient id="paint1_radial_2697_4555" cx="0" cy="0" r="1" gradientUnits="userSpaceOnUse" gradientTransform="translate(35.0419 48.6224) rotate(-20.6) scale(31.62 24.9798)">
      <stop stop-color="#72829F"/>
      <stop offset="0.3" stop-color="#6E7E9B"/>
      <stop offset="0.6" stop-color="#627491"/>
      <stop offset="0.9" stop-color="#4E6380"/>
      <stop offset="1" stop-color="#465C79"/>
    </radialGradient>
    <linearGradient id="paint2_linear_2697_4555" x1="54.8298" y1="103.137" x2="56.5798" y2="103.237" gradientUnits="userSpaceOnUse">
      <stop stop-color="#72829F"/>
      <stop offset="0.3" stop-color="#6E7E9B"/>
      <stop offset="0.6" stop-color="#627491"/>
      <stop offset="0.9" stop-color="#4E6380"/>
      <stop offset="1" stop-color="#465C79"/>
    </linearGradient>
    <linearGradient id="paint3_linear_2697_4555" x1="55.4405" y1="103.717" x2="57.1605" y2="103.427" gradientUnits="userSpaceOnUse">
      <stop stop-color="#72829F"/>
      <stop offset="0.3" stop-color="#6E7E9B"/>
      <stop offset="0.6" stop-color="#627491"/>
      <stop offset="0.9" stop-color="#4E6380"/>
      <stop offset="1" stop-color="#465C79"/>
    </linearGradient>
    <linearGradient id="paint4_linear_2697_4555" x1="24.0302" y1="9.96687" x2="25.8102" y2="14.4269" gradientUnits="userSpaceOnUse">
      <stop offset="0.42" stop-color="#B8A087"/>
      <stop offset="0.98" stop-color="#63534E"/>
    </linearGradient>
    <radialGradient id="paint5_radial_2697_4555" cx="0" cy="0" r="1" gradientUnits="userSpaceOnUse" gradientTransform="translate(25.9002 14.678) scale(5.55 2.997)">
      <stop stop-color="#597D94"/>
      <stop offset="1" stop-color="#597894"/>
    </radialGradient>
    <linearGradient id="paint6_linear_2697_4555" x1="27.0896" y1="17.297" x2="28.1196" y2="19.967" gradientUnits="userSpaceOnUse">
      <stop stop-color="#526D81"/>
      <stop offset="1" stop-color="#394E68"/>
    </linearGradient>
    <linearGradient id="paint7_linear_2697_4555" x1="32.9199" y1="16.3368" x2="47.0699" y2="16.3368" gradientUnits="userSpaceOnUse">
      <stop stop-color="#394E68"/>
      <stop offset="1" stop-color="#526D81"/>
    </linearGradient>
    <linearGradient id="paint8_linear_2697_4555" x1="10.0498" y1="23.9471" x2="21.3098" y2="23.9471" gradientUnits="userSpaceOnUse">
      <stop stop-color="#526D81"/>
      <stop offset="1" stop-color="#394E68"/>
    </linearGradient>
    <linearGradient id="paint9_linear_2697_4555" x1="3.74023" y1="32.0564" x2="10.1002" y2="32.0564" gradientUnits="userSpaceOnUse">
      <stop stop-color="#526D81"/>
      <stop offset="1" stop-color="#394E68"/>
    </linearGradient>
    <linearGradient id="paint10_linear_2697_4555" x1="47.0701" y1="16.3968" x2="56.3701" y2="16.3968" gradientUnits="userSpaceOnUse">
      <stop stop-color="#394E68"/>
      <stop offset="1" stop-color="#526D81"/>
    </linearGradient>
    <radialGradient id="paint11_radial_2697_4555" cx="0" cy="0" r="1" gradientUnits="userSpaceOnUse" gradientTransform="translate(8.2333 35.1521) rotate(-17.64) scale(0.9685 1.2516)">
      <stop stop-color="#526D81"/>
      <stop offset="1" stop-color="#394E68"/>
    </radialGradient>
    <radialGradient id="paint12_radial_2697_4555" cx="0" cy="0" r="1" gradientUnits="userSpaceOnUse" gradientTransform="translate(6.29488 37.399) rotate(-17.64) scale(1.17 1.512)">
      <stop stop-color="#526D81"/>
      <stop offset="1" stop-color="#394E68"/>
    </radialGradient>
    <radialGradient id="paint13_radial_2697_4555" cx="0" cy="0" r="1" gradientUnits="userSpaceOnUse" gradientTransform="translate(8.28923 36.765) rotate(-17.64) scale(1.17 1.512)">
      <stop stop-color="#526D81"/>
      <stop offset="1" stop-color="#394E68"/>
    </radialGradient>
    <radialGradient id="paint14_radial_2697_4555" cx="0" cy="0" r="1" gradientUnits="userSpaceOnUse" gradientTransform="translate(6.64894 35.0386) rotate(-17.64) scale(0.728 0.940801)">
      <stop stop-color="#526D81"/>
      <stop offset="1" stop-color="#394E68"/>
    </radialGradient>
    <radialGradient id="paint15_radial_2697_4555" cx="0" cy="0" r="1" gradientUnits="userSpaceOnUse" gradientTransform="translate(49.0405 23.3609) rotate(139.54) scale(0.9685 1.2516)">
      <stop stop-color="#526D81"/>
      <stop offset="1" stop-color="#394E68"/>
    </radialGradient>
    <radialGradient id="paint16_radial_2697_4555" cx="0" cy="0" r="1" gradientUnits="userSpaceOnUse" gradientTransform="translate(51.9674 22.8954) rotate(139.54) scale(1.17 1.512)">
      <stop stop-color="#526D81"/>
      <stop offset="1" stop-color="#394E68"/>
    </radialGradient>
    <radialGradient id="paint17_radial_2697_4555" cx="0" cy="0" r="1" gradientUnits="userSpaceOnUse" gradientTransform="translate(50.3698 24.2575) rotate(139.54) scale(1.17 1.512)">
      <stop stop-color="#526D81"/>
      <stop offset="1" stop-color="#394E68"/>
    </radialGradient>
    <radialGradient id="paint18_radial_2697_4555" cx="0" cy="0" r="1" gradientUnits="userSpaceOnUse" gradientTransform="translate(49.7758 21.9492) rotate(139.54) scale(0.727999 0.940799)">
      <stop stop-color="#526D81"/>
      <stop offset="1" stop-color="#394E68"/>
    </radialGradient>
    <radialGradient id="paint19_radial_2697_4555" cx="0" cy="0" r="1" gradientUnits="userSpaceOnUse" gradientTransform="translate(34.9313 15.574) rotate(-9.21) scale(1.18)">
      <stop stop-color="#526D81"/>
      <stop offset="1" stop-color="#394E68"/>
    </radialGradient>
    <radialGradient id="paint20_radial_2697_4555" cx="0" cy="0" r="1" gradientUnits="userSpaceOnUse" gradientTransform="translate(31.358 16.1538) rotate(-9.20999) scale(1.18)">
      <stop stop-color="#526D81"/>
      <stop offset="1" stop-color="#394E68"/>
    </radialGradient>
    <radialGradient id="paint21_radial_2697_4555" cx="0" cy="0" r="1" gradientUnits="userSpaceOnUse" gradientTransform="translate(32.1146 17.5101) rotate(-9.21001) scale(1.43)">
      <stop stop-color="#526D81"/>
      <stop offset="1" stop-color="#394E68"/>
    </radialGradient>
    <radialGradient id="paint22_radial_2697_4555" cx="0" cy="0" r="1" gradientUnits="userSpaceOnUse" gradientTransform="translate(34.6418 17.0999) rotate(-9.21) scale(1.43)">
      <stop stop-color="#526D81"/>
      <stop offset="1" stop-color="#394E68"/>
    </radialGradient>
    <radialGradient id="paint23_radial_2697_4555" cx="0" cy="0" r="1" gradientUnits="userSpaceOnUse" gradientTransform="translate(33.071 15.3045) rotate(-9.21) scale(0.879998 0.88)">
      <stop stop-color="#526D81"/>
      <stop offset="1" stop-color="#394E68"/>
    </radialGradient>
    <radialGradient id="paint24_radial_2697_4555" cx="0" cy="0" r="1" gradientUnits="userSpaceOnUse" gradientTransform="translate(48.6606 15.725) rotate(2.32) scale(1.18 1.18)">
      <stop stop-color="#526D81"/>
      <stop offset="1" stop-color="#394E68"/>
    </radialGradient>
    <radialGradient id="paint25_radial_2697_4555" cx="0" cy="0" r="1" gradientUnits="userSpaceOnUse" gradientTransform="translate(45.0537 15.5791) rotate(2.32) scale(1.18 1.18)">
      <stop stop-color="#526D81"/>
      <stop offset="1" stop-color="#394E68"/>
    </radialGradient>
    <radialGradient id="paint26_radial_2697_4555" cx="0" cy="0" r="1" gradientUnits="userSpaceOnUse" gradientTransform="translate(45.514 17.0591) rotate(2.32) scale(1.43)">
      <stop stop-color="#526D81"/>
      <stop offset="1" stop-color="#394E68"/>
    </radialGradient>
    <radialGradient id="paint27_radial_2697_4555" cx="0" cy="0" r="1" gradientUnits="userSpaceOnUse" gradientTransform="translate(48.0723 17.1628) rotate(2.32) scale(1.43)">
      <stop stop-color="#526D81"/>
      <stop offset="1" stop-color="#394E68"/>
    </radialGradient>
    <radialGradient id="paint28_radial_2697_4555" cx="0" cy="0" r="1" gradientUnits="userSpaceOnUse" gradientTransform="translate(46.8865 15.0926) rotate(2.32) scale(0.88)">
      <stop stop-color="#526D81"/>
      <stop offset="1" stop-color="#394E68"/>
    </radialGradient>
    <radialGradient id="paint29_radial_2697_4555" cx="0" cy="0" r="1" gradientUnits="userSpaceOnUse" gradientTransform="translate(11.7303 27.2606) rotate(-45.59) scale(1.18)">
      <stop stop-color="#526D81"/>
      <stop offset="1" stop-color="#394E68"/>
    </radialGradient>
    <radialGradient id="paint30_radial_2697_4555" cx="0" cy="0" r="1" gradientUnits="userSpaceOnUse" gradientTransform="translate(9.20437 29.8394) rotate(-45.59) scale(1.18)">
      <stop stop-color="#526D81"/>
      <stop offset="1" stop-color="#394E68"/>
    </radialGradient>
    <radialGradient id="paint31_radial_2697_4555" cx="0" cy="0" r="1" gradientUnits="userSpaceOnUse" gradientTransform="translate(10.6108 30.4895) rotate(-45.59) scale(1.43)">
      <stop stop-color="#526D81"/>
      <stop offset="1" stop-color="#394E68"/>
    </radialGradient>
    <radialGradient id="paint32_radial_2697_4555" cx="0" cy="0" r="1" gradientUnits="userSpaceOnUse" gradientTransform="translate(12.402 28.661) rotate(-45.59) scale(1.43)">
      <stop stop-color="#526D81"/>
      <stop offset="1" stop-color="#394E68"/>
    </radialGradient>
    <radialGradient id="paint33_radial_2697_4555" cx="0" cy="0" r="1" gradientUnits="userSpaceOnUse" gradientTransform="translate(10.0729 28.1441) rotate(-45.59) scale(0.88)">
      <stop stop-color="#526D81"/>
      <stop offset="1" stop-color="#394E68"/>
    </radialGradient>
    <radialGradient id="paint34_radial_2697_4555" cx="0" cy="0" r="1" gradientUnits="userSpaceOnUse" gradientTransform="translate(23.1613 19.2619) rotate(-29.11) scale(1.18)">
      <stop stop-color="#526D81"/>
      <stop offset="1" stop-color="#394E68"/>
    </radialGradient>
    <radialGradient id="paint35_radial_2697_4555" cx="0" cy="0" r="1" gradientUnits="userSpaceOnUse" gradientTransform="translate(19.9981 21.0234) rotate(-29.11) scale(1.18)">
      <stop stop-color="#526D81"/>
      <stop offset="1" stop-color="#394E68"/>
    </radialGradient>
    <radialGradient id="paint36_radial_2697_4555" cx="0" cy="0" r="1" gradientUnits="userSpaceOnUse" gradientTransform="translate(21.171 22.0412) rotate(-29.11) scale(1.43)">
      <stop stop-color="#526D81"/>
      <stop offset="1" stop-color="#394E68"/>
    </radialGradient>
    <radialGradient id="paint37_radial_2697_4555" cx="0" cy="0" r="1" gradientUnits="userSpaceOnUse" gradientTransform="translate(23.408 20.7956) rotate(-29.11) scale(1.43)">
      <stop stop-color="#526D81"/>
      <stop offset="1" stop-color="#394E68"/>
    </radialGradient>
    <radialGradient id="paint38_radial_2697_4555" cx="0" cy="0" r="1" gradientUnits="userSpaceOnUse" gradientTransform="translate(21.3162 19.6531) rotate(-29.11) scale(0.88)">
      <stop stop-color="#526D81"/>
      <stop offset="1" stop-color="#394E68"/>
    </radialGradient>
    <linearGradient id="paint39_linear_2697_4555" x1="50.2203" y1="81.8266" x2="58.4803" y2="104.567" gradientUnits="userSpaceOnUse">
      <stop stop-color="#1A272F"/>
      <stop offset="0.94" stop-color="#2F3F49"/>
    </linearGradient>
    <linearGradient id="paint40_linear_2697_4555" x1="50.21" y1="81.8267" x2="58.48" y2="104.567" gradientUnits="userSpaceOnUse">
      <stop stop-color="#1A272F"/>
      <stop offset="0.94" stop-color="#2F3F49"/>
    </linearGradient>
    <radialGradient id="paint41_radial_2697_4555" cx="0" cy="0" r="1" gradientUnits="userSpaceOnUse" gradientTransform="translate(56.8262 100.004) rotate(-20.6) scale(0.969999 0.766298)">
      <stop stop-color="#72829F"/>
      <stop offset="0.3" stop-color="#6E7E9B"/>
      <stop offset="0.6" stop-color="#627491"/>
      <stop offset="0.9" stop-color="#4E6380"/>
      <stop offset="1" stop-color="#465C79"/>
    </radialGradient>
    <linearGradient id="paint42_linear_2697_4555" x1="57.7895" y1="102.687" x2="58.2795" y2="104.027" gradientUnits="userSpaceOnUse">
      <stop stop-color="#1A272F"/>
      <stop offset="0.94" stop-color="#2F3F49"/>
    </linearGradient>
    <radialGradient id="paint43_radial_2697_4555" cx="0" cy="0" r="1" gradientUnits="userSpaceOnUse" gradientTransform="translate(31.3303 49.8765) scale(34.22 34.22)">
      <stop stop-color="#67564F"/>
      <stop offset="0.48" stop-color="#B8A087"/>
      <stop offset="1" stop-color="#63534E"/>
    </radialGradient>
    <linearGradient id="paint44_linear_2697_4555" x1="37.9096" y1="48.1968" x2="40.0696" y2="53.9168" gradientUnits="userSpaceOnUse">
      <stop stop-color="#63534E"/>
      <stop offset="0.94" stop-color="#B8A087"/>
    </linearGradient>
    <radialGradient id="paint45_radial_2697_4555" cx="0" cy="0" r="1" gradientUnits="userSpaceOnUse" gradientTransform="translate(37.9105 48.4166) scale(14.22 14.22)">
      <stop stop-color="#63534E"/>
      <stop offset="1" stop-color="#B8A087"/>
    </radialGradient>
    <linearGradient id="paint46_linear_2697_4555" x1="32.98" y1="34.5172" x2="62.47" y2="115.307" gradientUnits="userSpaceOnUse">
      <stop offset="0.15" stop-color="#B8A087"/>
      <stop offset="1" stop-color="#63534E"/>
    </linearGradient>
  </defs>
</svg>