<svg xmlns="http://www.w3.org/2000/svg" width="100" height="126" viewBox="0 0 100 126" fill="none">
  <path d="M14.082 107.59C14.082 104.952 16.2236 102.814 18.8654 102.814C21.5072 102.814 23.6488 104.952 23.6488 107.59V120.724C23.6488 123.362 21.5072 125.5 18.8654 125.5C16.2236 125.5 14.082 123.362 14.082 120.724V107.59Z" fill="#C8A16D"/>
  <path d="M75.6069 107.59C75.6069 104.952 77.7485 102.814 80.3903 102.814C83.0321 102.814 85.1737 104.952 85.1737 107.59V120.724C85.1737 123.362 83.0321 125.5 80.3903 125.5C77.7485 125.5 75.6069 123.362 75.6069 120.724V107.59Z" fill="#C8A16D"/>
  <path d="M26.3086 12.5728C26.3086 5.90519 31.7221 0.5 38.4 0.5C40.3079 0.5 41.8546 2.04434 41.8546 3.94938V54.8277C33.2688 54.8277 26.3086 47.8782 26.3086 39.3055V12.5728Z" fill="#C8A16D"/>
  <path d="M72.9464 12.5728C72.9464 5.90519 67.5329 0.5 60.8551 0.5C58.9471 0.5 57.4004 2.04434 57.4004 3.94938V54.8277C65.9862 54.8277 72.9464 47.8782 72.9464 39.3055V12.5728Z" fill="#C8A16D"/>
  <path d="M29.8961 15.993C29.8961 12.0525 33.0954 8.85806 37.042 8.85806C37.7185 8.85806 38.267 9.40568 38.267 10.0812V45.8726C33.6439 45.8726 29.8961 42.1305 29.8961 37.5145V15.993Z" fill="#FBECC3"/>
  <path d="M69.359 15.993C69.359 12.0525 66.1596 8.85806 62.213 8.85806C61.5365 8.85806 60.988 9.40568 60.988 10.0812V45.8726C65.6112 45.8726 69.359 42.1305 69.359 37.5145V15.993Z" fill="#FBECC3"/>
  <path d="M0 74.286C0 46.7141 22.3858 24.3627 50 24.3627C77.6142 24.3627 100 46.7141 100 74.286V112.123C100 113.284 99.0574 114.225 97.8947 114.225H2.10527C0.942561 114.225 0 113.284 0 112.123V74.286Z" fill="#C8A16D"/>
  <path d="M18.5714 114.225C18.5714 103.196 27.5257 94.2554 38.5714 94.2554H61.4286C72.4743 94.2554 81.4286 103.196 81.4286 114.225H18.5714Z" fill="#FBECC3"/>
  <path d="M42.9912 86.145C42.5214 87.3636 40.7946 87.3636 40.3248 86.145L39.0689 82.8871H44.2471L42.9912 86.145Z" fill="white"/>
  <path d="M59.7331 86.145C59.2633 87.3636 57.5364 87.3636 57.0667 86.145L55.8108 82.8871H60.989L59.7331 86.145Z" fill="white"/>
  <path d="M34.2857 76.9171C34.2857 72.9605 37.4981 69.753 41.4608 69.753H58.2027C62.1654 69.753 65.3778 72.9605 65.3778 76.9171C65.3778 80.8738 62.1654 84.0812 58.2027 84.0812H41.4608C37.4981 84.0812 34.2857 80.8738 34.2857 76.9171Z" fill="#FBECC3"/>
  <path d="M46.2437 71.2453C46.2437 70.0913 47.1807 69.1558 48.3365 69.1558H51.3261C52.4819 69.1558 53.4188 70.0913 53.4188 71.2453C53.4188 72.3993 52.4819 73.3349 51.3261 73.3349H48.3365C47.1807 73.3349 46.2437 72.3993 46.2437 71.2453Z" fill="#3E2A2A"/>
  <path fill-rule="evenodd" clip-rule="evenodd" d="M27.1429 61.8344V66.1136H24.2857V61.8344C24.2857 61.0467 24.9253 60.4081 25.7143 60.4081C26.5033 60.4081 27.1429 61.0467 27.1429 61.8344Z" fill="#3E2A2A"/>
  <path fill-rule="evenodd" clip-rule="evenodd" d="M75.7143 61.8344V66.1136H72.8571V61.8344C72.8571 61.0467 73.4967 60.4081 74.2857 60.4081C75.0747 60.4081 75.7143 61.0467 75.7143 61.8344Z" fill="#3E2A2A"/>
  <path d="M32.8571 71.8191C32.8571 75.758 29.6592 78.951 25.7143 78.951C21.7694 78.951 18.5714 75.758 18.5714 71.8191C18.5714 67.8803 21.7694 64.6872 25.7143 64.6872C29.6592 64.6872 32.8571 67.8803 32.8571 71.8191Z" fill="white"/>
  <path fill-rule="evenodd" clip-rule="evenodd" d="M25.7143 76.0983C28.0812 76.0983 30 74.1824 30 71.8191C30 69.4558 28.0812 67.54 25.7143 67.54C23.3474 67.54 21.4286 69.4558 21.4286 71.8191C21.4286 74.1824 23.3474 76.0983 25.7143 76.0983ZM25.7143 78.951C29.6592 78.951 32.8571 75.758 32.8571 71.8191C32.8571 67.8803 29.6592 64.6872 25.7143 64.6872C21.7694 64.6872 18.5714 67.8803 18.5714 71.8191C18.5714 75.758 21.7694 78.951 25.7143 78.951Z" fill="#3E2A2A"/>
  <path d="M81.4286 71.8191C81.4286 75.758 78.2306 78.951 74.2857 78.951C70.3408 78.951 67.1429 75.758 67.1429 71.8191C67.1429 67.8803 70.3408 64.6872 74.2857 64.6872C78.2306 64.6872 81.4286 67.8803 81.4286 71.8191Z" fill="white"/>
  <path fill-rule="evenodd" clip-rule="evenodd" d="M74.2857 76.0983C76.6526 76.0983 78.5714 74.1824 78.5714 71.8191C78.5714 69.4558 76.6526 67.54 74.2857 67.54C71.9188 67.54 70 69.4558 70 71.8191C70 74.1824 71.9188 76.0983 74.2857 76.0983ZM74.2857 78.951C78.2306 78.951 81.4286 75.758 81.4286 71.8191C81.4286 67.8803 78.2306 64.6872 74.2857 64.6872C70.3408 64.6872 67.1429 67.8803 67.1429 71.8191C67.1429 75.758 70.3408 78.951 74.2857 78.951Z" fill="#3E2A2A"/>
</svg>

