<svg xmlns="http://www.w3.org/2000/svg" width="18" height="18" viewBox="0 0 18 18" fill="none">
  <path d="M15.12 1.5H2.88C2.514 1.5 2.16299 1.64539 1.90419 1.90419C1.64539 2.16299 1.5 2.514 1.5 2.88V15.12C1.5 15.882 2.118 16.5 2.88 16.5H15.12C15.486 16.5 15.837 16.3546 16.0958 16.0958C16.3546 15.837 16.5 15.486 16.5 15.12V2.88C16.5 2.514 16.3546 2.16299 16.0958 1.90419C15.837 1.64539 15.486 1.5 15.12 1.5Z" fill="#88C86A"/>
  <path d="M12.714 11.8785H11.895V13.503H9.56698V11.88H5.21698V11.439L8.11948 4.44604H10.5255L8.28148 9.84755H9.73048L10.263 7.85255H11.895V9.84755H12.714V11.88V11.8785Z" fill="white"/>
</svg>