<svg xmlns="http://www.w3.org/2000/svg" width="18" height="18" viewBox="0 0 18 18" fill="none">
  <path d="M9 1.5C13.1423 1.5 16.5 4.85775 16.5 9C16.5 13.1423 13.1423 16.5 9 16.5C4.85775 16.5 1.5 13.1423 1.5 9C1.5 4.85775 4.85775 1.5 9 1.5ZM9 3C7.4087 3 5.88258 3.63214 4.75736 4.75736C3.63214 5.88258 3 7.4087 3 9C3 10.5913 3.63214 12.1174 4.75736 13.2426C5.88258 14.3679 7.4087 15 9 15C10.5913 15 12.1174 14.3679 13.2426 13.2426C14.3679 12.1174 15 10.5913 15 9C15 7.4087 14.3679 5.88258 13.2426 4.75736C12.1174 3.63214 10.5913 3 9 3ZM7.40925 6.348L9 7.9395L10.5907 6.348C10.6604 6.27832 10.7432 6.22304 10.8342 6.18533C10.9252 6.14762 11.0228 6.12821 11.1214 6.12821C11.2199 6.12821 11.3175 6.14762 11.4085 6.18533C11.4996 6.22304 11.5823 6.27832 11.652 6.348C11.7217 6.41768 11.777 6.50041 11.8147 6.59145C11.8524 6.6825 11.8718 6.78008 11.8718 6.87862C11.8718 6.97717 11.8524 7.07475 11.8147 7.1658C11.777 7.25684 11.7217 7.33957 11.652 7.40925L10.0605 8.99925L11.652 10.5907C11.7927 10.7315 11.8718 10.9224 11.8718 11.1214C11.8718 11.3204 11.7927 11.5113 11.652 11.652C11.5113 11.7927 11.3204 11.8718 11.1214 11.8718C10.9224 11.8718 10.7315 11.7927 10.5907 11.652L9 10.0605L7.40925 11.652C7.26852 11.7927 7.07765 11.8718 6.87862 11.8718C6.6796 11.8718 6.48873 11.7927 6.348 11.652C6.20727 11.5113 6.12821 11.3204 6.12821 11.1214C6.12821 10.9224 6.20727 10.7315 6.348 10.5907L7.9395 9L6.34875 7.40925C6.20802 7.26862 6.12892 7.07784 6.12885 6.87889C6.12878 6.67994 6.20774 6.48911 6.34838 6.34838C6.48901 6.20764 6.67978 6.12854 6.87873 6.12847C7.07769 6.1284 7.26852 6.20737 7.40925 6.348Z" fill="#969696"/>
</svg>