<svg xmlns="http://www.w3.org/2000/svg" width="18" height="18" viewBox="0 0 18 18" fill="none">
  <path d="M15.1755 1.5H2.8245C2.47322 1.5 2.13633 1.63955 1.88794 1.88794C1.63955 2.13633 1.5 2.47322 1.5 2.8245V15.1755C1.5 15.9075 2.0925 16.5 2.8245 16.5H15.1755C15.5268 16.5 15.8637 16.3605 16.1121 16.1121C16.3605 15.8637 16.5 15.5268 16.5 15.1755V2.8245C16.5 2.47322 16.3605 2.13633 16.1121 1.88794C15.8637 1.63955 15.5268 1.5 15.1755 1.5Z" fill="#77A9FC"/>
  <path d="M12.4095 11.3579V13.5059H5.66998V12.9554C9.31498 8.65488 9.81748 7.96038 9.81748 7.18038C9.81748 6.68988 9.49498 6.36138 9.02998 6.36138C8.51998 6.36138 8.21248 6.70488 8.21248 7.24938V7.42488H5.81698V7.25688C5.81698 5.42538 7.01698 4.21338 9.00448 4.21338C10.9245 4.21338 12.2535 5.39538 12.2535 7.09638C12.2535 8.23638 11.832 9.11238 9.89248 11.3564L12.4095 11.3579Z" fill="white"/>
</svg>