<svg xmlns="http://www.w3.org/2000/svg" width="12" height="13" viewBox="0 0 12 13" fill="none">
  <path d="M5.33333 0.5C5.50325 0.500188 5.66669 0.565253 5.79025 0.681899C5.9138 0.798545 5.98816 0.957969 5.99812 1.1276C6.00807 1.29722 5.95288 1.46425 5.84382 1.59455C5.73476 1.72486 5.58006 1.8086 5.41133 1.82867L5.33333 1.83333H2C1.83671 1.83335 1.67911 1.8933 1.55709 2.00181C1.43506 2.11032 1.3571 2.25983 1.338 2.422L1.33333 2.5V10.5C1.33335 10.6633 1.3933 10.8209 1.50181 10.9429C1.61032 11.0649 1.75983 11.1429 1.922 11.162L2 11.1667H5C5.16992 11.1669 5.33335 11.2319 5.45691 11.3486C5.58047 11.4652 5.65482 11.6246 5.66478 11.7943C5.67474 11.9639 5.61955 12.1309 5.51049 12.2612C5.40143 12.3915 5.24673 12.4753 5.078 12.4953L5 12.5H2C1.48986 12.5 0.99899 12.3051 0.627826 11.9551C0.256662 11.6052 0.0332617 11.1266 0.00333341 10.6173L3.10696e-09 10.5V2.5C-2.84145e-05 1.98986 0.194883 1.49899 0.544856 1.12783C0.894828 0.756662 1.3734 0.533262 1.88267 0.503333L2 0.5H5.33333ZM9.138 4.14267L11.0233 6.02867C11.1483 6.15369 11.2185 6.32322 11.2185 6.5C11.2185 6.67678 11.1483 6.84631 11.0233 6.97133L9.138 8.85733C9.01291 8.98234 8.84328 9.05253 8.66643 9.05247C8.48958 9.05241 8.32001 8.98209 8.195 8.857C8.06999 8.73191 7.9998 8.56228 7.99987 8.38543C7.99993 8.20858 8.07024 8.03901 8.19533 7.914L8.94267 7.16667H5.33333C5.15652 7.16667 4.98695 7.09643 4.86193 6.9714C4.7369 6.84638 4.66667 6.67681 4.66667 6.5C4.66667 6.32319 4.7369 6.15362 4.86193 6.0286C4.98695 5.90357 5.15652 5.83333 5.33333 5.83333H8.94267L8.19533 5.086C8.07024 4.96099 7.99993 4.79142 7.99987 4.61457C7.9998 4.43772 8.06999 4.26809 8.195 4.143C8.32001 4.01791 8.48958 3.94759 8.66643 3.94753C8.84328 3.94747 9.01291 4.01766 9.138 4.14267Z" fill="white"/>
</svg>