<svg xmlns="http://www.w3.org/2000/svg" width="20" height="20" viewBox="0 0 20 20" fill="none">
  <path d="M3.70012 3.69987C3.93449 3.46579 4.2522 3.33431 4.58345 3.33431C4.9147 3.33431 5.23241 3.46579 5.46678 3.69987L10.0001 8.23154L14.5335 3.69987C14.6495 3.58387 14.7872 3.49185 14.9387 3.42908C15.0903 3.3663 15.2527 3.33398 15.4168 3.33398C15.5808 3.33398 15.7433 3.3663 15.8948 3.42908C16.0464 3.49185 16.1841 3.58387 16.3001 3.69987C16.4161 3.81587 16.5081 3.95359 16.5709 4.10515C16.6337 4.25671 16.666 4.41916 16.666 4.58321C16.666 4.74726 16.6337 4.9097 16.5709 5.06126C16.5081 5.21283 16.4161 5.35054 16.3001 5.46654L11.7685 9.99987L16.3001 14.5332C16.5344 14.7675 16.666 15.0852 16.666 15.4165C16.666 15.7479 16.5344 16.0656 16.3001 16.2999C16.0658 16.5341 15.7481 16.6658 15.4168 16.6658C15.0855 16.6658 14.7677 16.5341 14.5335 16.2999L10.0001 11.7682L5.46678 16.2999C5.23251 16.5341 4.91476 16.6658 4.58345 16.6658C4.25214 16.6658 3.93439 16.5341 3.70012 16.2999C3.46584 16.0656 3.33423 15.7479 3.33423 15.4165C3.33423 15.0852 3.46584 14.7675 3.70012 14.5332L8.23178 9.99987L3.70012 5.46654C3.46603 5.23216 3.33455 4.91446 3.33455 4.58321C3.33455 4.25196 3.46603 3.93425 3.70012 3.69987Z" fill="white"/>
</svg>