<svg xmlns="http://www.w3.org/2000/svg" width="24" height="25" viewBox="0 0 24 25" fill="none">
  <path fill-rule="evenodd" clip-rule="evenodd" d="M12 14.3052L17.657 19.9622C17.8456 20.1444 18.0982 20.2452 18.3604 20.2429C18.6226 20.2406 18.8734 20.1354 19.0588 19.95C19.2442 19.7646 19.3494 19.5138 19.3517 19.2516C19.354 18.9894 19.2532 18.7368 19.071 18.5482L13.414 12.8912L19.071 7.2342C19.2532 7.0456 19.354 6.793 19.3517 6.5308C19.3494 6.2686 19.2442 6.01779 19.0588 5.83238C18.8734 5.64698 18.6226 5.54181 18.3604 5.53953C18.0982 5.53725 17.8456 5.63804 17.657 5.8202L12 11.4772L6.34301 5.8202C6.15356 5.64255 5.90242 5.54557 5.64274 5.54978C5.38305 5.554 5.1352 5.65908 4.95162 5.8428C4.76803 6.02651 4.66313 6.27444 4.65909 6.53412C4.65506 6.79381 4.75222 7.04488 4.93001 7.2342L10.586 12.8912L4.92901 18.5482C4.8335 18.6404 4.75731 18.7508 4.70491 18.8728C4.6525 18.9948 4.62491 19.126 4.62376 19.2588C4.6226 19.3916 4.6479 19.5233 4.69818 19.6462C4.74847 19.7691 4.82272 19.8807 4.91661 19.9746C5.0105 20.0685 5.12216 20.1427 5.24505 20.193C5.36795 20.2433 5.49963 20.2686 5.63241 20.2675C5.76519 20.2663 5.89641 20.2387 6.01841 20.1863C6.14041 20.1339 6.25076 20.0577 6.34301 19.9622L12 14.3052Z" fill="#969696"/>
</svg>