<svg xmlns="http://www.w3.org/2000/svg" width="14" height="16" viewBox="0 0 14 16" fill="none">
  <path d="M11.05 4.98364H10.75V3.93364C10.825 1.83364 9.1 0.108643 7 0.108643C4.9 0.108643 3.175 1.83364 3.175 3.93364V5.05864H2.95C1.45 5.05864 0.25 6.25864 0.25 7.75864V12.4836C0.25 13.9836 1.45 15.1836 2.95 15.1836H11.125C12.625 15.1836 13.825 13.9836 13.825 12.4836V7.75864C13.75 6.18364 12.55 4.98364 11.05 4.98364ZM4.675 3.93364C4.675 2.65864 5.725 1.60864 7 1.60864C8.275 1.60864 9.325 2.65864 9.325 3.93364V5.05864H4.675V3.93364Z" fill="#969696"/>
</svg>