<svg xmlns="http://www.w3.org/2000/svg" width="19" height="19" viewBox="0 0 19 19" fill="none">
  <path d="M9.5 2.75C9.69116 2.75021 9.87502 2.82341 10.014 2.95464C10.153 3.08586 10.2367 3.26521 10.2479 3.45605C10.2591 3.64688 10.197 3.83478 10.0743 3.98137C9.95161 4.12796 9.77757 4.22217 9.58775 4.24475L9.5 4.25H5.75C5.5663 4.25002 5.389 4.31747 5.25172 4.43954C5.11444 4.56161 5.02674 4.72981 5.00525 4.91225L5 5V14C5.00002 14.1837 5.06747 14.361 5.18954 14.4983C5.31161 14.6356 5.47981 14.7233 5.66225 14.7448L5.75 14.75H9.125C9.31616 14.7502 9.50002 14.8234 9.63903 14.9546C9.77803 15.0859 9.86168 15.2652 9.87288 15.456C9.88408 15.6469 9.82199 15.8348 9.6993 15.9814C9.57661 16.128 9.40257 16.2222 9.21275 16.2448L9.125 16.25H5.75C5.17609 16.25 4.62386 16.0308 4.2063 15.637C3.78874 15.2433 3.53742 14.7049 3.50375 14.132L3.5 14V5C3.49997 4.42609 3.71924 3.87386 4.11296 3.4563C4.50668 3.03874 5.04508 2.78742 5.618 2.75375L5.75 2.75H9.5ZM13.7803 6.848L15.9012 8.96975C16.0419 9.1104 16.1208 9.30113 16.1208 9.5C16.1208 9.69887 16.0419 9.8896 15.9012 10.0302L13.7803 12.152C13.6395 12.2926 13.4487 12.3716 13.2497 12.3715C13.0508 12.3715 12.86 12.2924 12.7194 12.1516C12.5787 12.0109 12.4998 11.8201 12.4998 11.6211C12.4999 11.4222 12.579 11.2314 12.7197 11.0907L13.5605 10.25H9.5C9.30109 10.25 9.11032 10.171 8.96967 10.0303C8.82902 9.88968 8.75 9.69891 8.75 9.5C8.75 9.30109 8.82902 9.11032 8.96967 8.96967C9.11032 8.82902 9.30109 8.75 9.5 8.75H13.5605L12.7197 7.90925C12.579 7.76862 12.4999 7.57784 12.4998 7.37889C12.4998 7.17994 12.5787 6.98911 12.7194 6.84838C12.86 6.70764 13.0508 6.62854 13.2497 6.62847C13.4487 6.6284 13.6395 6.70737 13.7803 6.848Z" fill="#666666"/>
</svg>