<svg xmlns="http://www.w3.org/2000/svg" width="18" height="18" viewBox="0 0 18 18" fill="none">
  <path d="M15.1755 1.5H2.8245C2.47322 1.5 2.13633 1.63955 1.88794 1.88794C1.63955 2.13633 1.5 2.47322 1.5 2.8245V15.1755C1.5 15.9075 2.0925 16.5 2.8245 16.5H15.1755C15.5268 16.5 15.8637 16.3605 16.1121 16.1121C16.3605 15.8637 16.5 15.5268 16.5 15.1755V2.8245C16.5 2.47322 16.3605 2.13633 16.1121 1.88794C15.8637 1.63955 15.5268 1.5 15.1755 1.5Z" fill="#AD3C48"/>
  <path d="M12.1875 13.8405L11.5395 8.3475L9.33451 13.8555H8.66251L6.45901 8.349L5.82001 13.839H3.49951L4.75651 4.302H7.04251L9.00001 9.489L10.9695 4.302H13.2555L14.5005 13.8405H12.1875Z" fill="white"/>
</svg>