<svg width="24" height="24" viewBox="0 0 24 24" fill="none" xmlns="http://www.w3.org/2000/svg">
<g id="right_line" clip-path="url(#clip0_1160_997)">
<g id="Right Line Container">
<path id="Vector" fill-rule="evenodd" clip-rule="evenodd" d="M15.707 11.2932C15.8944 11.4807 15.9998 11.735 15.9998 12.0002C15.9998 12.2653 15.8944 12.5197 15.707 12.7072L10.05 18.3642C9.95773 18.4597 9.84739 18.5359 9.72538 18.5883C9.60338 18.6407 9.47216 18.6683 9.33938 18.6694C9.2066 18.6706 9.07492 18.6453 8.95202 18.595C8.82913 18.5447 8.71747 18.4705 8.62358 18.3766C8.52969 18.2827 8.45544 18.171 8.40515 18.0481C8.35487 17.9252 8.32957 17.7936 8.33073 17.6608C8.33188 17.528 8.35947 17.3968 8.41188 17.2748C8.46428 17.1528 8.54047 17.0424 8.63598 16.9502L13.586 12.0002L8.63598 7.05018C8.45382 6.86158 8.35302 6.60898 8.3553 6.34678C8.35758 6.08458 8.46275 5.83377 8.64816 5.64836C8.83357 5.46295 9.08438 5.35778 9.34658 5.35551C9.60877 5.35323 9.86137 5.45402 10.05 5.63618L15.707 11.2932Z" fill="#969696"/>
</g>
</g>
<defs>
<clipPath id="clip0_1160_997">
<rect width="24" height="24" fill="white"/>
</clipPath>
</defs>
</svg>
