<svg xmlns="http://www.w3.org/2000/svg" width="18" height="18" viewBox="0 0 18 18" fill="none">
  <path d="M15.1755 1.5H2.8245C2.47322 1.5 2.13633 1.63955 1.88794 1.88794C1.63955 2.13633 1.5 2.47322 1.5 2.8245V15.1755C1.5 15.9075 2.0925 16.5 2.8245 16.5H15.1755C15.5268 16.5 15.8637 16.3605 16.1121 16.1121C16.3605 15.8637 16.5 15.5268 16.5 15.1755V2.8245C16.5 2.47322 16.3605 2.13633 16.1121 1.88794C15.8637 1.63955 15.5268 1.5 15.1755 1.5Z" fill="#D65E58"/>
  <path d="M5.17047 10.7594H7.88097C7.88097 11.4419 8.40597 11.7734 9.00597 11.7734C9.55647 11.7734 10.0815 11.4794 10.0815 10.9604C10.0815 10.3619 9.33897 10.1894 8.43147 9.9689C7.05297 9.6269 5.29347 9.2039 5.29347 7.0319C5.29347 5.1524 6.67347 4.0769 8.92347 4.0769C11.2095 4.0769 12.5205 5.2499 12.5205 7.1909H9.88497C9.88497 6.5879 9.43497 6.3059 8.89197 6.3059C8.42247 6.3059 7.97247 6.5084 7.97247 6.9524C7.97247 7.4954 8.69247 7.6739 9.58947 7.9004C10.9935 8.2604 12.8295 8.7314 12.8295 10.9094C12.8295 12.9929 11.229 14.0744 9.01347 14.0744C6.67947 14.0744 5.17047 12.8384 5.17047 10.7594Z" fill="white"/>
</svg>