<svg xmlns="http://www.w3.org/2000/svg" width="24" height="24" viewBox="0 0 24 24" fill="none">
  <path fill-rule="evenodd" clip-rule="evenodd" d="M11.2931 8.2929C11.4807 8.10543 11.735 8.00011 12.0001 8.00011C12.2653 8.00011 12.5196 8.10543 12.7071 8.2929L18.3641 13.9499C18.4597 14.0421 18.5358 14.1525 18.5882 14.2745C18.6407 14.3965 18.6682 14.5277 18.6694 14.6605C18.6705 14.7933 18.6452 14.925 18.595 15.0479C18.5447 15.1708 18.4704 15.2824 18.3765 15.3763C18.2826 15.4702 18.171 15.5444 18.0481 15.5947C17.9252 15.645 17.7935 15.6703 17.6607 15.6692C17.528 15.668 17.3967 15.6404 17.2747 15.588C17.1527 15.5356 17.0424 15.4594 16.9501 15.3639L12.0001 10.4139L7.05014 15.3639C6.86154 15.5461 6.60894 15.6469 6.34674 15.6446C6.08455 15.6423 5.83373 15.5371 5.64833 15.3517C5.46292 15.1663 5.35775 14.9155 5.35547 14.6533C5.35319 14.3911 5.45399 14.1385 5.63614 13.9499L11.2931 8.2929Z" fill="#666666"/>
</svg>