<svg xmlns="http://www.w3.org/2000/svg" width="42" height="42" viewBox="0 0 42 42" fill="none">
  <rect width="42" height="42" rx="21" fill="#00D2B1"/>
  <rect x="0.5" y="0.5" width="41" height="41" rx="20.5" stroke="black" stroke-opacity="0.1"/>
  <path opacity="0.24" d="M17.8514 14.1566L15.9963 13.167C15.1099 12.6922 14 13.2867 14 14.2327V27.7673C14 28.7134 15.1099 29.3078 15.9963 28.833L17.8514 27.8434C18.2632 27.6223 18.5181 27.2163 18.5181 26.7741V15.2259C18.5181 14.7837 18.2632 14.3777 17.8514 14.1566Z" fill="white"/>
  <path d="M21.4126 25.9695L23.2638 24.9836C23.6756 24.7625 23.9305 24.3566 23.9305 23.9144V18.1438C23.9305 17.7016 23.6756 17.2956 23.2638 17.0745L21.4126 16.0886C20.5223 15.6138 19.4124 16.2082 19.4124 17.1579V24.9075C19.4124 25.8535 20.5223 26.4444 21.4126 25.9695Z" fill="white"/>
  <path d="M28.6761 19.9629L26.8249 18.9734C25.9346 18.4986 24.8247 19.093 24.8247 20.0427V23.0838C24.8247 23.5586 25.3816 23.8558 25.8248 23.6166L28.6761 22.0942C29.5664 21.6194 29.5664 20.4378 28.6761 19.9629Z" fill="white"/>
  <path d="M15.0001 23.6068L18.1848 21.9069C18.3926 21.7981 18.5181 21.5915 18.5181 21.374V15.2446C18.5181 14.8024 18.2632 14.3965 17.8514 14.1754L16.0002 13.1894C15.1099 12.7146 14 13.3091 14 14.2587V23.074C14 23.5452 14.5569 23.8424 15.0001 23.6068Z" fill="white"/>
</svg>