<svg xmlns="http://www.w3.org/2000/svg" width="18" height="18" viewBox="0 0 18 18" fill="none">
  <path d="M15.1755 1.5H2.8245C2.47322 1.5 2.13633 1.63955 1.88794 1.88794C1.63955 2.13633 1.5 2.47322 1.5 2.8245V15.1755C1.5 15.9075 2.0925 16.5 2.8245 16.5H15.1755C15.5268 16.5 15.8637 16.3605 16.1121 16.1121C16.3605 15.8637 16.5 15.5268 16.5 15.1755V2.8245C16.5 2.47322 16.3605 2.13633 16.1121 1.88794C15.8637 1.63955 15.5268 1.5 15.1755 1.5Z" fill="#88C86A"/>
  <path d="M12.2205 10.5541C12.2205 12.3976 10.7925 13.7161 8.80351 13.7161C6.85651 13.7161 5.51851 12.4456 5.46301 10.5691H7.78801C7.81651 11.2081 8.21251 11.6326 8.80801 11.6326C9.42901 11.6326 9.86251 11.1766 9.86251 10.5136C9.86251 9.85208 9.41251 9.44108 8.70751 9.44108H7.25701V8.93708L8.73151 6.51158H5.69101V4.44458H11.9085V4.86158L10.089 7.77308C11.3895 8.09858 12.219 9.15008 12.219 10.5541H12.2205Z" fill="white"/>
</svg>