
<svg width="331" height="263" viewBox="0 0 331 263" fill="none" xmlns="http://www.w3.org/2000/svg">
<mask id="path-1-outside-1_531_1094" maskUnits="userSpaceOnUse" x="0" y="0" width="331" height="263" fill="black">
<rect fill="white" width="331" height="263"/>
<path d="M13.3257 20.4555H317.674V178.809H13.3257V20.4555Z"/>
<path d="M11.3278 190.636H319.672V224.147C319.672 225.598 318.48 226.775 317.008 226.775H15.3278C13.1186 226.775 11.3278 224.984 11.3278 222.775V190.636Z"/>
<path d="M290.37 163.039C290.37 161.588 291.562 160.411 293.033 160.411H321.67C323.141 160.411 324.334 161.588 324.334 163.039V169.61C324.334 171.062 323.141 172.238 321.67 172.238H293.033C291.562 172.238 290.37 171.062 290.37 169.61V163.039Z"/>
<path d="M290.37 104.56C290.37 103.109 291.562 101.932 293.033 101.932H321.67C323.141 101.932 324.334 103.109 324.334 104.56V111.131C324.334 112.582 323.141 113.759 321.67 113.759H293.033C291.562 113.759 290.37 112.582 290.37 111.131V104.56Z"/>
<path d="M6 181.437C6 179.986 7.19266 178.809 8.66388 178.809H322.336C323.807 178.809 325 179.986 325 181.437V188.008C325 189.459 323.807 190.636 322.336 190.636H8.66388C7.19266 190.636 6 189.459 6 188.008V181.437Z"/>
<path d="M35.3027 39.5105H295.031V151.869H35.3027V39.5105Z"/>
<path d="M110.017 211.662C110.017 233.867 91.7727 251.867 69.2671 251.867C46.7616 251.867 28.5173 233.867 28.5173 211.662C28.5173 189.458 46.7616 171.457 69.2671 171.457C91.7727 171.457 110.017 189.458 110.017 211.662Z"/>
<path fill-rule="evenodd" clip-rule="evenodd" d="M115.219 211.662C115.219 236.702 94.6458 257 69.2672 257C43.8886 257 23.3152 236.702 23.3152 211.662C23.3152 186.623 43.8886 166.325 69.2672 166.325C94.6458 166.325 115.219 186.623 115.219 211.662ZM69.2671 251.867C91.7727 251.867 110.017 233.867 110.017 211.662C110.017 189.458 91.7727 171.457 69.2671 171.457C46.7616 171.457 28.5173 189.458 28.5173 211.662C28.5173 233.867 46.7616 251.867 69.2671 251.867Z"/>
<path fill-rule="evenodd" clip-rule="evenodd" d="M64.9319 243.027V227.347C62.1497 226.6 59.6604 225.152 57.6711 223.207L43.9065 231.047C48.9385 237.446 56.4034 241.89 64.9319 243.027ZM39.5653 223.643L53.3325 215.801C52.9809 214.479 52.7938 213.092 52.7938 211.662C52.7938 210.232 52.981 208.845 53.3325 207.524L39.5652 199.682C38.0324 203.377 37.1874 207.422 37.1874 211.662C37.1874 215.902 38.0324 219.947 39.5653 223.643ZM43.9064 192.277L57.6713 200.118C59.6605 198.173 62.1498 196.725 64.9319 195.978V180.298C56.4033 181.435 48.9384 185.878 43.9064 192.277ZM94.6279 231.047C89.5958 237.446 82.1308 241.89 73.6021 243.027V227.347C76.3845 226.6 78.8739 225.152 80.8632 223.207L94.6279 231.047ZM98.969 223.643L85.2018 215.8C85.5533 214.479 85.7405 213.092 85.7405 211.662C85.7405 210.232 85.5533 208.846 85.2018 207.524L98.9691 199.682C100.502 203.377 101.347 207.422 101.347 211.662C101.347 215.902 100.502 219.947 98.969 223.643ZM94.628 192.277L80.863 200.118C78.8738 198.173 76.3844 196.725 73.6021 195.978V180.298C82.1308 181.435 89.596 185.878 94.628 192.277ZM110.017 211.662C110.017 233.867 91.7727 251.867 69.2671 251.867C46.7616 251.867 28.5173 233.867 28.5173 211.662C28.5173 189.458 46.7616 171.457 69.2671 171.457C91.7727 171.457 110.017 189.458 110.017 211.662ZM77.0704 211.662C77.0704 215.914 73.5768 219.361 69.2672 219.361C64.9576 219.361 61.464 215.914 61.464 211.662C61.464 207.41 64.9576 203.964 69.2672 203.964C73.5768 203.964 77.0704 207.41 77.0704 211.662Z"/>
<path d="M302.618 211.662C302.618 233.867 284.374 251.867 261.868 251.867C239.363 251.867 221.118 233.867 221.118 211.662C221.118 189.458 239.363 171.457 261.868 171.457C284.374 171.457 302.618 189.458 302.618 211.662Z"/>
<path fill-rule="evenodd" clip-rule="evenodd" d="M307.82 211.662C307.82 236.702 287.247 257 261.868 257C236.49 257 215.916 236.702 215.916 211.662C215.916 186.623 236.49 166.325 261.868 166.325C287.247 166.325 307.82 186.623 307.82 211.662ZM261.868 251.867C284.374 251.867 302.618 233.867 302.618 211.662C302.618 189.458 284.374 171.457 261.868 171.457C239.363 171.457 221.118 189.458 221.118 211.662C221.118 233.867 239.363 251.867 261.868 251.867Z"/>
<path fill-rule="evenodd" clip-rule="evenodd" d="M257.533 243.027V227.347C254.751 226.6 252.262 225.152 250.272 223.207L236.508 231.048C241.54 237.447 249.005 241.89 257.533 243.027ZM232.166 223.643L245.934 215.801C245.582 214.479 245.395 213.092 245.395 211.662C245.395 210.232 245.582 208.845 245.934 207.524L232.166 199.682C230.634 203.377 229.789 207.422 229.789 211.662C229.789 215.902 230.634 219.947 232.166 223.643ZM236.508 192.277L250.273 200.118C252.262 198.173 254.751 196.725 257.533 195.978V180.298C249.005 181.435 241.54 185.878 236.508 192.277ZM287.229 231.047C282.197 237.446 274.732 241.89 266.204 243.027V227.347C268.986 226.6 271.475 225.152 273.465 223.207L287.229 231.047ZM291.57 223.643L277.803 215.8C278.155 214.479 278.342 213.092 278.342 211.662C278.342 210.232 278.155 208.846 277.803 207.524L291.57 199.682C293.103 203.377 293.948 207.422 293.948 211.662C293.948 215.902 293.103 219.947 291.57 223.643ZM287.229 192.277L273.464 200.118C271.475 198.173 268.986 196.725 266.204 195.978V180.298C274.732 181.435 282.197 185.878 287.229 192.277ZM302.618 211.662C302.618 233.867 284.374 251.867 261.868 251.867C239.363 251.867 221.118 233.867 221.118 211.662C221.118 189.458 239.363 171.457 261.868 171.457C284.374 171.457 302.618 189.458 302.618 211.662ZM269.672 211.662C269.672 215.914 266.178 219.361 261.869 219.361C257.559 219.361 254.065 215.914 254.065 211.662C254.065 207.41 257.559 203.964 261.869 203.964C266.178 203.964 269.672 207.41 269.672 211.662Z"/>
<path d="M6 13.2277C6 9.23597 9.27982 6 13.3257 6H317.674C321.72 6 325 9.23597 325 13.2277C325 17.2195 321.72 20.4555 317.674 20.4555H13.3257C9.27982 20.4555 6 17.2195 6 13.2277Z"/>
</mask>
<path d="M13.3257 20.4555H317.674V178.809H13.3257V20.4555Z" fill="#222222"/>
<path d="M11.3278 190.636H319.672V224.147C319.672 225.598 318.48 226.775 317.008 226.775H15.3278C13.1186 226.775 11.3278 224.984 11.3278 222.775V190.636Z" fill="#F2353C"/>
<path d="M290.37 163.039C290.37 161.588 291.562 160.411 293.033 160.411H321.67C323.141 160.411 324.334 161.588 324.334 163.039V169.61C324.334 171.062 323.141 172.238 321.67 172.238H293.033C291.562 172.238 290.37 171.062 290.37 169.61V163.039Z" fill="#E7C36F"/>
<path d="M290.37 104.56C290.37 103.109 291.562 101.932 293.033 101.932H321.67C323.141 101.932 324.334 103.109 324.334 104.56V111.131C324.334 112.582 323.141 113.759 321.67 113.759H293.033C291.562 113.759 290.37 112.582 290.37 111.131V104.56Z" fill="#E7C36F"/>
<path d="M6 181.437C6 179.986 7.19266 178.809 8.66388 178.809H322.336C323.807 178.809 325 179.986 325 181.437V188.008C325 189.459 323.807 190.636 322.336 190.636H8.66388C7.19266 190.636 6 189.459 6 188.008V181.437Z" fill="#E7C36F"/>
<path d="M35.3027 39.5105H295.031V151.869H35.3027V39.5105Z" fill="white"/>
<path d="M110.017 211.662C110.017 233.867 91.7727 251.867 69.2671 251.867C46.7616 251.867 28.5173 233.867 28.5173 211.662C28.5173 189.458 46.7616 171.457 69.2671 171.457C91.7727 171.457 110.017 189.458 110.017 211.662Z" fill="#615435"/>
<path fill-rule="evenodd" clip-rule="evenodd" d="M115.219 211.662C115.219 236.702 94.6458 257 69.2672 257C43.8886 257 23.3152 236.702 23.3152 211.662C23.3152 186.623 43.8886 166.325 69.2672 166.325C94.6458 166.325 115.219 186.623 115.219 211.662ZM69.2671 251.867C91.7727 251.867 110.017 233.867 110.017 211.662C110.017 189.458 91.7727 171.457 69.2671 171.457C46.7616 171.457 28.5173 189.458 28.5173 211.662C28.5173 233.867 46.7616 251.867 69.2671 251.867Z" fill="#CDAC60"/>
<path fill-rule="evenodd" clip-rule="evenodd" d="M64.9319 243.027V227.347C62.1497 226.6 59.6604 225.152 57.6711 223.207L43.9065 231.047C48.9385 237.446 56.4034 241.89 64.9319 243.027ZM39.5653 223.643L53.3325 215.801C52.9809 214.479 52.7938 213.092 52.7938 211.662C52.7938 210.232 52.981 208.845 53.3325 207.524L39.5652 199.682C38.0324 203.377 37.1874 207.422 37.1874 211.662C37.1874 215.902 38.0324 219.947 39.5653 223.643ZM43.9064 192.277L57.6713 200.118C59.6605 198.173 62.1498 196.725 64.9319 195.978V180.298C56.4033 181.435 48.9384 185.878 43.9064 192.277ZM94.6279 231.047C89.5958 237.446 82.1308 241.89 73.6021 243.027V227.347C76.3845 226.6 78.8739 225.152 80.8632 223.207L94.6279 231.047ZM98.969 223.643L85.2018 215.8C85.5533 214.479 85.7405 213.092 85.7405 211.662C85.7405 210.232 85.5533 208.846 85.2018 207.524L98.9691 199.682C100.502 203.377 101.347 207.422 101.347 211.662C101.347 215.902 100.502 219.947 98.969 223.643ZM94.628 192.277L80.863 200.118C78.8738 198.173 76.3844 196.725 73.6021 195.978V180.298C82.1308 181.435 89.596 185.878 94.628 192.277ZM110.017 211.662C110.017 233.867 91.7727 251.867 69.2671 251.867C46.7616 251.867 28.5173 233.867 28.5173 211.662C28.5173 189.458 46.7616 171.457 69.2671 171.457C91.7727 171.457 110.017 189.458 110.017 211.662ZM77.0704 211.662C77.0704 215.914 73.5768 219.361 69.2672 219.361C64.9576 219.361 61.464 215.914 61.464 211.662C61.464 207.41 64.9576 203.964 69.2672 203.964C73.5768 203.964 77.0704 207.41 77.0704 211.662Z" fill="#E7C36F"/>
<path d="M302.618 211.662C302.618 233.867 284.374 251.867 261.868 251.867C239.363 251.867 221.118 233.867 221.118 211.662C221.118 189.458 239.363 171.457 261.868 171.457C284.374 171.457 302.618 189.458 302.618 211.662Z" fill="#615435"/>
<path fill-rule="evenodd" clip-rule="evenodd" d="M307.82 211.662C307.82 236.702 287.247 257 261.868 257C236.49 257 215.916 236.702 215.916 211.662C215.916 186.623 236.49 166.325 261.868 166.325C287.247 166.325 307.82 186.623 307.82 211.662ZM261.868 251.867C284.374 251.867 302.618 233.867 302.618 211.662C302.618 189.458 284.374 171.457 261.868 171.457C239.363 171.457 221.118 189.458 221.118 211.662C221.118 233.867 239.363 251.867 261.868 251.867Z" fill="#CDAC60"/>
<path fill-rule="evenodd" clip-rule="evenodd" d="M257.533 243.027V227.347C254.751 226.6 252.262 225.152 250.272 223.207L236.508 231.048C241.54 237.447 249.005 241.89 257.533 243.027ZM232.166 223.643L245.934 215.801C245.582 214.479 245.395 213.092 245.395 211.662C245.395 210.232 245.582 208.845 245.934 207.524L232.166 199.682C230.634 203.377 229.789 207.422 229.789 211.662C229.789 215.902 230.634 219.947 232.166 223.643ZM236.508 192.277L250.273 200.118C252.262 198.173 254.751 196.725 257.533 195.978V180.298C249.005 181.435 241.54 185.878 236.508 192.277ZM287.229 231.047C282.197 237.446 274.732 241.89 266.204 243.027V227.347C268.986 226.6 271.475 225.152 273.465 223.207L287.229 231.047ZM291.57 223.643L277.803 215.8C278.155 214.479 278.342 213.092 278.342 211.662C278.342 210.232 278.155 208.846 277.803 207.524L291.57 199.682C293.103 203.377 293.948 207.422 293.948 211.662C293.948 215.902 293.103 219.947 291.57 223.643ZM287.229 192.277L273.464 200.118C271.475 198.173 268.986 196.725 266.204 195.978V180.298C274.732 181.435 282.197 185.878 287.229 192.277ZM302.618 211.662C302.618 233.867 284.374 251.867 261.868 251.867C239.363 251.867 221.118 233.867 221.118 211.662C221.118 189.458 239.363 171.457 261.868 171.457C284.374 171.457 302.618 189.458 302.618 211.662ZM269.672 211.662C269.672 215.914 266.178 219.361 261.869 219.361C257.559 219.361 254.065 215.914 254.065 211.662C254.065 207.41 257.559 203.964 261.869 203.964C266.178 203.964 269.672 207.41 269.672 211.662Z" fill="#E7C36F"/>
<path d="M6 13.2277C6 9.23597 9.27982 6 13.3257 6H317.674C321.72 6 325 9.23597 325 13.2277C325 17.2195 321.72 20.4555 317.674 20.4555H13.3257C9.27982 20.4555 6 17.2195 6 13.2277Z" fill="#222222"/>
<path d="M13.3257 23.4555H317.674V17.4555H13.3257V23.4555ZM107.017 211.662C107.017 232.172 90.154 248.867 69.2671 248.867V254.867C93.3913 254.867 113.017 235.562 113.017 211.662H107.017ZM69.2671 248.867C48.3803 248.867 31.5173 232.172 31.5173 211.662H25.5173C25.5173 235.562 45.1429 254.867 69.2671 254.867V248.867ZM31.5173 211.662C31.5173 191.152 48.3803 174.457 69.2671 174.457V168.457C45.1429 168.457 25.5173 187.763 25.5173 211.662H31.5173ZM69.2671 174.457C90.154 174.457 107.017 191.152 107.017 211.662H113.017C113.017 187.763 93.3913 168.457 69.2671 168.457V174.457ZM299.618 211.662C299.618 232.172 282.755 248.867 261.868 248.867V254.867C285.992 254.867 305.618 235.562 305.618 211.662H299.618ZM261.868 248.867C240.981 248.867 224.118 232.172 224.118 211.662H218.118C218.118 235.562 237.744 254.867 261.868 254.867V248.867ZM224.118 211.662C224.118 191.152 240.981 174.457 261.868 174.457V168.457C237.744 168.457 218.118 187.763 218.118 211.662H224.118ZM261.868 174.457C282.755 174.457 299.618 191.152 299.618 211.662H305.618C305.618 187.763 285.992 168.457 261.868 168.457V174.457ZM13.3257 20.4555H19.3257V14.4555H13.3257V20.4555ZM317.674 20.4555V14.4555H311.674V20.4555H317.674ZM317.674 178.809V184.809H323.674V178.809H317.674ZM13.3257 178.809H7.32568V184.809H13.3257V178.809ZM11.3278 190.636V184.636H5.32777V190.636H11.3278ZM319.672 190.636H325.672V184.636H319.672V190.636ZM35.3027 39.5105V33.5105H29.3027V39.5105H35.3027ZM295.031 39.5105H301.031V33.5105H295.031V39.5105ZM295.031 151.869V157.869H301.031V151.869H295.031ZM35.3027 151.869H29.3027V157.869H35.3027V151.869ZM64.9319 243.027L64.1392 248.974L70.9319 249.879V243.027H64.9319ZM64.9319 227.347H70.9319V222.745L66.4874 221.552L64.9319 227.347ZM57.6711 223.207L61.866 218.917L58.6319 215.754L54.7014 217.993L57.6711 223.207ZM43.9065 231.047L40.9367 225.834L34.8847 229.281L39.1901 234.756L43.9065 231.047ZM39.5653 223.643L34.0231 225.942L36.6279 232.221L42.535 228.856L39.5653 223.643ZM53.3325 215.801L56.3022 221.014L60.3194 218.726L59.1307 214.258L53.3325 215.801ZM53.3325 207.524L59.1308 209.067L60.3195 204.599L56.3023 202.311L53.3325 207.524ZM39.5652 199.682L42.535 194.468L36.6278 191.103L34.0231 197.383L39.5652 199.682ZM43.9064 192.277L39.1899 188.568L34.8846 194.043L40.9366 197.491L43.9064 192.277ZM57.6713 200.118L54.7016 205.332L58.632 207.57L61.8662 204.408L57.6713 200.118ZM64.9319 195.978L66.4874 201.773L70.9319 200.58V195.978H64.9319ZM64.9319 180.298H70.9319V173.445L64.1392 174.351L64.9319 180.298ZM73.6021 243.027H67.6021V249.879L74.3948 248.974L73.6021 243.027ZM94.6279 231.047L99.3443 234.756L103.65 229.281L97.5976 225.834L94.6279 231.047ZM73.6021 227.347L72.0467 221.552L67.6021 222.745V227.347H73.6021ZM80.8632 223.207L83.833 217.993L79.9024 215.754L76.6683 218.917L80.8632 223.207ZM85.2018 215.8L79.4035 214.258L78.2149 218.726L82.2321 221.014L85.2018 215.8ZM98.969 223.643L95.9993 228.856L101.906 232.221L104.511 225.941L98.969 223.643ZM85.2018 207.524L82.232 202.311L78.2148 204.599L79.4035 209.067L85.2018 207.524ZM98.9691 199.682L104.511 197.383L101.907 191.104L95.9994 194.469L98.9691 199.682ZM80.863 200.118L76.6682 204.408L79.9023 207.571L83.8328 205.332L80.863 200.118ZM94.628 192.277L97.5978 197.491L103.65 194.043L99.3444 188.568L94.628 192.277ZM73.6021 195.978H67.6021V200.58L72.0467 201.773L73.6021 195.978ZM73.6021 180.298L74.3948 174.35L67.6021 173.445V180.298H73.6021ZM257.533 243.027L256.741 248.974L263.533 249.879V243.027H257.533ZM257.533 227.347H263.533V222.745L259.089 221.552L257.533 227.347ZM250.272 223.207L254.467 218.917L251.233 215.754L247.303 217.993L250.272 223.207ZM236.508 231.048L233.538 225.834L227.486 229.281L231.791 234.756L236.508 231.048ZM232.166 223.643L226.624 225.942L229.229 232.221L235.136 228.856L232.166 223.643ZM245.934 215.801L248.904 221.014L252.921 218.726L251.732 214.258L245.934 215.801ZM245.934 207.524L251.732 209.067L252.921 204.599L248.904 202.311L245.934 207.524ZM232.166 199.682L235.136 194.468L229.229 191.103L226.624 197.383L232.166 199.682ZM236.508 192.277L231.791 188.568L227.486 194.043L233.538 197.491L236.508 192.277ZM250.273 200.118L247.303 205.332L251.233 207.57L254.467 204.408L250.273 200.118ZM257.533 195.978L259.089 201.773L263.533 200.58V195.978H257.533ZM257.533 180.298H263.533V173.445L256.741 174.35L257.533 180.298ZM266.204 243.027H260.204V249.879L266.996 248.974L266.204 243.027ZM287.229 231.047L291.945 234.756L296.251 229.281L290.199 225.834L287.229 231.047ZM266.204 227.347L264.648 221.552L260.204 222.745V227.347H266.204ZM273.465 223.207L276.434 217.993L272.504 215.754L269.27 218.917L273.465 223.207ZM277.803 215.8L272.005 214.258L270.816 218.726L274.833 221.014L277.803 215.8ZM291.57 223.643L288.6 228.856L294.508 232.221L297.112 225.941L291.57 223.643ZM277.803 207.524L274.833 202.311L270.816 204.599L272.005 209.067L277.803 207.524ZM291.57 199.682L297.112 197.383L294.508 191.104L288.601 194.469L291.57 199.682ZM273.464 200.118L269.269 204.408L272.504 207.571L276.434 205.332L273.464 200.118ZM287.229 192.277L290.199 197.491L296.251 194.043L291.946 188.568L287.229 192.277ZM266.204 195.978H260.204V200.58L264.648 201.773L266.204 195.978ZM266.204 180.298L266.996 174.351L260.204 173.445V180.298H266.204ZM311.674 20.4555V178.809H323.674V20.4555H311.674ZM317.674 172.809H13.3257V184.809H317.674V172.809ZM19.3257 178.809V20.4555H7.32568V178.809H19.3257ZM11.3278 196.636H319.672V184.636H11.3278V196.636ZM313.672 190.636V224.147H325.672V190.636H313.672ZM317.008 220.775H15.3278V232.775H317.008V220.775ZM17.3278 222.775V190.636H5.32777V222.775H17.3278ZM313.672 224.147C313.672 222.209 315.242 220.775 317.008 220.775V232.775C321.717 232.775 325.672 228.988 325.672 224.147H313.672ZM293.033 166.411H321.67V154.411H293.033V166.411ZM318.334 163.039V169.61H330.334V163.039H318.334ZM321.67 166.238H293.033V178.238H321.67V166.238ZM296.37 169.61V163.039H284.37V169.61H296.37ZM293.033 166.238C294.799 166.238 296.37 167.672 296.37 169.61H284.37C284.37 174.451 288.325 178.238 293.033 178.238V166.238ZM318.334 169.61C318.334 167.672 319.904 166.238 321.67 166.238V178.238C326.379 178.238 330.334 174.451 330.334 169.61H318.334ZM321.67 166.411C319.904 166.411 318.334 164.977 318.334 163.039H330.334C330.334 158.198 326.379 154.411 321.67 154.411V166.411ZM293.033 154.411C288.325 154.411 284.37 158.198 284.37 163.039H296.37C296.37 164.977 294.8 166.411 293.033 166.411V154.411ZM293.033 107.932H321.67V95.9319H293.033V107.932ZM318.334 104.56V111.131H330.334V104.56H318.334ZM321.67 107.759H293.033V119.759H321.67V107.759ZM296.37 111.131V104.56H284.37V111.131H296.37ZM293.033 107.759C294.799 107.759 296.37 109.193 296.37 111.131H284.37C284.37 115.972 288.325 119.759 293.033 119.759V107.759ZM318.334 111.131C318.334 109.193 319.904 107.759 321.67 107.759V119.759C326.379 119.759 330.334 115.972 330.334 111.131H318.334ZM321.67 107.932C319.904 107.932 318.334 106.498 318.334 104.56H330.334C330.334 99.7191 326.379 95.9319 321.67 95.9319V107.932ZM293.033 95.9319C288.325 95.9319 284.37 99.7191 284.37 104.56H296.37C296.37 106.498 294.799 107.932 293.033 107.932V95.9319ZM8.66388 184.809H322.336V172.809H8.66388V184.809ZM319 181.437V188.008H331V181.437H319ZM322.336 184.636H8.66388V196.636H322.336V184.636ZM12 188.008V181.437H0V188.008H12ZM8.66388 184.636C10.43 184.636 12 186.07 12 188.008H0C0 192.849 3.95535 196.636 8.66388 196.636V184.636ZM319 188.008C319 186.07 320.57 184.636 322.336 184.636V196.636C327.045 196.636 331 192.849 331 188.008H319ZM322.336 184.809C320.57 184.809 319 183.375 319 181.437H331C331 176.596 327.045 172.809 322.336 172.809V184.809ZM8.66388 172.809C3.95535 172.809 0 176.596 0 181.437H12C12 183.375 10.43 184.809 8.66388 184.809V172.809ZM35.3027 45.5105H295.031V33.5105H35.3027V45.5105ZM289.031 39.5105V151.869H301.031V39.5105H289.031ZM295.031 145.869H35.3027V157.869H295.031V145.869ZM41.3027 151.869V39.5105H29.3027V151.869H41.3027ZM69.2672 263C97.8831 263 121.219 240.091 121.219 211.662H109.219C109.219 233.312 91.4085 251 69.2672 251V263ZM17.3152 211.662C17.3152 240.091 40.6513 263 69.2672 263V251C47.126 251 29.3152 233.312 29.3152 211.662H17.3152ZM69.2672 160.325C40.6513 160.325 17.3152 183.233 17.3152 211.662H29.3152C29.3152 190.013 47.126 172.325 69.2672 172.325V160.325ZM121.219 211.662C121.219 183.233 97.8831 160.325 69.2672 160.325V172.325C91.4085 172.325 109.219 190.013 109.219 211.662H121.219ZM70.9319 243.027V227.347H58.9319V243.027H70.9319ZM66.4874 221.552C64.7173 221.077 63.1324 220.155 61.866 218.917L53.4763 227.497C56.1884 230.149 59.5821 232.123 63.3764 233.142L66.4874 221.552ZM54.7014 217.993L40.9367 225.834L46.8762 236.261L60.6409 228.42L54.7014 217.993ZM39.1901 234.756C45.1646 242.354 54.0234 247.626 64.1392 248.974L65.7246 237.079C58.7835 236.154 52.7123 232.539 48.6229 227.339L39.1901 234.756ZM42.535 228.856L56.3022 221.014L50.3627 210.587L36.5955 218.429L42.535 228.856ZM59.1307 214.258C58.9119 213.435 58.7938 212.567 58.7938 211.662H46.7938C46.7938 213.618 47.05 215.523 47.5342 217.343L59.1307 214.258ZM58.7938 211.662C58.7938 210.758 58.9119 209.89 59.1308 209.067L47.5342 205.981C47.0501 207.801 46.7938 209.707 46.7938 211.662H58.7938ZM56.3023 202.311L42.535 194.468L36.5954 204.895L50.3627 212.738L56.3023 202.311ZM34.0231 197.383C32.1938 201.793 31.1874 206.618 31.1874 211.662H43.1874C43.1874 208.226 43.871 204.961 45.1074 201.981L34.0231 197.383ZM31.1874 211.662C31.1874 216.706 32.1938 221.531 34.0231 225.942L45.1074 221.344C43.871 218.363 43.1874 215.098 43.1874 211.662H31.1874ZM40.9366 197.491L54.7016 205.332L60.6411 194.905L46.8761 187.064L40.9366 197.491ZM61.8662 204.408C63.1325 203.17 64.7173 202.248 66.4874 201.773L63.3764 190.183C59.5822 191.202 56.1886 193.176 53.4765 195.828L61.8662 204.408ZM70.9319 195.978V180.298H58.9319V195.978H70.9319ZM64.1392 174.351C54.0233 175.699 45.1645 180.971 39.1899 188.568L48.6228 195.986C52.7123 190.785 58.7834 187.17 65.7246 186.245L64.1392 174.351ZM74.3948 248.974C84.5108 247.626 93.3697 242.354 99.3443 234.756L89.9115 227.339C85.8219 232.539 79.7507 236.154 72.8095 237.079L74.3948 248.974ZM67.6021 227.347V243.027H79.6021V227.347H67.6021ZM76.6683 218.917C75.4019 220.155 73.8169 221.077 72.0467 221.552L75.1576 233.142C78.952 232.123 82.3459 230.149 85.0581 227.496L76.6683 218.917ZM97.5976 225.834L83.833 217.993L77.8934 228.42L91.6581 236.261L97.5976 225.834ZM82.2321 221.014L95.9993 228.856L101.939 218.429L88.1716 210.587L82.2321 221.014ZM79.7405 211.662C79.7405 212.567 79.6224 213.435 79.4035 214.258L91.0001 217.343C91.4842 215.523 91.7405 213.618 91.7405 211.662H79.7405ZM79.4035 209.067C79.6224 209.89 79.7405 210.758 79.7405 211.662H91.7405C91.7405 209.707 91.4842 207.801 91.0001 205.982L79.4035 209.067ZM95.9994 194.469L82.232 202.311L88.1715 212.738L101.939 204.896L95.9994 194.469ZM107.347 211.662C107.347 206.618 106.34 201.793 104.511 197.383L93.427 201.981C94.6633 204.962 95.3468 208.226 95.3468 211.662H107.347ZM104.511 225.941C106.34 221.531 107.347 216.706 107.347 211.662H95.3468C95.3468 215.098 94.6633 218.363 93.4269 221.344L104.511 225.941ZM83.8328 205.332L97.5978 197.491L91.6582 187.064L77.8933 194.905L83.8328 205.332ZM72.0467 201.773C73.8168 202.248 75.4018 203.17 76.6682 204.408L85.0579 195.828C82.3458 193.176 78.9519 191.202 75.1575 190.183L72.0467 201.773ZM67.6021 180.298V195.978H79.6021V180.298H67.6021ZM99.3444 188.568C93.3699 180.971 84.5109 175.699 74.3948 174.35L72.8095 186.245C79.7508 187.17 85.822 190.785 89.9116 195.986L99.3444 188.568ZM69.2672 225.361C76.8141 225.361 83.0704 219.304 83.0704 211.662H71.0704C71.0704 212.525 70.3394 213.361 69.2672 213.361V225.361ZM55.464 211.662C55.464 219.304 61.7203 225.361 69.2672 225.361V213.361C68.195 213.361 67.464 212.525 67.464 211.662H55.464ZM69.2672 197.964C61.7203 197.964 55.464 204.021 55.464 211.662H67.464C67.464 210.8 68.195 209.964 69.2672 209.964V197.964ZM83.0704 211.662C83.0704 204.021 76.8141 197.964 69.2672 197.964V209.964C70.3394 209.964 71.0704 210.8 71.0704 211.662H83.0704ZM261.868 263C290.484 263 313.82 240.091 313.82 211.662H301.82C301.82 233.312 284.01 251 261.868 251V263ZM209.916 211.662C209.916 240.091 233.252 263 261.868 263V251C239.727 251 221.916 233.312 221.916 211.662H209.916ZM261.868 160.325C233.252 160.325 209.916 183.233 209.916 211.662H221.916C221.916 190.013 239.727 172.325 261.868 172.325V160.325ZM313.82 211.662C313.82 183.233 290.484 160.325 261.868 160.325V172.325C284.01 172.325 301.82 190.013 301.82 211.662H313.82ZM263.533 243.027V227.347H251.533V243.027H263.533ZM259.089 221.552C257.319 221.077 255.734 220.155 254.467 218.917L246.078 227.497C248.79 230.149 252.184 232.123 255.978 233.142L259.089 221.552ZM247.303 217.993L233.538 225.834L239.477 236.261L253.242 228.42L247.303 217.993ZM231.791 234.756C237.766 242.354 246.625 247.626 256.741 248.974L258.326 237.079C251.385 236.154 245.314 232.539 241.224 227.339L231.791 234.756ZM235.136 228.856L248.904 221.014L242.964 210.587L229.197 218.429L235.136 228.856ZM251.732 214.258C251.513 213.435 251.395 212.567 251.395 211.662H239.395C239.395 213.618 239.651 215.524 240.135 217.343L251.732 214.258ZM251.395 211.662C251.395 210.758 251.513 209.89 251.732 209.067L240.136 205.981C239.651 207.801 239.395 209.707 239.395 211.662H251.395ZM248.904 202.311L235.136 194.468L229.197 204.895L242.964 212.738L248.904 202.311ZM226.624 197.383C224.795 201.793 223.789 206.618 223.789 211.662H235.789C235.789 208.226 236.472 204.961 237.709 201.981L226.624 197.383ZM223.789 211.662C223.789 216.706 224.795 221.532 226.624 225.942L237.709 221.344C236.472 218.363 235.789 215.098 235.789 211.662H223.789ZM233.538 197.491L247.303 205.332L253.242 194.905L239.477 187.064L233.538 197.491ZM254.467 204.408C255.734 203.17 257.319 202.248 259.089 201.773L255.978 190.183C252.184 191.202 248.79 193.176 246.078 195.828L254.467 204.408ZM263.533 195.978V180.298H251.533V195.978H263.533ZM256.741 174.35C246.625 175.699 237.766 180.971 231.791 188.568L241.224 195.986C245.314 190.785 251.385 187.17 258.326 186.245L256.741 174.35ZM266.996 248.974C277.112 247.626 285.971 242.354 291.945 234.756L282.513 227.338C278.423 232.539 272.352 236.154 265.411 237.079L266.996 248.974ZM260.204 227.347V243.027H272.204V227.347H260.204ZM269.27 218.917C268.003 220.155 266.418 221.077 264.648 221.552L267.759 233.142C271.553 232.123 274.947 230.149 277.659 227.496L269.27 218.917ZM290.199 225.834L276.434 217.993L270.495 228.42L284.259 236.261L290.199 225.834ZM274.833 221.014L288.6 228.856L294.54 218.429L280.773 210.587L274.833 221.014ZM272.342 211.662C272.342 212.567 272.224 213.435 272.005 214.258L283.601 217.343C284.086 215.523 284.342 213.618 284.342 211.662H272.342ZM272.005 209.067C272.224 209.89 272.342 210.758 272.342 211.662H284.342C284.342 209.707 284.086 207.801 283.601 205.982L272.005 209.067ZM288.601 194.469L274.833 202.311L280.773 212.738L294.54 204.896L288.601 194.469ZM299.948 211.662C299.948 206.618 298.942 201.793 297.112 197.383L286.028 201.981C287.264 204.962 287.948 208.226 287.948 211.662H299.948ZM297.112 225.941C298.942 221.531 299.948 216.706 299.948 211.662H287.948C287.948 215.098 287.264 218.363 286.028 221.344L297.112 225.941ZM276.434 205.332L290.199 197.491L284.259 187.064L270.495 194.905L276.434 205.332ZM264.648 201.773C266.418 202.248 268.003 203.17 269.269 204.408L277.659 195.828C274.947 193.176 271.553 191.202 267.759 190.183L264.648 201.773ZM260.204 180.298V195.978H272.204V180.298H260.204ZM291.946 188.568C285.971 180.971 277.112 175.699 266.996 174.351L265.411 186.245C272.352 187.171 278.423 190.786 282.513 195.986L291.946 188.568ZM261.869 225.361C269.415 225.361 275.672 219.304 275.672 211.662H263.672C263.672 212.525 262.941 213.361 261.869 213.361V225.361ZM248.065 211.662C248.065 219.304 254.322 225.361 261.869 225.361V213.361C260.796 213.361 260.065 212.525 260.065 211.662H248.065ZM261.869 197.964C254.322 197.964 248.065 204.021 248.065 211.662H260.065C260.065 210.8 260.796 209.964 261.869 209.964V197.964ZM275.672 211.662C275.672 204.021 269.415 197.964 261.869 197.964V209.964C262.941 209.964 263.672 210.8 263.672 211.662H275.672ZM13.3257 12H317.674V0H13.3257V12ZM13.3257 14.4555C12.5171 14.4555 12 13.8299 12 13.2277H0C0 20.6091 6.04249 26.4555 13.3257 26.4555V14.4555ZM319 13.2277C319 13.8299 318.483 14.4555 317.674 14.4555V26.4555C324.957 26.4555 331 20.6091 331 13.2277H319ZM317.674 12C318.483 12 319 12.6256 319 13.2277H331C331 5.84639 324.957 0 317.674 0V12ZM13.3257 0C6.04249 0 0 5.84639 0 13.2277H12C12 12.6256 12.5171 12 13.3257 12V0ZM15.3278 220.775C16.4323 220.775 17.3278 221.67 17.3278 222.775H5.32777C5.32777 228.298 9.80491 232.775 15.3278 232.775V220.775Z" fill="#605858" mask="url(#path-1-outside-1_531_1094)"/>
<path d="M13.3257 20.4555H317.674V178.809H13.3257V20.4555Z" fill="#7C7777"/>
<path d="M11.3278 190.636H319.672V224.147C319.672 225.598 318.48 226.775 317.008 226.775H15.3278C13.1186 226.775 11.3278 224.984 11.3278 222.775V190.636Z" fill="#A377FF"/>
<path d="M290.37 163.039C290.37 161.588 291.562 160.411 293.033 160.411H321.67C323.141 160.411 324.334 161.588 324.334 163.039V169.61C324.334 171.062 323.141 172.238 321.67 172.238H293.033C291.562 172.238 290.37 171.062 290.37 169.61V163.039Z" fill="#E7C36F"/>
<path d="M290.37 104.56C290.37 103.109 291.562 101.932 293.033 101.932H321.67C323.141 101.932 324.334 103.109 324.334 104.56V111.131C324.334 112.582 323.141 113.759 321.67 113.759H293.033C291.562 113.759 290.37 112.582 290.37 111.131V104.56Z" fill="#E7C36F"/>
<path d="M6 181.437C6 179.986 7.19266 178.809 8.66388 178.809H322.336C323.807 178.809 325 179.986 325 181.437V188.008C325 189.459 323.807 190.636 322.336 190.636H8.66388C7.19266 190.636 6 189.459 6 188.008V181.437Z" fill="#E7C36F"/>
<path d="M110.017 211.662C110.017 233.867 91.7727 251.867 69.2671 251.867C46.7616 251.867 28.5173 233.867 28.5173 211.662C28.5173 189.458 46.7616 171.457 69.2671 171.457C91.7727 171.457 110.017 189.458 110.017 211.662Z" fill="#888171"/>
<path fill-rule="evenodd" clip-rule="evenodd" d="M115.219 211.662C115.219 236.702 94.6458 257 69.2672 257C43.8886 257 23.3152 236.702 23.3152 211.662C23.3152 186.623 43.8886 166.325 69.2672 166.325C94.6458 166.325 115.219 186.623 115.219 211.662ZM69.2671 251.867C91.7727 251.867 110.017 233.867 110.017 211.662C110.017 189.458 91.7727 171.457 69.2671 171.457C46.7616 171.457 28.5173 189.458 28.5173 211.662C28.5173 233.867 46.7616 251.867 69.2671 251.867Z" fill="#CDAC60"/>
<path fill-rule="evenodd" clip-rule="evenodd" d="M64.9319 243.027V227.347C62.1497 226.6 59.6604 225.152 57.6711 223.207L43.9065 231.047C48.9385 237.446 56.4034 241.89 64.9319 243.027ZM39.5653 223.643L53.3325 215.801C52.9809 214.479 52.7938 213.092 52.7938 211.662C52.7938 210.232 52.981 208.845 53.3325 207.524L39.5652 199.682C38.0324 203.377 37.1874 207.422 37.1874 211.662C37.1874 215.902 38.0324 219.947 39.5653 223.643ZM43.9064 192.277L57.6713 200.118C59.6605 198.173 62.1498 196.725 64.9319 195.978V180.298C56.4033 181.435 48.9384 185.878 43.9064 192.277ZM94.6279 231.047C89.5958 237.446 82.1308 241.89 73.6021 243.027V227.347C76.3845 226.6 78.8739 225.152 80.8632 223.207L94.6279 231.047ZM98.969 223.643L85.2018 215.8C85.5533 214.479 85.7405 213.092 85.7405 211.662C85.7405 210.232 85.5533 208.846 85.2018 207.524L98.9691 199.682C100.502 203.377 101.347 207.422 101.347 211.662C101.347 215.902 100.502 219.947 98.969 223.643ZM94.628 192.277L80.863 200.118C78.8738 198.173 76.3844 196.725 73.6021 195.978V180.298C82.1308 181.435 89.596 185.878 94.628 192.277ZM110.017 211.662C110.017 233.867 91.7727 251.867 69.2671 251.867C46.7616 251.867 28.5173 233.867 28.5173 211.662C28.5173 189.458 46.7616 171.457 69.2671 171.457C91.7727 171.457 110.017 189.458 110.017 211.662ZM77.0704 211.662C77.0704 215.914 73.5768 219.361 69.2672 219.361C64.9576 219.361 61.464 215.914 61.464 211.662C61.464 207.41 64.9576 203.964 69.2672 203.964C73.5768 203.964 77.0704 207.41 77.0704 211.662Z" fill="#E7C36F"/>
<path d="M302.618 211.662C302.618 233.867 284.374 251.867 261.868 251.867C239.363 251.867 221.118 233.867 221.118 211.662C221.118 189.458 239.363 171.457 261.868 171.457C284.374 171.457 302.618 189.458 302.618 211.662Z" fill="#888171"/>
<path fill-rule="evenodd" clip-rule="evenodd" d="M307.82 211.662C307.82 236.702 287.247 257 261.868 257C236.49 257 215.916 236.702 215.916 211.662C215.916 186.623 236.49 166.325 261.868 166.325C287.247 166.325 307.82 186.623 307.82 211.662ZM261.868 251.867C284.374 251.867 302.618 233.867 302.618 211.662C302.618 189.458 284.374 171.457 261.868 171.457C239.363 171.457 221.118 189.458 221.118 211.662C221.118 233.867 239.363 251.867 261.868 251.867Z" fill="#CDAC60"/>
<path fill-rule="evenodd" clip-rule="evenodd" d="M257.533 243.027V227.347C254.751 226.6 252.262 225.152 250.272 223.207L236.508 231.048C241.54 237.447 249.005 241.89 257.533 243.027ZM232.166 223.643L245.934 215.801C245.582 214.479 245.395 213.092 245.395 211.662C245.395 210.232 245.582 208.845 245.934 207.524L232.166 199.682C230.634 203.377 229.789 207.422 229.789 211.662C229.789 215.902 230.634 219.947 232.166 223.643ZM236.508 192.277L250.273 200.118C252.262 198.173 254.751 196.725 257.533 195.978V180.298C249.005 181.435 241.54 185.878 236.508 192.277ZM287.229 231.047C282.197 237.446 274.732 241.89 266.204 243.027V227.347C268.986 226.6 271.475 225.152 273.465 223.207L287.229 231.047ZM291.57 223.643L277.803 215.8C278.155 214.479 278.342 213.092 278.342 211.662C278.342 210.232 278.155 208.846 277.803 207.524L291.57 199.682C293.103 203.377 293.948 207.422 293.948 211.662C293.948 215.902 293.103 219.947 291.57 223.643ZM287.229 192.277L273.464 200.118C271.475 198.173 268.986 196.725 266.204 195.978V180.298C274.732 181.435 282.197 185.878 287.229 192.277ZM302.618 211.662C302.618 233.867 284.374 251.867 261.868 251.867C239.363 251.867 221.118 233.867 221.118 211.662C221.118 189.458 239.363 171.457 261.868 171.457C284.374 171.457 302.618 189.458 302.618 211.662ZM269.672 211.662C269.672 215.914 266.178 219.361 261.869 219.361C257.559 219.361 254.065 215.914 254.065 211.662C254.065 207.41 257.559 203.964 261.869 203.964C266.178 203.964 269.672 207.41 269.672 211.662Z" fill="#E7C36F"/>
<path d="M6 13.2277C6 9.23597 9.27982 6 13.3257 6H317.674C321.72 6 325 9.23597 325 13.2277C325 17.2195 321.72 20.4555 317.674 20.4555H13.3257C9.27982 20.4555 6 17.2195 6 13.2277Z" fill="#696262"/>
</svg>
