<svg width="377" height="219" viewBox="0 0 377 219" fill="none" xmlns="http://www.w3.org/2000/svg">
<g filter="url(#filter0_d_3393_4824)">
<ellipse cx="157.5" cy="71.5" rx="100.5" ry="62.5" fill="white"/>
<ellipse cx="248" cy="95" rx="119" ry="69" fill="white"/>
<ellipse cx="129" cy="120" rx="119" ry="76" fill="white"/>
<ellipse cx="207.5" cy="145.5" rx="130.5" ry="62.5" fill="white"/>
</g>
<path d="M164.06 100.752L163.484 101.328C159.964 104.656 155.676 107.792 151.58 110.16C149.98 111.184 148.252 110.48 147.42 109.2C146.588 107.92 146.588 106.192 148.444 104.976C156.38 100.304 162.204 94.992 163.996 90.96C164.508 89.936 162.844 89.616 160.348 89.872C157.852 90.064 154.524 90.768 151.644 91.792C149.595 92.496 148.188 91.472 147.74 90C147.292 88.656 147.932 86.864 149.98 86.16C152.732 85.2 156.188 84.432 159.516 84.176C162.844 83.92 166.044 84.112 168.348 85.072C171.42 86.352 171.484 88.912 170.908 91.28C170.268 92.944 169.244 94.736 167.964 96.464C171.676 97.872 175.004 100.24 177.692 102.48C179.036 103.76 178.908 105.488 178.076 106.704C177.244 107.792 175.58 108.368 174.044 107.088C171.356 104.848 168.476 102.672 164.06 100.752ZM161.756 118.48C155.804 118.928 149.788 118.864 144.092 118.352C142.236 118.16 141.34 116.752 141.404 115.28C141.468 113.936 142.428 112.592 144.284 112.592C155.292 113.616 165.788 112.976 176.796 110.16C178.588 109.712 179.868 110.8 180.188 112.144C180.444 113.424 179.868 115.088 178.012 115.6C174.684 116.56 171.228 117.264 167.772 117.776C167.772 120.272 167.708 122.704 167.388 125.008C167.068 127.056 165.468 127.888 163.932 127.824C162.396 127.76 161.052 126.672 161.308 124.688C161.5 122.768 161.756 120.656 161.756 118.48ZM148.828 127.312C148.572 125.328 149.916 124.048 151.516 123.792C153.052 123.472 154.716 124.176 155.164 126.16C155.868 129.936 158.812 131.536 162.332 131.728C165.724 131.92 169.628 130.576 172.38 128.464C173.852 127.376 175.388 127.888 176.22 129.104C176.988 130.32 177.052 132.112 175.516 133.392C171.484 136.656 165.404 138.256 159.964 137.488C154.588 136.72 149.852 133.648 148.828 127.312ZM203.966 111.12C201.342 111.12 198.462 111.376 196.158 111.696C194.558 111.888 193.662 110.672 193.598 109.328C193.534 107.984 194.174 106.512 195.774 106.256C198.27 105.872 201.15 105.744 203.902 105.808C203.71 102.928 203.262 100.24 202.814 98.32C202.366 96.528 203.71 95.376 205.182 95.12C206.718 94.864 208.382 95.44 208.894 97.168C210.942 105.36 210.942 112.656 209.086 117.968C207.102 123.28 203.198 126.544 197.374 126.544C190.462 126.544 187.006 122.128 185.534 116.176C184.19 110.288 184.766 102.864 186.046 96.976C186.494 95.376 188.094 94.672 189.63 94.864C191.102 95.12 192.318 96.144 192.062 97.936C191.742 99.28 191.486 101.2 191.166 103.696C190.845 106.192 190.845 108.752 191.038 111.312C191.23 113.808 191.806 116.048 192.702 117.968C193.662 119.888 195.198 120.912 197.374 120.976C199.486 121.04 201.086 120.208 202.046 118.48C203.006 116.752 203.646 114.64 203.902 112.208C203.902 111.888 203.966 111.504 203.966 111.12ZM219.262 110.736C219.069 104.656 218.174 98.448 216.446 93.008C215.934 91.216 217.086 90.064 218.43 89.616C219.902 89.296 221.566 89.808 222.27 91.408C224.254 97.232 225.214 103.632 225.214 110.224C225.214 116.88 224.382 123.6 222.654 129.808C222.142 131.536 220.478 132.048 219.134 131.728C217.662 131.408 216.574 130.256 217.15 128.272C218.686 122.96 219.326 116.88 219.262 110.736ZM241.214 117.648C240.894 121.488 235.134 121.424 235.134 117.52C235.198 109.392 235.326 101.008 235.646 90.32C235.774 85.712 242.878 86.224 242.622 90.448C241.79 103.248 241.79 108.944 241.214 117.648ZM242.43 128.976C242.43 131.344 240.574 133.2 238.142 133.2C235.774 133.2 233.918 131.344 233.918 128.976C233.918 126.544 235.774 124.688 238.142 124.688C240.574 124.688 242.43 126.544 242.43 128.976Z" fill="black"/>
<defs>
<filter id="filter0_d_3393_4824" x="0" y="0" width="377" height="219" filterUnits="userSpaceOnUse" color-interpolation-filters="sRGB">
<feFlood flood-opacity="0" result="BackgroundImageFix"/>
<feColorMatrix in="SourceAlpha" type="matrix" values="0 0 0 0 0 0 0 0 0 0 0 0 0 0 0 0 0 0 127 0" result="hardAlpha"/>
<feOffset dy="1"/>
<feGaussianBlur stdDeviation="5"/>
<feColorMatrix type="matrix" values="0 0 0 0 0 0 0 0 0 0 0 0 0 0 0 0 0 0 0.15 0"/>
<feBlend mode="normal" in2="BackgroundImageFix" result="effect1_dropShadow_3393_4824"/>
<feBlend mode="normal" in="SourceGraphic" in2="effect1_dropShadow_3393_4824" result="shape"/>
</filter>
</defs>
</svg>
