<svg width="377" height="219" viewBox="0 0 377 219" fill="none" xmlns="http://www.w3.org/2000/svg">
<g filter="url(#filter0_d_3393_4835)">
<ellipse cx="157.5" cy="71.5" rx="100.5" ry="62.5" fill="white"/>
<ellipse cx="248" cy="95" rx="119" ry="69" fill="white"/>
<ellipse cx="129" cy="120" rx="119" ry="76" fill="white"/>
<ellipse cx="207.5" cy="145.5" rx="130.5" ry="62.5" fill="white"/>
</g>
<path d="M141.889 130.192C140.417 130.128 139.009 129.168 139.073 127.184C139.393 121.296 140.609 115.024 142.593 108.944C144.449 102.8 147.137 96.976 150.273 91.856C151.297 90.32 153.217 90.128 154.561 90.896C155.841 91.6 156.673 93.072 155.649 94.864C153.153 99.472 151.041 103.504 149.313 108.048C151.809 108.752 154.753 110.16 157.633 111.76C160.641 113.488 163.329 115.408 165.121 116.944C166.721 118.48 166.593 120.4 165.633 121.488C164.673 122.704 163.009 123.216 161.793 122.192C157.121 118.224 152.065 115.344 147.585 113.552C146.497 117.52 145.665 122.064 145.153 127.504C144.961 129.296 143.425 130.192 141.889 130.192ZM168.705 128.144C171.969 116.624 171.585 104.72 168.449 93.2C167.937 91.344 169.217 90 170.753 89.68C172.225 89.36 174.017 90 174.593 91.856C176.257 97.808 177.089 104.08 177.089 110.672C177.089 117.264 176.257 123.536 174.593 129.488C174.017 131.472 172.289 132.048 170.817 131.728C169.345 131.408 168.193 130.128 168.705 128.144ZM209.885 113.488C209.053 114.704 207.325 115.152 205.789 113.808C203.677 112.08 201.373 110.544 198.301 109.2C194.973 113.552 190.557 117.648 186.909 120.528C185.437 121.744 183.709 121.168 182.749 120.08C181.725 118.992 181.597 117.136 183.581 115.6C187.357 112.784 190.749 109.392 193.245 106.064C195.805 102.8 197.405 99.536 197.597 96.912C197.853 94.352 195.933 93.264 193.373 93.008C190.813 92.752 187.613 93.328 185.373 94.032C183.581 94.544 182.365 93.456 182.109 92.112C181.789 90.768 182.365 89.168 184.349 88.464C187.933 87.376 192.925 86.864 196.957 87.824C201.053 88.848 204.189 91.28 204.189 95.888C204.189 98.576 203.165 101.456 201.565 104.336C204.509 105.616 207.325 107.216 209.309 108.944C210.845 110.416 210.845 112.272 209.885 113.488ZM229.341 103.632C226.333 103.632 224.029 103.696 221.597 103.888C221.405 107.28 220.957 110.544 220.189 113.36C219.613 115.344 217.885 115.92 216.413 115.664C214.877 115.344 213.725 114.192 214.237 112.208C215.325 108.752 215.773 104.976 215.645 100.944C215.581 96.912 215.005 93.136 213.981 89.616C213.469 87.76 214.685 86.544 216.221 86.224C217.757 85.968 219.549 86.608 220.125 88.464C220.957 91.536 221.469 94.992 221.597 98.512C224.157 98.384 226.781 98.448 229.341 98.448C231.133 98.512 232.093 99.856 232.093 101.136C232.093 102.416 231.133 103.696 229.341 103.632ZM221.981 127.568C222.045 130.128 221.597 132.944 220.829 135.248C220.253 137.04 218.461 137.552 217.117 137.232C215.645 136.912 214.557 135.568 215.261 133.712C216.541 130.128 216.797 126.736 214.749 125.264C213.661 124.432 212.061 124.304 210.461 124.56C208.925 124.816 207.197 125.392 205.853 125.904C204.253 126.48 203.101 125.52 202.653 124.24C202.333 122.96 202.717 121.424 204.445 120.656C206.493 119.888 209.117 119.12 211.741 119.056C214.301 118.992 216.925 119.504 218.973 121.04C220.957 122.576 221.789 124.944 221.981 127.568ZM244.12 117.648C243.8 121.488 238.04 121.424 238.04 117.52C238.104 109.392 238.232 101.008 238.552 90.32C238.68 85.712 245.784 86.224 245.528 90.448C244.696 103.248 244.696 108.944 244.12 117.648ZM245.336 128.976C245.336 131.344 243.48 133.2 241.048 133.2C238.68 133.2 236.824 131.344 236.824 128.976C236.824 126.544 238.68 124.688 241.048 124.688C243.48 124.688 245.336 126.544 245.336 128.976Z" fill="black"/>
<defs>
<filter id="filter0_d_3393_4835" x="0" y="0" width="377" height="219" filterUnits="userSpaceOnUse" color-interpolation-filters="sRGB">
<feFlood flood-opacity="0" result="BackgroundImageFix"/>
<feColorMatrix in="SourceAlpha" type="matrix" values="0 0 0 0 0 0 0 0 0 0 0 0 0 0 0 0 0 0 127 0" result="hardAlpha"/>
<feOffset dy="1"/>
<feGaussianBlur stdDeviation="5"/>
<feColorMatrix type="matrix" values="0 0 0 0 0 0 0 0 0 0 0 0 0 0 0 0 0 0 0.15 0"/>
<feBlend mode="normal" in2="BackgroundImageFix" result="effect1_dropShadow_3393_4835"/>
<feBlend mode="normal" in="SourceGraphic" in2="effect1_dropShadow_3393_4835" result="shape"/>
</filter>
</defs>
</svg>
