<svg xmlns="http://www.w3.org/2000/svg" width="48" height="48" viewBox="0 0 48 48" fill="none">
  <path fill-rule="evenodd" clip-rule="evenodd" d="M15.8199 13.82C16.6642 11.7622 18.1124 10.0086 19.9735 8.79054C21.8346 7.57246 24.0212 6.94709 26.2449 6.9969C28.4686 7.04672 30.625 7.76938 32.4297 9.06958C34.2344 10.3698 35.6026 12.1864 36.3539 14.28C38.4421 14.7864 40.3118 15.9519 41.686 17.6039C43.0601 19.2558 43.8658 21.3064 43.9836 23.4519C44.1014 25.5975 43.5251 27.7239 42.34 29.5164C41.155 31.3088 39.4241 32.672 37.4039 33.404C36.704 35.3364 35.4258 37.0064 33.7432 38.1866C32.0605 39.3668 30.0552 40 27.9999 40H12.7199C10.7362 40.0009 8.81153 39.3254 7.26349 38.085C5.71546 36.8446 4.63661 35.1134 4.20501 33.1773C3.7734 31.2411 4.01484 29.2157 4.88948 27.4352C5.76411 25.6548 7.21966 24.2258 9.01589 23.384C9.13196 21.31 9.83271 19.3112 11.0371 17.6187C12.2415 15.9262 13.8984 14.6092 15.8199 13.82ZM21.0499 13.05C23.1262 13.2495 25.1031 14.0349 26.7503 15.3145C28.3975 16.5942 29.6472 18.3155 30.3539 20.278C32.2941 20.749 34.0492 21.7894 35.3935 23.2656C36.7378 24.7418 37.61 26.5863 37.8979 28.562C38.7927 27.798 39.4431 26.7878 39.7683 25.6571C40.0934 24.5263 40.079 23.3249 39.7266 22.2023C39.3743 21.0797 38.6997 20.0855 37.7868 19.3433C36.8738 18.6011 35.7628 18.1437 34.5919 18.028C34.1719 17.9875 33.7755 17.8151 33.4594 17.5356C33.1432 17.2562 32.9236 16.8839 32.8319 16.472C32.557 15.2497 31.9593 14.1234 31.1011 13.2107C30.2429 12.2979 29.1555 11.6321 27.9523 11.2826C26.7492 10.9331 25.4744 10.9127 24.2607 11.2236C23.047 11.5344 21.9389 12.1652 21.0519 13.05H21.0499Z" fill="#09244B"/>
</svg>