<svg xmlns="http://www.w3.org/2000/svg" width="49" height="48" viewBox="0 0 49 48" fill="none">
  <g clip-path="url(#clip0_3473_4791)">
    <path d="M27.0983 6.29688L44.3663 36.2049C44.6297 36.6609 44.7683 37.1782 44.7683 37.7049C44.7683 38.2315 44.6297 38.7488 44.3664 39.2048C44.1031 39.6609 43.7244 40.0396 43.2683 40.3029C42.8123 40.5662 42.295 40.7049 41.7683 40.7049H7.23235C6.70574 40.7049 6.18842 40.5662 5.73237 40.3029C5.27633 40.0396 4.89762 39.6609 4.63433 39.2048C4.37103 38.7488 4.23242 38.2315 4.23242 37.7049C4.23243 37.1782 4.37104 36.6609 4.63435 36.2049L21.9023 6.29688C23.0563 4.29688 25.9423 4.29688 27.0983 6.29688ZM24.5003 9.79687L8.96435 36.7049H40.0363L24.5003 9.79687ZM24.5003 30.0009C25.0308 30.0009 25.5395 30.2116 25.9146 30.5867C26.2896 30.9617 26.5003 31.4704 26.5003 32.0009C26.5003 32.5313 26.2896 33.04 25.9146 33.4151C25.5395 33.7902 25.0308 34.0009 24.5003 34.0009C23.9699 34.0009 23.4612 33.7902 23.0861 33.4151C22.7111 33.04 22.5003 32.5313 22.5003 32.0009C22.5003 31.4704 22.7111 30.9617 23.0861 30.5867C23.4612 30.2116 23.9699 30.0009 24.5003 30.0009ZM24.5003 16.0009C25.0308 16.0009 25.5395 16.2116 25.9146 16.5867C26.2896 16.9617 26.5003 17.4704 26.5003 18.0009V26.0009C26.5003 26.5313 26.2896 27.04 25.9146 27.4151C25.5395 27.7902 25.0308 28.0009 24.5003 28.0009C23.9699 28.0009 23.4612 27.7902 23.0861 27.4151C22.7111 27.04 22.5003 26.5313 22.5003 26.0009V18.0009C22.5003 17.4704 22.7111 16.9617 23.0861 16.5867C23.4612 16.2116 23.9699 16.0009 24.5003 16.0009Z" fill="black"/>
  </g>
  <defs>
    <clipPath id="clip0_3473_4791">
      <rect width="48" height="48" fill="white" transform="translate(0.5)"/>
    </clipPath>
  </defs>
</svg>