<svg width="331" height="196" viewBox="0 0 331 196" fill="none" xmlns="http://www.w3.org/2000/svg">
<rect width="331" height="196" rx="8" fill="#282828"/>
<path d="M83.7098 25.2063L41.0524 31.1576C28.4601 32.9125 19.5714 45.4044 21.1903 59.049C22.8091 72.6935 34.3322 82.336 46.9185 80.5811L72.9752 76.9481L78.7278 84.4666C79.1161 84.9782 79.8807 84.5896 79.7612 83.9356L78.3992 76.1905L89.5758 74.6298C102.162 72.8748 111.057 60.383 109.438 46.7384C107.819 33.0874 96.2961 23.4513 83.7098 25.2063Z" fill="white"/>
<path d="M89.9163 90.8386H128.219C130.035 91.1948 130.943 92.2115 130.943 93.8822V94.4197H90.4958C89.1756 94.4197 88.0466 94.9248 87.1087 95.9416C86.1709 96.9583 85.7049 98.1757 85.7049 99.6133C85.7049 101.051 86.1709 102.281 87.1087 103.324C88.0466 104.367 89.1696 104.891 90.4958 104.891H130.943C131.05 106.562 131.642 107.98 132.717 109.139C133.792 110.305 135.124 110.881 136.719 110.881C138.314 110.881 139.593 110.273 140.722 109.049C141.851 107.825 142.412 106.348 142.412 104.619V92.3604C142.412 89.0772 141.337 86.2602 139.192 83.903C137.048 81.5458 134.461 80.3672 131.433 80.3672H89.9163C88.5424 80.3672 87.3835 80.8917 86.4516 81.9343C85.5138 82.9769 85.0479 84.2138 85.0479 85.645C85.0479 87.0761 85.5138 88.3001 86.4516 89.3168C87.3895 90.3335 88.5424 90.8386 89.9163 90.8386Z" fill="#B6ECC5"/>
<path d="M158.839 90.8386H197.142C198.958 91.1948 199.866 92.2115 199.866 93.8822V94.4197H159.419C158.099 94.4197 156.97 94.9248 156.032 95.9416C155.094 96.9583 154.628 98.1757 154.628 99.6133C154.628 101.051 155.094 102.281 156.032 103.324C156.97 104.367 158.093 104.891 159.419 104.891H199.866C199.973 106.562 200.565 107.98 201.64 109.139C202.715 110.305 204.047 110.881 205.642 110.881C207.237 110.881 208.516 110.273 209.645 109.049C210.774 107.825 211.335 106.348 211.335 104.619V92.3604C211.335 89.0772 210.26 86.2602 208.115 83.903C205.971 81.5458 203.384 80.3672 200.356 80.3672H158.839C157.465 80.3672 156.307 80.8917 155.375 81.9343C154.437 82.9769 153.971 84.2138 153.971 85.645C153.971 87.0761 154.437 88.3001 155.375 89.3168C156.313 90.3335 157.465 90.8386 158.839 90.8386Z" fill="#B6ECC5"/>
<path d="M209.603 112.139H86.7803C85.4602 112.139 84.3311 112.644 83.3933 113.66C82.4554 114.677 81.9895 115.895 81.9895 117.332C81.9895 118.77 82.4554 120.078 83.3933 121.088C84.3252 122.105 85.4542 122.61 86.7803 122.61H108.405V124.935H95.8602C92.503 124.935 89.6297 126.275 87.2343 128.963C84.8389 131.65 83.6442 134.901 83.6442 138.715C83.6442 142.53 84.8389 145.787 87.2343 148.468C89.6297 151.156 92.503 152.496 95.8602 152.496H131.6C134.957 152.496 137.831 151.156 140.226 148.468C142.621 145.781 143.816 142.53 143.816 138.715C143.816 134.901 142.621 131.644 140.226 128.963C137.831 126.282 134.957 124.935 131.6 124.935H119.056V122.61H177.328V124.935H164.783C161.426 124.935 158.553 126.275 156.157 128.963C153.762 131.65 152.567 134.901 152.567 138.715C152.567 142.53 153.762 145.787 156.157 148.468C158.553 151.156 161.426 152.496 164.783 152.496H200.523C203.88 152.496 206.754 151.156 209.149 148.468C211.544 145.781 212.739 142.53 212.739 138.715C212.739 134.901 211.544 131.644 209.149 128.963C206.754 126.282 203.88 124.935 200.523 124.935H187.979V122.61H209.603C210.923 122.61 212.052 122.105 212.99 121.088C213.928 120.072 214.394 118.822 214.394 117.332C214.394 115.843 213.928 114.677 212.99 113.66C212.052 112.644 210.929 112.139 209.603 112.139ZM131.6 136.922C132.645 137.161 133.165 137.757 133.165 138.709C132.998 139.901 132.478 140.496 131.6 140.496H95.8602C94.8148 140.257 94.2891 139.661 94.2891 138.709C94.4564 137.517 94.9761 136.922 95.8602 136.922H131.6ZM200.523 136.922C201.569 137.161 202.088 137.757 202.088 138.709C201.921 139.901 201.401 140.496 200.523 140.496H164.783C163.738 140.257 163.212 139.661 163.212 138.709C163.38 137.517 163.899 136.922 164.783 136.922H200.523Z" fill="#01BBA3"/>
<path d="M284.052 108.201C283.006 107.067 281.74 106.497 280.252 106.497H278.024V87.0829C278.024 85.2956 277.433 83.7608 276.25 82.4721C275.067 81.1899 273.652 80.5488 271.997 80.5488C270.342 80.5488 268.944 81.1899 267.786 82.4721C266.633 83.7544 266.053 85.2891 266.053 87.0829V144.264C266.053 146.052 266.633 147.574 267.786 148.83C268.938 150.086 270.342 150.708 271.997 150.708C273.652 150.708 275.061 150.08 276.25 148.83C277.433 147.58 278.024 146.058 278.024 144.264V118.044H280.252C281.74 118.044 283.006 117.493 284.052 116.386C285.097 115.285 285.623 113.925 285.623 112.313C285.623 110.7 285.097 109.327 284.052 108.194V108.201Z" fill="#B6ECC5"/>
<path d="M257.887 92.5419C259.261 92.5419 260.42 92.0174 261.352 90.9748C262.29 89.9322 262.756 88.6953 262.756 87.2641C262.756 85.833 262.29 84.5961 261.352 83.5535C260.414 82.5109 259.261 81.9863 257.887 81.9863H234.196C230.015 81.9863 226.436 83.5988 223.468 86.8173C220.499 90.0358 219.011 93.9148 219.011 98.4479V143.546C219.011 145.158 219.549 146.544 220.618 147.703C221.693 148.869 222.996 149.451 224.537 149.451H257.881C259.255 149.451 260.414 148.946 261.346 147.93C262.284 146.913 262.75 145.696 262.75 144.258C262.75 142.82 262.284 141.512 261.346 140.502C260.408 139.485 259.255 138.98 257.881 138.98H250.946V92.5355H257.881L257.887 92.5419ZM240.223 138.98H230.976V98.5321C230.976 96.8613 231.514 95.4431 232.583 94.2839C233.658 93.1183 234.961 92.5419 236.502 92.5419H240.217V138.987L240.223 138.98Z" fill="#01BBA3"/>
<path d="M33.7108 50.5524C33.5376 49.3285 33.6332 48.1499 34.35 47.9491C35.019 47.7872 36.393 47.5476 37.9461 47.308C37.8027 45.579 37.737 43.429 38.0954 42.1014C38.2687 41.4085 39.0034 41.1106 40.2639 41.0524C41.1838 41.0005 41.8827 41.2078 41.9066 42.0496C42.032 43.688 42.3367 45.5077 42.5159 46.764C43.6329 46.7058 44.5589 46.7122 45.1084 46.8547C45.7715 47.0101 46.4764 48.3118 46.5003 49.1536C46.4047 49.8012 45.5684 51.0316 44.4394 52.4433L49.1585 54.0299C50.0904 54.5998 49.8514 55.7784 49.6483 56.29C49.3736 56.9052 48.6746 57.3909 47.9937 57.1124L41.7035 55.6424C39.8397 57.6693 37.9461 59.5149 37.1098 60.2078C36.6797 60.577 35.9211 60.3762 35.4671 60.0913C34.9713 59.7157 34.0692 58.8285 34.4695 58.2781C35.5806 56.7757 39.1468 52.8189 40.228 51.2906C37.9819 51.6986 35.5985 52.1649 34.9175 52.2361C34.2425 52.3397 33.8602 51.7828 33.7108 50.5589V50.5524ZM34.4755 65.0841C34.1947 64.0998 34.1589 62.6687 34.8518 62.2801C35.9927 61.652 42.6951 60.1884 47.1753 59.3077C49.0271 58.9451 50.5324 58.7767 51.1119 58.7896C51.9004 58.822 52.0378 59.489 52.1513 60.1884C52.2289 60.8295 52.3424 61.6908 51.4942 61.9757C50.8908 62.1895 48.9255 62.7269 46.6078 63.4004C46.8228 65.395 47.1514 68.7818 46.6854 70.5044C46.4644 71.2686 45.21 71.3851 44.3558 71.3009C43.7046 71.2103 42.952 71.0419 42.8743 70.4008L42.2411 64.6567L41.2973 64.9028L36.1062 66.3858C35.3356 66.6319 34.7622 66.1138 34.4695 65.0712L34.4755 65.0841Z" fill="#01BBA3"/>
<path d="M52.9517 52.1263C53.2205 49.3741 54.3136 46.3693 55.9504 43.7012C56.7987 42.3737 57.9157 42.6262 58.8954 42.7817C59.4569 42.8594 60.5202 43.3451 60.2275 44.1869L60.0662 44.6273C62.0076 47.2565 62.599 48.9013 62.9037 51.2585C63.1068 52.8192 62.1808 58.0517 57.862 58.5503C54.9887 58.8611 52.4917 57.0544 52.9517 52.1392V52.1263ZM57.8261 55.3189C58.973 55.0663 59.3912 53.0718 59.3972 52.2234C59.3852 50.2159 58.9671 49.2964 58.1965 48.1307C57.6648 49.3028 57.39 50.0735 57.1272 51.4463C56.8644 52.8127 56.6553 55.5844 57.8321 55.3253L57.8261 55.3189ZM63.2979 61.0888C63.0888 59.8455 63.4293 58.3949 64.3254 58.22C65.8964 57.9157 70.6155 57.4041 72.6167 57.7926C73.5127 57.961 74.3669 59.0813 74.3251 60.0657C74.1997 61.9113 73.5545 65.1751 72.8377 66.6321C72.7123 66.9041 72.3598 67.0725 71.8819 67.1632C71.4877 67.2409 70.9979 67.2409 70.6215 67.2214C69.9226 67.202 69.1699 66.8458 69.1998 66.1465C69.2655 64.9743 69.373 62.8179 69.3372 61.9177C69.3252 61.6717 69.0445 61.7235 68.8474 61.7623C67.0792 62.0796 65.1079 62.4293 64.7136 62.4747C63.8355 62.5847 63.507 62.3322 63.2979 61.0888ZM69.9883 37.6075C71.2248 37.4003 72.4375 37.724 72.5092 38.3393C73.1722 43.5393 72.9452 51.4269 72.5868 55.0145C72.4972 56.0377 71.3682 55.8499 70.6932 55.7916C70.0779 55.7528 68.9967 55.6815 68.9489 54.8785L68.7279 49.3676C67.7184 49.5619 66.4042 49.8533 65.1019 50.1965C64.2178 50.462 63.74 50.1771 63.5189 49.3741C63.4413 49.0762 63.4054 48.7071 63.3935 48.4545C63.3158 47.6515 63.6324 47.1205 64.1581 46.7967C65.4663 45.9743 67.0911 45.2813 68.5427 44.9705C68.4412 42.95 68.3277 40.8713 68.1664 38.8638C68.1246 38.2745 68.7398 37.7823 69.9823 37.601L69.9883 37.6075Z" fill="#01BBA3"/>
<path d="M78.3575 60.8491C78.0469 59.8454 78.005 58.725 78.5845 58.3883C80.1973 57.4752 89.8327 55.2216 91.81 55.241C92.3596 55.2605 92.5029 55.921 92.5985 56.4974C92.6762 57.1385 92.8315 58.0839 92.2042 58.2976C90.5316 58.8416 81.5235 61.6068 79.6776 62.1508C79.0982 62.3256 78.6442 61.8529 78.3635 60.8362L78.3575 60.8491ZM78.6024 47.6579C79.146 44.666 80.7947 42.2117 82.7063 40.1459C83.7576 38.9997 85.257 38.9608 86.2307 39.2393C87.2641 39.5372 87.8495 40.4632 87.4911 41.2533L87.2999 41.6677C88.1601 43.0082 88.8531 45.0999 88.7814 47.4636C88.6798 50.6821 87.282 54.8136 82.9213 54.8525C80.06 54.8784 77.7303 52.5082 78.6024 47.6643V47.6579ZM83.2857 51.4786C84.4505 51.3426 85.1255 48.7976 85.251 47.9881C85.478 46.408 85.2868 45.2488 84.9941 44.5236C84.2235 44.9251 83.6083 45.4237 82.9213 47.1851C82.4135 48.4738 82.091 51.6146 83.2857 51.4721V51.4786ZM93.4706 37.3548C94.6892 37.0245 95.8302 37.2706 95.9855 37.8664C97.3415 42.9046 98.6975 54.3733 98.5243 58.0451C98.4884 59.0553 97.2101 59.0229 96.5291 59.0942C95.9318 59.146 95.2209 59.2237 95.1134 58.4013C94.5817 54.1466 92.9629 44.2321 91.7443 38.7924C91.6188 38.2226 92.258 37.6916 93.4706 37.3548Z" fill="#01BBA3"/>
<path d="M296.268 151.737C294.625 151.536 293.311 150.759 292.313 149.412C291.316 148.058 290.909 146.498 291.095 144.717C291.274 142.994 291.985 141.602 293.233 140.521C294.482 139.439 295.921 138.999 297.564 139.199C299.147 139.394 300.443 140.164 301.435 141.518C302.432 142.871 302.839 144.406 302.659 146.122C302.474 147.903 301.757 149.328 300.515 150.409C299.266 151.491 297.851 151.931 296.268 151.737ZM297.863 136.35C296.274 136.156 294.983 135.385 293.992 134.032C292.994 132.685 292.582 131.176 292.755 129.518L296.614 92.172C296.793 90.4559 297.504 89.0571 298.753 87.9756C300.001 86.8942 301.417 86.4538 303 86.6481C304.583 86.8424 305.861 87.613 306.829 88.96C307.797 90.3069 308.191 91.8417 308.012 93.5578L304.153 130.904C303.98 132.562 303.287 133.935 302.068 135.016C300.849 136.098 299.446 136.544 297.863 136.35Z" fill="#01BBA3"/>
</svg>
