<svg xmlns="http://www.w3.org/2000/svg" width="180" height="48" viewBox="0 0 180 48" fill="none">
  <path d="M3.62117 7.66056H12.2645V12.586C12.2645 13.6517 12.6197 14.5633 13.3357 15.3152C14.0518 16.067 14.9201 16.44 15.9349 16.44C16.9498 16.44 17.8181 16.067 18.5341 15.3152C19.2502 14.5633 19.6054 13.6517 19.6054 12.586V7.66056H28.1359C29.1508 7.66056 30.036 8.0572 30.7915 8.84457C31.547 9.63786 31.9192 10.5673 31.9192 11.6329V12.5801C31.9192 13.6457 32.2687 14.5574 32.9622 15.3093C33.6613 16.0611 34.5184 16.4341 35.5332 16.4341C36.5481 16.4341 37.4164 16.0611 38.1324 15.3093C38.8485 14.5574 39.2037 13.6457 39.2037 12.5801V10.9166C39.2037 7.9092 38.1888 5.33989 36.1534 3.20275C34.118 1.06561 31.6711 0 28.8069 0H3.62117C2.64013 0 1.7944 0.378884 1.07836 1.12481C0.362308 1.88258 0.00146484 2.79427 0.00146484 3.85988C0.00146484 4.92549 0.35667 5.82534 1.07272 6.55943C1.78877 7.29351 2.63449 7.65464 3.61553 7.65464L3.62117 7.66056Z" fill="#282828"/>
  <path d="M38.9835 25.3382C39.8856 25.3382 40.6581 25.0008 41.3008 24.3318C41.9379 23.6569 42.2593 22.8459 42.2593 21.8987C42.2593 20.9514 41.9379 20.0812 41.3008 19.4063C40.6581 18.7314 39.8856 18.3999 38.9835 18.3999H3.277C2.37489 18.3999 1.60246 18.7373 0.95971 19.4063C0.316958 20.0753 0.0012207 20.91 0.0012207 21.8987C0.0012207 22.8873 0.322597 23.6569 0.95971 24.3318C1.60246 25.0067 2.37489 25.3382 3.277 25.3382H38.9835Z" fill="#282828"/>
  <path d="M37.7995 42.0621H8.70092V40.5228H37.7431C38.5325 40.5228 39.2034 40.2268 39.7503 39.6348C40.2972 39.0428 40.5679 38.3502 40.5679 37.5569C40.5679 36.7281 40.2916 36.0118 39.7503 35.4197C39.2034 34.8277 38.5381 34.5317 37.7431 34.5317H5.03047C3.63784 34.5317 2.44819 35.0586 1.47278 36.1065C0.491742 37.1543 0.0012207 38.4094 0.0012207 39.8716V44.6787C0.0012207 45.5904 0.31132 46.3719 0.931519 47.0231C1.55172 47.6743 2.29596 47.9999 3.16423 47.9999H37.7995C38.5889 47.9999 39.2598 47.7098 39.8067 47.1415C40.3536 46.5672 40.6242 45.8687 40.6242 45.0339C40.6242 44.1992 40.348 43.5006 39.8067 42.9264C39.2654 42.3521 38.5945 42.068 37.7995 42.068V42.0621Z" fill="#282828"/>
  <path d="M89.7781 10.0583C89.0621 9.33009 88.1938 8.96304 87.1789 8.96304H85.651V4.51116C85.651 3.32715 85.245 2.3089 84.4388 1.45641C83.6269 0.603918 82.6571 0.183594 81.5295 0.183594C80.4018 0.183594 79.4377 0.609838 78.6484 1.45641C77.859 2.3089 77.4644 3.32715 77.4644 4.51116V21.7741C77.4644 22.9581 77.859 23.9704 78.6484 24.7992C79.4377 25.628 80.4018 26.0424 81.5295 26.0424C82.6571 26.0424 83.6269 25.628 84.4388 24.7992C85.2507 23.9704 85.651 22.9581 85.651 21.7741V16.6118H87.1789C88.1938 16.6118 89.0621 16.2388 89.7781 15.487C90.4942 14.7351 90.8494 13.8234 90.8494 12.7578C90.8494 11.6922 90.4885 10.7923 89.7781 10.0583Z" fill="#282828"/>
  <path d="M49.3238 25.5155H71.696C72.7504 25.5155 73.6468 25.1307 74.3798 24.3611C75.1128 23.5915 75.4792 22.6502 75.4792 21.5432V12.0533C75.4792 9.04592 74.47 6.47661 72.4572 4.33947C70.4443 2.20233 68.003 1.13672 65.1388 1.13672H49.3181C48.2638 1.13672 47.3673 1.52152 46.6344 2.29113C45.9014 3.06074 45.5349 4.00203 45.5349 5.10908V21.5432C45.5349 22.6502 45.9014 23.5915 46.6344 24.3611C47.3673 25.1307 48.2638 25.5155 49.3181 25.5155H49.3238ZM53.3945 8.48943H63.8477C64.902 8.48943 65.7985 8.87424 66.5315 9.64385C67.2644 10.4135 67.6309 11.3547 67.6309 12.4618V18.1569H53.3945V8.48943Z" fill="#282828"/>
  <path d="M119.66 5.02028C117.213 2.43321 114.253 1.13672 110.791 1.13672H105.988C102.486 1.13672 99.5095 2.43321 97.0625 5.02028C94.6156 7.61327 93.3921 10.7272 93.3921 14.3621V15.9073C93.3921 19.5481 94.6156 22.6621 97.0625 25.2491C99.5095 27.8421 102.486 29.1327 105.988 29.1327H110.791C114.259 29.1327 117.213 27.8362 119.66 25.2491C122.107 22.6621 123.331 19.5422 123.331 15.9073V14.3621C123.331 10.7213 122.107 7.60735 119.66 5.02028ZM115.201 15.8422C115.201 17.3873 114.671 18.7075 113.616 19.8145C112.562 20.9216 111.299 21.478 109.833 21.478H106.896C105.424 21.478 104.172 20.9275 103.14 19.8145C102.103 18.7075 101.584 17.3814 101.584 15.8422V14.4213C101.584 12.8762 102.103 11.556 103.14 10.449C104.178 9.34192 105.43 8.78544 106.896 8.78544H109.833C111.305 8.78544 112.562 9.34192 113.616 10.449C114.671 11.556 115.201 12.8821 115.201 14.4213V15.8422Z" fill="#282828"/>
  <path d="M134.748 29.4286C134.748 30.6126 134.342 31.6309 133.536 32.4834C132.73 33.3359 131.754 33.7562 130.627 33.7562C129.499 33.7562 128.535 33.33 127.746 32.4834C126.956 31.6309 126.562 30.6126 126.562 29.4286V4.51702C126.562 3.33301 126.956 2.31476 127.746 1.46227C128.535 0.609777 129.499 0.189453 130.627 0.189453C131.754 0.189453 132.724 0.615698 133.536 1.46227C134.348 2.31476 134.748 3.33301 134.748 4.51702V29.4346V29.4286Z" fill="#282828"/>
  <path d="M160.565 45.5669C159.776 44.7381 159.381 43.7258 159.381 42.5418V12.9355C159.381 11.8699 159.015 10.9464 158.282 10.1768C157.549 9.40718 156.652 9.02237 155.598 9.02237H142.264C141.249 9.02237 140.381 8.64941 139.665 7.89756C138.948 7.14571 138.593 6.23402 138.593 5.16841C138.593 4.1028 138.948 3.19111 139.665 2.43926C140.381 1.68742 141.249 1.31445 142.264 1.31445H157.177C160.041 1.31445 162.477 2.38006 164.495 4.51721C166.508 6.65435 167.517 9.22365 167.517 12.231V42.5418C167.517 43.7258 167.122 44.7381 166.333 45.5669C165.544 46.3957 164.58 46.8101 163.452 46.8101C162.324 46.8101 161.36 46.3957 160.571 45.5669H160.565Z" fill="#282828"/>
  <path d="M175.935 46.8099C174.807 46.8099 173.832 46.3955 173.026 45.5667C172.214 44.7379 171.813 43.7256 171.813 42.5416V4.69463C171.813 3.51062 172.219 2.49829 173.026 1.66948C173.838 0.840674 174.807 0.42627 175.935 0.42627C177.063 0.42627 178.027 0.840674 178.816 1.66948C179.605 2.49829 180 3.51062 180 4.69463V42.5416C180 43.7256 179.605 44.7379 178.816 45.5667C178.027 46.3955 177.063 46.8099 175.935 46.8099Z" fill="#282828"/>
  <path d="M137.426 40.0965H132.882C132.171 40.0965 131.472 39.9071 130.846 39.54L120.85 33.6437C116.785 31.0744 112.697 31.0744 108.592 33.6437L96.6057 40.8069C95.2244 41.6358 93.657 42.0679 92.067 42.0679H54.7536V40.6471H83.8522C84.5457 40.6471 85.2392 40.4103 85.7522 39.9189C86.4006 39.2914 86.7277 38.5455 86.7277 37.6812V35.248C86.7277 33.0753 86.0285 31.2046 84.6359 29.6417C83.2433 28.0788 81.191 27.2974 78.479 27.2974H2.82602C2.03668 27.2974 1.36574 27.5934 0.818836 28.1854C0.24938 28.8011 -0.0212519 29.5233 0.0013008 30.358C0.0238535 31.1158 0.322677 31.8558 0.824474 32.4064C1.37138 32.9925 2.03668 33.2885 2.82602 33.2885H76.2745C77.746 33.4069 78.479 33.8627 78.479 34.6501H49.3917C48.7038 34.6501 48.0103 34.875 47.4973 35.3605C46.8319 35.988 46.4993 36.7576 46.4993 37.6752V45.0339C46.4993 45.8627 46.7699 46.5672 47.3168 47.1414C47.8637 47.7157 48.529 47.9998 49.324 47.9998H96.3633C97.7221 47.9998 99.0809 47.7512 100.344 47.2302C100.519 47.1592 100.654 47.094 100.722 47.0467L112.601 40.0492C114.033 39.1789 115.443 39.1789 116.841 40.0492L129.211 47.3486C129.831 47.7689 130.474 47.988 131.134 47.9939H137.584C139.698 47.9939 141.407 46.1587 141.345 43.9209C141.283 41.6831 139.484 40.0906 137.426 40.0906V40.0965Z" fill="#282828"/>
</svg>