<svg xmlns="http://www.w3.org/2000/svg" width="33" height="32" viewBox="0 0 33 32" fill="none">
  <g clip-path="url(#clip0_2137_2700)">
    <path d="M13.6709 10.3418C13.4414 10.1122 13.3035 9.80675 13.2831 9.48272C13.2627 9.15868 13.3613 8.83835 13.5603 8.58181L13.6709 8.45648L16.5003 5.62848C17.8552 4.275 19.6859 3.50529 21.601 3.4839C23.516 3.4625 25.3634 4.19112 26.7483 5.51398C28.1331 6.83685 28.9455 8.64898 29.0118 10.563C29.0781 12.477 28.393 14.341 27.1029 15.7565L26.8709 15.9991L24.0429 18.8271C23.8036 19.0688 23.4809 19.2099 23.1409 19.2214C22.8009 19.2329 22.4694 19.1141 22.2142 18.8892C21.959 18.6643 21.7993 18.3504 21.768 18.0116C21.7367 17.6729 21.836 17.335 22.0456 17.0671L22.1563 16.9418L24.9856 14.1138C25.8443 13.2555 26.3347 12.0963 26.3527 10.8824C26.3707 9.66842 25.9149 8.49523 25.082 7.61186C24.2491 6.72849 23.1047 6.20448 21.8918 6.15107C20.6789 6.09766 19.4929 6.51906 18.5856 7.32581L18.3856 7.51381L15.5576 10.3418C15.4338 10.4658 15.2867 10.5641 15.1249 10.6312C14.963 10.6983 14.7895 10.7329 14.6143 10.7329C14.4391 10.7329 14.2656 10.6983 14.1037 10.6312C13.9418 10.5641 13.7948 10.4658 13.6709 10.3418ZM12.7283 19.7725C12.4987 19.5429 12.3608 19.2374 12.3404 18.9134C12.3201 18.5894 12.4186 18.269 12.6176 18.0125L12.7283 17.8858L18.3856 12.2298C18.6256 11.9907 18.9475 11.8518 19.2861 11.8415C19.6247 11.8312 19.9546 11.9501 20.2087 12.1741C20.4627 12.3982 20.622 12.7105 20.6541 13.0478C20.6863 13.385 20.5888 13.7218 20.3816 13.9898L20.2709 14.1151L14.6149 19.7725C14.4911 19.8964 14.3441 19.9948 14.1822 20.0619C14.0203 20.129 13.8468 20.1635 13.6716 20.1635C13.4964 20.1635 13.3229 20.129 13.161 20.0619C12.9992 19.9948 12.8521 19.8964 12.7283 19.7725ZM6.12828 26.3725C4.79393 25.0381 4.02533 23.2407 3.98237 21.3541C3.93941 19.4674 4.62538 17.6369 5.89762 16.2431L6.12962 16.0005L8.95628 13.1725C9.19567 12.9308 9.51838 12.7898 9.85835 12.7782C10.1983 12.7667 10.5298 12.8855 10.7851 13.1104C11.0403 13.3353 11.1999 13.6493 11.2312 13.988C11.2626 14.3267 11.1632 14.6646 10.9536 14.9325L10.8429 15.0578L8.01495 17.8858C7.15626 18.7441 6.66586 19.9033 6.64787 21.1172C6.62988 22.3312 7.0857 23.5044 7.91858 24.3878C8.75146 25.2711 9.89582 25.7951 11.1087 25.8485C12.3217 25.902 13.5077 25.4806 14.4149 24.6738L14.6149 24.4858L17.4416 21.6578C17.681 21.4161 18.0037 21.2751 18.3437 21.2636C18.6836 21.252 19.0152 21.3709 19.2704 21.5958C19.5256 21.8207 19.6852 22.1346 19.7166 22.4733C19.7479 22.812 19.6486 23.1499 19.4389 23.4178L19.3283 23.5431L16.5003 26.3698C15.125 27.745 13.2598 28.5176 11.3149 28.5176C9.37009 28.5176 7.50487 27.745 6.12962 26.3698L6.12828 26.3725Z" fill="#666666"/>
  </g>
  <defs>
    <clipPath id="clip0_2137_2700">
      <rect width="32" height="32" fill="white" transform="matrix(0 -1 1 0 0.5 32)"/>
    </clipPath>
  </defs>
</svg>