<svg width="108" height="79" viewBox="0 0 108 79" fill="none" xmlns="http://www.w3.org/2000/svg">
<rect width="108" height="79" rx="3" fill="#5A4747"/>
<rect x="6" y="5" width="97" height="69" fill="white"/>
<path d="M42.8223 18.9121V20.416H48.5918V18.9121H49.877V23.998H41.5234V18.9121H42.8223ZM42.8223 22.9453H48.5918V21.4414H42.8223V22.9453ZM49.8906 12.4453V13.3613C49.8975 14.3115 49.8975 15.3711 49.5898 16.834H51.3125V17.9141H40.1152V16.834H48.3047C48.5986 15.4531 48.6123 14.4277 48.6191 13.5117H41.5234V12.4453H49.8906ZM66.8438 18.8848V19.9102H62.0176V21.6465H60.7188V19.9102H55.6738V18.8848H66.8438ZM65.627 22.8633V23.9023H57.0547V20.8535H58.3672V22.8633H65.627ZM66.2285 13.0059V14.0176H56.248V13.0059H60.623V11.8027H61.9219V13.0059H66.2285ZM61.252 14.4824C63.8154 14.4893 65.292 15.1387 65.2988 16.3555C65.292 17.5518 63.8223 18.2148 61.252 18.2148C58.709 18.2148 57.2393 17.5518 57.2324 16.3555C57.2393 15.1387 58.7158 14.4893 61.252 14.4824ZM61.252 15.4258C59.502 15.4258 58.5586 15.7402 58.5586 16.3555C58.5586 16.9502 59.4883 17.2646 61.252 17.2578C63.043 17.2646 63.9727 16.9502 63.9727 16.3555C63.9727 15.7402 63.0293 15.4258 61.252 15.4258Z" fill="black"/>
<path d="M38.6377 39.7441V43.0312H40.9229V44.4023H38.6377V47.707H36.9678V39.7441H38.6377ZM38.6377 48.4277V52.418H30.1475V53.9473H39.2002V55.2832H28.4951V51.1523H37.0029V49.7461H28.4424V48.4277H38.6377ZM30.6572 40.2715C33.0479 40.2803 34.7881 41.7305 34.7881 43.7871C34.7881 45.8701 33.0479 47.3203 30.6572 47.3203C28.2666 47.3203 26.5176 45.8701 26.5088 43.7871C26.5176 41.7305 28.2666 40.2803 30.6572 40.2715ZM30.6572 41.6426C29.2158 41.6426 28.1436 42.5215 28.1436 43.7871C28.1436 45.0791 29.2158 45.9668 30.6572 45.9668C32.1074 45.9668 33.1621 45.0791 33.1709 43.7871C33.1621 42.5215 32.1074 41.6426 30.6572 41.6426ZM51.7686 42.1172C51.7773 43.9102 53.2275 45.6152 55.6182 46.3008L54.8447 47.6191C53.0254 47.0918 51.6807 45.9668 50.9775 44.5254C50.2744 46.1514 48.8594 47.417 46.9346 48.0059L46.1084 46.6699C48.5869 45.9492 50.0898 44.1123 50.0811 42.1348V41.9414H46.6357V40.5703H55.1611V41.9414H51.7686V42.1172ZM58.6592 39.7441V43.0664H60.9443V44.4375H58.6592V47.8301H56.9893V39.7441H58.6592ZM58.6592 48.5332V52.4707H50.1689V54.0352H59.2217V55.3359H48.5166V51.2402H57.0244V49.834H48.4639V48.5332H58.6592ZM78.9971 39.7441V43.8926H80.9658V45.2812H78.9971V49.166H77.3271V39.7441H78.9971ZM78.9971 49.8691V55.4941H77.3271V51.2227H68.3799V49.8691H78.9971ZM70.8408 40.9922V42.3633H68.4326V46.6699C69.2324 46.6523 70.1025 46.582 71.0693 46.3535L71.2275 47.7598C69.7949 48.0586 68.6699 48.0674 67.5713 48.0762H66.833V40.9922H70.8408ZM75.9385 40.9922V42.3633H73.3193V46.6699C74.541 46.6611 75.3936 46.5908 76.3955 46.3535L76.5713 47.7422C75.2529 48.0586 74.1631 48.0674 72.5283 48.0762H71.7373V40.9922H75.9385Z" fill="black"/>
</svg>
