
<svg width="203" height="357" viewBox="0 0 203 357" fill="none" xmlns="http://www.w3.org/2000/svg">
<rect x="92" y="47" width="18" height="307" fill="#7C7777" stroke="#605858" stroke-width="6"/>
<path d="M112.758 113.5C107.755 104.833 95.2454 104.833 90.2417 113.5L19.6606 235.75C14.6569 244.417 20.9115 255.25 30.9189 255.25H172.081C182.088 255.25 188.343 244.417 183.339 235.75L112.758 113.5Z" fill="#FF7070" stroke="#605858" stroke-width="6"/>
<path d="M96.3038 137C98.6133 133 104.387 133 106.696 137L159.957 229.25C162.266 233.25 159.379 238.25 154.761 238.25H48.2394C43.6206 238.25 40.7339 233.25 43.0433 229.25L96.3038 137Z" fill="#FFE073"/>
<path d="M115.32 183.656V195.328H121.086V200.25H115.32V214.453H109.273V183.656H115.32ZM102.383 187.031V191.859H89.1641V202.594C96.9688 202.547 101.141 202.289 105.852 201.328L106.461 206.109C101.234 207.258 96.4297 207.516 86.6797 207.516H83.1172V187.031H102.383ZM116.914 220.688V225.562H87.6641V211.219H93.7109V220.688H116.914Z" fill="#222222"/>
<path d="M193.774 32.7087L191.554 30.6907L193.774 32.7087C196.201 30.0388 196.201 25.9612 193.774 23.2913L177.41 5.29129C176.083 3.83197 174.203 3 172.231 3H24C20.134 3 17 6.134 17 10V46C17 49.866 20.134 53 24 53H172.231C174.203 53 176.083 52.168 177.41 50.7087L193.774 32.7087Z" fill="#A377FF" stroke="#605858" stroke-width="6"/>
<path d="M36.1875 39V16.375H41.2188L47.8438 32.8125H47.9688L54.5938 16.375H59.625V39H55.6875V24.0938H55.5938L49.5938 39H46.2188L40.25 24.0938H40.125V39H36.1875ZM63.8125 39V16.375H67.8125V39H63.8125ZM79.4062 39.4375C76.1406 39.4375 73.3438 38.1562 71.1562 35.625L73.9375 32.9688C75.5312 34.8281 77.2344 35.6406 79.4062 35.6562C81.9531 35.6406 83.5156 34.4531 83.5312 32.4688C83.5156 30.8906 82.5 30.0625 79.4688 29.2188L78.375 28.9375C74.0781 27.7969 71.9844 25.7188 71.9688 22.625C71.9844 18.7812 75.2344 15.9375 79.6875 15.9375C82.6562 15.9375 85.4219 17.2656 87.375 19.5938L84.625 22.2188C83.2188 20.5781 81.5469 19.7344 79.6875 19.7188C77.5156 19.7344 76.0156 20.8906 76.0312 22.5938C76.0156 23.9219 76.9062 24.6094 79.4062 25.2812L80.4688 25.5625C85.375 26.8906 87.5625 29 87.5625 32.4062C87.5625 36.5781 84.2344 39.4375 79.4062 39.4375ZM98.4375 39.4375C95.1719 39.4375 92.375 38.1562 90.1875 35.625L92.9688 32.9688C94.5625 34.8281 96.2656 35.6406 98.4375 35.6562C100.984 35.6406 102.547 34.4531 102.562 32.4688C102.547 30.8906 101.531 30.0625 98.5 29.2188L97.4062 28.9375C93.1094 27.7969 91.0156 25.7188 91 22.625C91.0156 18.7812 94.2656 15.9375 98.7188 15.9375C101.688 15.9375 104.453 17.2656 106.406 19.5938L103.656 22.2188C102.25 20.5781 100.578 19.7344 98.7188 19.7188C96.5469 19.7344 95.0469 20.8906 95.0625 22.5938C95.0469 23.9219 95.9375 24.6094 98.4375 25.2812L99.5 25.5625C104.406 26.8906 106.594 29 106.594 32.4062C106.594 36.5781 103.266 39.4375 98.4375 39.4375ZM110.031 39V16.375H114.031V39H110.031ZM129.188 39.4375C122.469 39.4375 117.391 34.3906 117.375 27.6875C117.391 20.9844 122.469 15.9375 129.188 15.9375C135.922 15.9375 141.016 20.9844 141 27.6875C141.016 34.3906 135.922 39.4375 129.188 39.4375ZM129.188 35.6562C133.75 35.6406 136.969 32.3438 136.969 27.6875C136.969 23.0312 133.75 19.7344 129.188 19.7188C124.641 19.7344 121.422 23.0312 121.438 27.6875C121.422 32.3438 124.641 35.6406 129.188 35.6562ZM144.406 39V16.375H148.969L159.688 32.6562H159.812V16.375H163.812V39H159.312L148.562 22.625H148.406V39H144.406Z" fill="white"/>
</svg>
