<svg width="203" height="357" viewBox="0 0 203 357" fill="none" xmlns="http://www.w3.org/2000/svg">
<rect x="92" y="47" width="18" height="307" fill="#7C7777" stroke="#605858" stroke-width="6"/>
<path d="M183.339 235.75L112.758 113.5C107.755 104.833 95.2454 104.833 90.2417 113.5L19.6606 235.75C14.6569 244.417 20.9115 255.25 30.9189 255.25H172.081C182.088 255.25 188.343 244.417 183.339 235.75Z" fill="#FF7070" stroke="#605858" stroke-width="6"/>
<path d="M96.3038 137C98.6132 133 104.387 133 106.696 137L159.957 229.25C162.266 233.25 159.379 238.25 154.761 238.25H48.2394C43.6206 238.25 40.7339 233.25 43.0433 229.25L96.3038 137Z" fill="#FFE073"/>
<path d="M172.231 3H24C20.134 3 17 6.134 17 10V46C17 49.866 20.134 53 24 53H172.231C174.203 53 176.083 52.168 177.41 50.7087L193.774 32.7087C196.201 30.0388 196.201 25.9612 193.774 23.2913L177.41 5.29129C176.083 3.83197 174.203 3 172.231 3Z" fill="#A377FF" stroke="#605858" stroke-width="6"/>
<path d="M36.1875 16.375H41.2188L47.8438 32.8125H47.9688L54.5938 16.375H59.625V39H55.6875V24.0938H55.5781L49.5938 39H46.2188L40.2344 24.0938H40.125V39H36.1875V16.375ZM63.8125 16.375H67.8125V39H63.8125V16.375ZM79.4062 39.4375C77.7708 39.4375 76.2604 39.1198 74.875 38.4844C73.4896 37.8385 72.25 36.8854 71.1562 35.625L73.9375 32.9688C74.7292 33.8958 75.5625 34.5729 76.4375 35C77.3229 35.4271 78.3125 35.6458 79.4062 35.6562C80.6875 35.6458 81.6927 35.3594 82.4219 34.7969C83.151 34.2344 83.5208 33.4583 83.5312 32.4688C83.5208 31.9375 83.3854 31.4844 83.125 31.1094C82.875 30.724 82.4583 30.3854 81.875 30.0938C81.2917 29.7917 80.4896 29.5 79.4688 29.2188L78.375 28.9375C76.2292 28.3646 74.625 27.5573 73.5625 26.5156C72.5104 25.474 71.9792 24.1771 71.9688 22.625C71.9688 21.3646 72.3021 20.224 72.9688 19.2031C73.6354 18.1823 74.5573 17.3854 75.7344 16.8125C76.9115 16.2292 78.2292 15.9375 79.6875 15.9375C81.1667 15.9375 82.5729 16.2552 83.9062 16.8906C85.2396 17.526 86.3958 18.4271 87.375 19.5938L84.625 22.2188C83.2083 20.5729 81.5625 19.7396 79.6875 19.7188C78.9792 19.7188 78.3438 19.8385 77.7812 20.0781C77.2292 20.3177 76.7969 20.6562 76.4844 21.0938C76.1823 21.5208 76.0312 22.0104 76.0312 22.5625C76.0312 23.0208 76.1354 23.4062 76.3438 23.7188C76.5625 24.0312 76.9115 24.3125 77.3906 24.5625C77.8802 24.8125 78.5521 25.0521 79.4062 25.2812L80.4688 25.5625C82.9271 26.2292 84.724 27.1146 85.8594 28.2188C86.9948 29.3125 87.5625 30.7083 87.5625 32.4062C87.5625 33.7812 87.2188 35 86.5312 36.0625C85.8438 37.125 84.8802 37.9531 83.6406 38.5469C82.4115 39.1406 81 39.4375 79.4062 39.4375ZM98.4375 39.4375C96.8021 39.4375 95.2917 39.1198 93.9062 38.4844C92.5208 37.8385 91.2812 36.8854 90.1875 35.625L92.9688 32.9688C93.7604 33.8958 94.5938 34.5729 95.4688 35C96.3542 35.4271 97.3438 35.6458 98.4375 35.6562C99.7188 35.6458 100.724 35.3594 101.453 34.7969C102.182 34.2344 102.552 33.4583 102.562 32.4688C102.552 31.9375 102.417 31.4844 102.156 31.1094C101.906 30.724 101.49 30.3854 100.906 30.0938C100.323 29.7917 99.5208 29.5 98.5 29.2188L97.4062 28.9375C95.2604 28.3646 93.6562 27.5573 92.5938 26.5156C91.5417 25.474 91.0104 24.1771 91 22.625C91 21.3646 91.3333 20.224 92 19.2031C92.6667 18.1823 93.5885 17.3854 94.7656 16.8125C95.9427 16.2292 97.2604 15.9375 98.7188 15.9375C100.198 15.9375 101.604 16.2552 102.938 16.8906C104.271 17.526 105.427 18.4271 106.406 19.5938L103.656 22.2188C102.24 20.5729 100.594 19.7396 98.7188 19.7188C98.0104 19.7188 97.375 19.8385 96.8125 20.0781C96.2604 20.3177 95.8281 20.6562 95.5156 21.0938C95.2135 21.5208 95.0625 22.0104 95.0625 22.5625C95.0625 23.0208 95.1667 23.4062 95.375 23.7188C95.5938 24.0312 95.9427 24.3125 96.4219 24.5625C96.9115 24.8125 97.5833 25.0521 98.4375 25.2812L99.5 25.5625C101.958 26.2292 103.755 27.1146 104.891 28.2188C106.026 29.3125 106.594 30.7083 106.594 32.4062C106.594 33.7812 106.25 35 105.562 36.0625C104.875 37.125 103.911 37.9531 102.672 38.5469C101.443 39.1406 100.031 39.4375 98.4375 39.4375ZM110.031 16.375H114.031V39H110.031V16.375ZM129.188 39.4375C126.979 39.4375 124.974 38.9271 123.172 37.9062C121.38 36.875 119.964 35.4635 118.922 33.6719C117.891 31.8802 117.375 29.8854 117.375 27.6875C117.375 25.4896 117.891 23.4948 118.922 21.7031C119.964 19.9115 121.38 18.5052 123.172 17.4844C124.974 16.4531 126.979 15.9375 129.188 15.9375C131.406 15.9375 133.417 16.4531 135.219 17.4844C137.021 18.5052 138.432 19.9115 139.453 21.7031C140.484 23.4948 141 25.4896 141 27.6875C141 29.8854 140.484 31.8802 139.453 33.6719C138.432 35.4635 137.021 36.875 135.219 37.9062C133.417 38.9271 131.406 39.4375 129.188 39.4375ZM129.188 35.6562C130.688 35.6562 132.026 35.3177 133.203 34.6406C134.391 33.9531 135.312 33.0052 135.969 31.7969C136.635 30.5885 136.969 29.2188 136.969 27.6875C136.969 26.1562 136.635 24.7865 135.969 23.5781C135.312 22.3698 134.391 21.4271 133.203 20.75C132.026 20.0625 130.688 19.7188 129.188 19.7188C127.688 19.7188 126.349 20.0625 125.172 20.75C123.995 21.4271 123.078 22.3698 122.422 23.5781C121.766 24.7865 121.438 26.1562 121.438 27.6875C121.438 29.2188 121.766 30.5885 122.422 31.7969C123.078 33.0052 123.995 33.9531 125.172 34.6406C126.349 35.3177 127.688 35.6562 129.188 35.6562ZM144.406 16.375H148.969L159.672 32.6562H159.812V16.375H163.812V39H159.312L148.562 22.625H148.406V39H144.406V16.375Z" fill="white"/>
</svg>
