<svg width="330" height="196" viewBox="0 0 330 196" fill="none" xmlns="http://www.w3.org/2000/svg">
<rect width="330" height="196" rx="10" fill="white"/>
<rect width="330" height="196" rx="10" fill="url(#paint0_linear_1961_2479)" fill-opacity="0.44"/>
<path d="M0 5C0 2.23857 2.23858 0 5 0H55V162H0V5Z" fill="#FEF63A"/>
<path d="M55 0H109.538V162H55V0Z" fill="#01D6E4"/>
<path d="M109.538 0H165V162H109.538V0Z" fill="#008816"/>
<path d="M165 0H219.538V162H165V0Z" fill="#FF24CF"/>
<path d="M219.538 0H275V162H219.538V0Z" fill="#FE0C0C"/>
<path d="M275 0H325C327.761 0 330 2.23858 330 5V162H275V0Z" fill="#491BFF"/>
<rect x="55" y="162" width="54.54" height="34" fill="#040404"/>
<rect x="165" y="162" width="54.54" height="34" fill="#040404"/>
<path d="M275 162H330V191C330 193.761 327.761 196 325 196H275V162Z" fill="#040404"/>
<defs>
<linearGradient id="paint0_linear_1961_2479" x1="165" y1="0" x2="165" y2="196" gradientUnits="userSpaceOnUse">
<stop stop-color="#666666" stop-opacity="0.1"/>
<stop offset="1" stop-opacity="0.1"/>
</linearGradient>
</defs>
</svg>
