<svg xmlns="http://www.w3.org/2000/svg" width="24" height="24" viewBox="0 0 24 24" fill="none">
<path fill-rule="evenodd" clip-rule="evenodd" d="M9.93015 19.7282C11.6812 20.197 13.5395 20.0577 15.201 19.3328C16.8625 18.608 18.2288 17.3406 19.0762 15.7382C19.1373 15.6219 19.2208 15.5189 19.3218 15.435C19.4229 15.351 19.5394 15.2878 19.6649 15.2489C19.7903 15.2099 19.9222 15.1961 20.053 15.2082C20.1838 15.2203 20.3109 15.258 20.4272 15.3192C20.5434 15.3804 20.6464 15.4638 20.7304 15.5649C20.8143 15.6659 20.8775 15.7824 20.9165 15.9079C20.9554 16.0333 20.9692 16.1652 20.9571 16.296C20.9451 16.4268 20.9073 16.5539 20.8462 16.6702C18.7162 20.7102 14.0102 22.8912 9.41215 21.6602C4.07715 20.2302 0.912155 14.7472 2.34115 9.41215C3.77115 4.07715 9.25415 0.912155 14.5882 2.34115C16.7016 2.90738 18.5711 4.15093 19.9102 5.88126C21.2493 7.61159 21.9842 9.73325 22.0022 11.9212C22.0092 12.8242 21.0072 13.3232 20.2892 12.8412L17.6162 11.0392C16.6082 10.3592 17.2842 8.78816 18.4702 9.05316L19.5282 9.28915C19.0618 7.99486 18.2695 6.8427 17.2279 5.94397C16.1863 5.04525 14.9305 4.43033 13.5818 4.15862C12.2332 3.88691 10.8372 3.96759 9.52884 4.39287C8.22047 4.81815 7.04388 5.57365 6.11272 6.58639C5.18157 7.59914 4.52732 8.8349 4.21318 10.1743C3.89903 11.5137 3.93561 12.9115 4.31938 14.2327C4.70315 15.5538 5.42113 16.7536 6.40398 17.7163C7.38683 18.679 8.60133 19.3719 9.93015 19.7282Z" fill="#F7F7F7"/>
</svg>