<svg xmlns="http://www.w3.org/2000/svg" width="20" height="20" viewBox="0 0 20 20" fill="none">
  <path fill-rule="evenodd" clip-rule="evenodd" d="M8.49928 0.445313C7.14387 0.445428 5.80814 0.769677 4.60353 1.39101C3.39893 2.01234 2.36037 2.91273 1.57451 4.01707C0.788656 5.1214 0.278287 6.39766 0.0859852 7.73936C-0.106316 9.08105 0.0250263 10.4493 0.469055 11.7299C0.913084 13.0105 1.65692 14.1664 2.63851 15.101C3.6201 16.0357 4.81098 16.7221 6.11179 17.1029C7.4126 17.4837 8.78562 17.548 10.1163 17.2902C11.447 17.0325 12.6967 16.4603 13.7613 15.6213L17.4133 19.2733C17.6019 19.4555 17.8545 19.5563 18.1167 19.554C18.3789 19.5517 18.6297 19.4465 18.8151 19.2611C19.0005 19.0757 19.1057 18.8249 19.108 18.5627C19.1102 18.3005 19.0094 18.0479 18.8273 17.8593L15.1753 14.2073C16.1633 12.9539 16.7784 11.4477 16.9504 9.86104C17.1223 8.27436 16.8441 6.67133 16.1475 5.23541C15.4509 3.79948 14.3642 2.58867 13.0116 1.74154C11.659 0.894419 10.0952 0.445205 8.49928 0.445313ZM1.99928 8.94531C1.99928 7.22141 2.6841 5.5681 3.90308 4.34912C5.12207 3.13013 6.77537 2.44531 8.49928 2.44531C10.2232 2.44531 11.8765 3.13013 13.0955 4.34912C14.3145 5.5681 14.9993 7.22141 14.9993 8.94531C14.9993 10.6692 14.3145 12.3225 13.0955 13.5415C11.8765 14.7605 10.2232 15.4453 8.49928 15.4453C6.77537 15.4453 5.12207 14.7605 3.90308 13.5415C2.6841 12.3225 1.99928 10.6692 1.99928 8.94531Z" fill="#00BFA3"/>
</svg>