<svg width="338" height="204" viewBox="0 0 338 204" fill="none" xmlns="http://www.w3.org/2000/svg">
<g filter="url(#filter0_d_2076_2605)">
<path d="M4 10C4 4.47715 8.47715 0 14 0H324C329.523 0 334 4.47715 334 10V186C334 191.523 329.523 196 324 196H14C8.47714 196 4 191.523 4 186V10Z" fill="url(#paint0_radial_2076_2605)"/>
</g>
<path d="M97.2598 82.104C97.6011 81.9333 97.8998 81.848 98.1558 81.848C98.4118 81.848 98.7531 81.976 99.1798 82.232C99.2651 82.232 99.3291 82.2533 99.3718 82.296C99.9691 82.5947 100.289 82.9787 100.332 83.448C100.417 84.1307 100.46 85.7733 100.46 88.376V89.336C100.417 92.28 100.417 94.008 100.46 94.52C100.545 95.1173 100.694 95.5013 100.908 95.672C101.249 95.8853 102.23 96.7387 103.852 98.232C105.43 99.5547 106.796 100.621 107.948 101.432C108.758 101.944 109.334 102.435 109.676 102.904C110.06 103.331 110.252 103.779 110.252 104.248C110.252 104.547 110.145 104.952 109.932 105.464C109.462 106.317 108.865 106.744 108.14 106.744C107.201 106.744 106.049 106.147 104.684 104.952C102.465 103.032 100.801 101.667 99.6918 100.856C99.3931 100.643 99.1798 100.536 99.0518 100.536C98.7958 100.536 98.4971 100.792 98.1558 101.304C97.4304 102.499 96.2784 103.885 94.6998 105.464C93.1638 107.043 91.8411 108.173 90.7318 108.856C90.3904 109.069 89.9851 109.176 89.5158 109.176C88.7904 109.176 88.1504 108.941 87.5958 108.472C86.9984 107.96 86.6998 107.448 86.6998 106.936C86.6998 106.211 87.2971 105.443 88.4918 104.632C90.1131 103.523 91.6278 102.072 93.0358 100.28C94.4864 98.4453 95.3398 96.8667 95.5958 95.544C95.8944 94.1787 96.0438 92.1733 96.0438 89.528C96.0438 88.376 96.0224 87.48 95.9798 86.84C95.8944 85.176 95.9584 84.0453 96.1718 83.448C96.2998 82.8933 96.6624 82.4453 97.2598 82.104ZM127.532 83.128C128.086 82.9147 128.534 82.808 128.876 82.808C129.516 82.808 130.07 83.1067 130.54 83.704C130.71 84.0453 130.796 84.8987 130.796 86.264C130.796 89.1227 130.838 90.744 130.924 91.128C131.009 91.8107 131.116 93.2187 131.244 95.352C131.414 98.2107 131.564 100.408 131.692 101.944C131.862 103.523 131.948 104.888 131.948 106.04C131.948 106.637 131.926 107.021 131.884 107.192C131.67 108.045 131.18 108.685 130.412 109.112C129.985 109.325 129.729 109.432 129.644 109.432C129.601 109.432 129.324 109.325 128.812 109.112C128.172 108.813 127.745 108.28 127.532 107.512C127.404 107 127.297 105.336 127.212 102.52C127.169 100.173 127.02 97.976 126.764 95.928C126.55 94.2213 126.444 93.2187 126.444 92.92C126.444 92.408 126.38 91.896 126.252 91.384C126.124 90.7867 126.06 89.592 126.06 87.8C126.06 86.0507 126.145 84.92 126.316 84.408C126.529 83.8107 126.934 83.384 127.532 83.128ZM118.7 83.576C118.828 83.5333 119.041 83.512 119.34 83.512C119.937 83.512 120.534 83.6613 121.132 83.96C121.558 84.1307 121.836 84.4507 121.964 84.92C122.049 85.5173 122.092 86.4987 122.092 87.864C122.092 89.528 122.156 90.7867 122.284 91.64C122.71 94.2853 122.988 96.6533 123.116 98.744C123.201 99.5547 123.244 100.6 123.244 101.88C123.244 102.691 123.222 103.224 123.18 103.48C123.052 104.376 122.689 105.016 122.092 105.4C121.708 105.656 121.345 105.784 121.004 105.784C120.321 105.784 119.724 105.443 119.212 104.76C118.7 104.077 118.444 103.267 118.444 102.328C118.444 101.987 118.465 101.731 118.508 101.56C118.55 101.048 118.486 100.131 118.316 98.808C118.188 97.4427 118.06 96.7173 117.932 96.632L117.676 96.568L117.1 96.696C116.588 96.8667 115.5 96.952 113.836 96.952C112.513 96.952 111.169 96.9093 109.804 96.824C108.481 96.696 107.628 96.5467 107.244 96.376C106.732 96.2053 106.326 95.9067 106.028 95.48C105.729 95.0107 105.58 94.5413 105.58 94.072C105.58 93.56 105.75 93.1333 106.092 92.792C106.518 92.3653 107.052 92.1307 107.692 92.088C108.502 92.0027 109.548 92.0453 110.828 92.216C112.534 92.344 114.028 92.3867 115.308 92.344L117.42 92.28L117.356 88.888L117.292 86.904C117.292 85.9227 117.356 85.2187 117.484 84.792C117.654 84.152 118.06 83.7467 118.7 83.576ZM179.291 71.096C183.814 71.096 186.353 71.352 186.907 71.864C187.249 72.1627 187.505 72.696 187.675 73.464C187.846 74.232 187.889 74.936 187.803 75.576C187.675 76.3867 187.611 77.0693 187.611 77.624C187.611 78.3067 187.462 79.3093 187.163 80.632C186.822 82.3387 186.523 83.6827 186.267 84.664C186.097 85.3467 185.798 85.9227 185.371 86.392C185.073 86.7333 184.923 86.968 184.923 87.096C184.923 87.224 185.777 87.288 187.483 87.288C189.275 87.288 190.619 87.2027 191.515 87.032C192.667 86.8613 193.798 86.776 194.907 86.776C195.419 86.776 196.102 86.8187 196.955 86.904C198.577 87.16 199.387 87.8 199.387 88.824C199.387 89.6347 199.003 90.4027 198.235 91.128C197.51 91.8107 196.721 92.152 195.867 92.152C195.526 92.152 195.227 92.088 194.971 91.96C194.545 91.7467 193.883 91.64 192.987 91.64C192.177 91.64 191.345 91.7253 190.491 91.896C189.467 92.0667 187.761 92.1733 185.371 92.216C182.854 92.2587 180.849 92.3867 179.355 92.6C178.033 92.7707 176.198 92.8987 173.851 92.984L165.979 93.304C163.633 93.432 162.097 93.4533 161.371 93.368C160.774 93.2827 160.283 92.9627 159.899 92.408C159.601 91.9813 159.451 91.4693 159.451 90.872C159.451 90.5307 159.515 90.232 159.643 89.976C159.771 89.6773 159.942 89.464 160.155 89.336C160.625 89.0373 161.179 88.8667 161.819 88.824C162.075 88.7813 162.758 88.76 163.867 88.76L165.851 88.696C169.905 88.6533 174.534 88.312 179.739 87.672C181.403 87.4587 182.235 87.2667 182.235 87.096V87.032C182.235 86.9893 182.15 86.7973 181.979 86.456C181.851 86.2 181.787 85.816 181.787 85.304C181.787 84.536 181.915 83.5547 182.171 82.36C182.641 80.44 182.875 78.84 182.875 77.56C182.875 76.4933 182.662 75.9387 182.235 75.896C182.107 75.8533 181.275 75.832 179.739 75.832C178.203 75.832 176.625 75.8533 175.003 75.896C173.425 75.9387 172.038 75.9813 170.843 76.024C169.649 76.0667 169.35 76.088 169.947 76.088C169.307 76.088 168.753 75.9173 168.283 75.576C167.857 75.2347 167.579 74.744 167.451 74.104C167.409 73.9333 167.387 73.6987 167.387 73.4C167.387 72.7173 167.665 72.248 168.219 71.992C168.902 71.608 170.481 71.352 172.955 71.224L179.291 71.096ZM177.755 96.824C180.401 96.696 182.598 96.632 184.347 96.632C185.329 96.632 186.374 96.6747 187.483 96.76C189.361 96.9307 190.641 97.3573 191.323 98.04C191.878 98.7227 192.155 99.4053 192.155 100.088C192.155 100.813 191.899 101.944 191.387 103.48L190.747 105.784C190.577 106.509 190.193 107.107 189.595 107.576C188.998 108.045 188.251 108.323 187.355 108.408C186.758 108.451 186.011 108.557 185.115 108.728C184.518 108.856 183.558 108.963 182.235 109.048C181.211 109.091 180.273 109.197 179.419 109.368L176.923 109.88C175.771 110.093 175.174 110.221 175.131 110.264C174.918 110.264 174.811 110.349 174.811 110.52C174.726 110.733 174.726 111.352 174.811 112.376C174.897 113.443 174.982 114.168 175.067 114.552C175.195 114.893 175.451 115.064 175.835 115.064C176.091 115.064 176.603 114.957 177.371 114.744C178.097 114.488 178.886 114.339 179.739 114.296C180.55 114.253 181.531 114.147 182.683 113.976C183.835 113.805 185.499 113.699 187.675 113.656C190.193 113.528 191.963 113.336 192.987 113.08C193.841 112.824 194.417 112.696 194.715 112.696C194.929 112.696 195.291 112.803 195.803 113.016C196.102 113.101 196.337 113.315 196.507 113.656C196.678 113.955 196.763 114.296 196.763 114.68C196.763 115.192 196.593 115.619 196.251 115.96C195.27 116.856 193.777 117.432 191.771 117.688C187.889 118.2 185.585 118.456 184.859 118.456C184.347 118.456 183.793 118.52 183.195 118.648L180.059 119.16C178.481 119.373 177.222 119.629 176.283 119.928C175.046 120.269 174.107 120.44 173.467 120.44C172.571 120.44 171.91 120.12 171.483 119.48C171.099 118.883 170.801 117.859 170.587 116.408C170.075 112.483 169.819 109.944 169.819 108.792C169.819 107.683 170.139 106.893 170.779 106.424C171.334 105.997 172.209 105.677 173.403 105.464C174.513 105.293 176.987 105.037 180.827 104.696C183.174 104.483 184.625 104.312 185.179 104.184C185.947 104.056 186.481 103.864 186.779 103.608C187.078 103.309 187.249 102.84 187.291 102.2L187.355 101.56L181.019 101.496C176.923 101.496 174.299 101.603 173.147 101.816C172.465 101.987 171.867 102.072 171.355 102.072C170.459 102.072 169.841 101.624 169.499 100.728C169.329 100.344 169.243 99.9387 169.243 99.512C169.243 98.744 169.606 98.1893 170.331 97.848C171.355 97.3787 173.83 97.0373 177.755 96.824ZM235.905 78.712C236.289 78.2853 236.737 78.072 237.249 78.072C237.676 78.072 238.145 78.2 238.657 78.456C239.297 78.7547 239.681 79.3093 239.809 80.12C239.852 80.2907 239.873 80.632 239.873 81.144C239.873 81.912 239.809 82.9147 239.681 84.152C239.639 84.536 239.617 85.1547 239.617 86.008C239.617 88.568 239.98 91.5973 240.705 95.096C240.833 95.736 241.047 96.0773 241.345 96.12L241.985 96.184L243.777 96.056C246.721 95.7147 248.684 95.544 249.665 95.544C250.817 95.6293 251.543 95.864 251.841 96.248C252.097 96.5467 252.225 96.888 252.225 97.272C252.225 97.7413 251.991 98.2107 251.521 98.68C251.095 99.1067 250.497 99.4053 249.729 99.576L247.937 99.96C247.468 100.131 246.849 100.237 246.081 100.28C244.332 100.451 242.711 100.707 241.217 101.048C240.919 101.091 240.663 101.773 240.449 103.096C240.236 104.376 240.044 106.637 239.873 109.88C239.831 111.459 239.703 112.44 239.489 112.824C239.319 113.251 238.871 113.464 238.145 113.464C236.951 113.464 236.119 112.824 235.649 111.544C235.393 110.776 235.265 109.752 235.265 108.472C235.265 107.533 235.329 106.424 235.457 105.144C235.585 103.864 235.649 102.413 235.649 100.792L235.585 97.784L235.521 92.792C235.521 92.28 235.436 91.5333 235.265 90.552C235.137 89.8267 235.031 87.9067 234.945 84.792C234.945 82.7013 234.988 81.2293 235.073 80.376C235.116 79.8213 235.393 79.2667 235.905 78.712ZM208.769 81.72C208.855 81.6773 209.196 81.656 209.793 81.656C210.647 81.656 211.692 81.72 212.929 81.848C214.209 81.9333 215.191 82.0613 215.873 82.232C217.367 82.5733 218.391 82.936 218.945 83.32C219.5 83.704 219.777 84.3227 219.777 85.176C219.777 85.6453 219.671 86.3707 219.457 87.352C218.604 90.8933 218.177 92.8133 218.177 93.112C218.177 93.6667 219.223 94.648 221.313 96.056C222.679 96.952 224.129 98.04 225.665 99.32C227.201 100.557 228.055 101.347 228.225 101.688C228.439 102.115 228.545 102.541 228.545 102.968C228.545 103.48 228.417 103.949 228.161 104.376C227.905 104.803 227.564 105.08 227.137 105.208L226.497 105.336C226.241 105.336 225.943 105.251 225.601 105.08C225.217 104.909 224.471 104.269 223.361 103.16C222.465 102.264 221.783 101.645 221.313 101.304C220.887 100.963 220.225 100.536 219.329 100.024C217.921 99.256 217.025 98.872 216.641 98.872C216.257 98.872 215.895 99.2347 215.553 99.96C215.084 101.069 214.423 102.435 213.569 104.056C212.716 105.677 212.14 106.659 211.841 107C211.287 107.555 210.689 107.832 210.049 107.832C209.495 107.832 208.94 107.597 208.385 107.128C207.916 106.744 207.745 106.253 207.873 105.656C208.044 104.973 208.577 103.715 209.473 101.88C211.18 98.4667 212.247 95.928 212.673 94.264C212.801 93.6667 213.015 92.984 213.313 92.216C213.612 91.5333 213.868 90.744 214.081 89.848C214.295 88.952 214.401 88.2267 214.401 87.672C214.401 87.2027 214.316 86.904 214.145 86.776C213.633 86.6053 212.417 86.52 210.497 86.52C209.004 86.52 207.937 86.5627 207.297 86.648C206.871 86.648 206.444 86.6693 206.017 86.712C205.079 86.712 204.417 86.5413 204.033 86.2C203.649 85.8587 203.393 85.24 203.265 84.344C203.137 83.5333 203.308 82.9573 203.777 82.616C204.289 82.2747 205.228 82.04 206.593 81.912C207.916 81.8693 208.641 81.8053 208.769 81.72Z" fill="black"/>
<defs>
<filter id="filter0_d_2076_2605" x="0" y="0" width="338" height="204" filterUnits="userSpaceOnUse" color-interpolation-filters="sRGB">
<feFlood flood-opacity="0" result="BackgroundImageFix"/>
<feColorMatrix in="SourceAlpha" type="matrix" values="0 0 0 0 0 0 0 0 0 0 0 0 0 0 0 0 0 0 127 0" result="hardAlpha"/>
<feOffset dy="4"/>
<feGaussianBlur stdDeviation="2"/>
<feComposite in2="hardAlpha" operator="out"/>
<feColorMatrix type="matrix" values="0 0 0 0 0 0 0 0 0 0 0 0 0 0 0 0 0 0 0.25 0"/>
<feBlend mode="normal" in2="BackgroundImageFix" result="effect1_dropShadow_2076_2605"/>
<feBlend mode="normal" in="SourceGraphic" in2="effect1_dropShadow_2076_2605" result="shape"/>
</filter>
<radialGradient id="paint0_radial_2076_2605" cx="0" cy="0" r="1" gradientUnits="userSpaceOnUse" gradientTransform="translate(174.5 85.5) rotate(178.824) scale(170.536 287.127)">
<stop stop-color="white"/>
<stop stop-color="#FAFAFA"/>
<stop offset="1" stop-color="#999999"/>
</radialGradient>
</defs>
</svg>
