<svg xmlns="http://www.w3.org/2000/svg" width="18" height="23" viewBox="0 0 18 23" fill="none">
  <path d="M9 4.125C7.21997 4.125 5.47991 4.65284 3.99987 5.64177C2.51983 6.63071 1.36628 8.03631 0.685088 9.68085C0.00389957 11.3254 -0.17433 13.135 0.172937 14.8808C0.520204 16.6266 1.37737 18.2303 2.63604 19.489C3.89472 20.7476 5.49836 21.6048 7.24419 21.9521C8.99002 22.2993 10.7996 22.1211 12.4442 21.4399C14.0887 20.7587 15.4943 19.6052 16.4832 18.1251C17.4722 16.6451 18 14.905 18 13.125C17.9973 10.7389 17.0482 8.45129 15.361 6.76405C13.6737 5.07682 11.3861 4.12773 9 4.125ZM9 19.875C7.66498 19.875 6.35994 19.4791 5.2499 18.7374C4.13987 17.9957 3.27471 16.9415 2.76382 15.7081C2.25293 14.4747 2.11925 13.1175 2.3797 11.8081C2.64015 10.4988 3.28303 9.29603 4.22703 8.35203C5.17104 7.40803 6.37377 6.76515 7.68314 6.5047C8.99252 6.24425 10.3497 6.37792 11.5831 6.88881C12.8165 7.39971 13.8707 8.26487 14.6124 9.3749C15.3541 10.4849 15.75 11.79 15.75 13.125C15.748 14.9146 15.0362 16.6303 13.7708 17.8958C12.5053 19.1612 10.7896 19.873 9 19.875ZM12.4209 9.32906C12.5258 9.43358 12.609 9.55777 12.6658 9.69452C12.7226 9.83126 12.7518 9.97787 12.7518 10.1259C12.7518 10.274 12.7226 10.4206 12.6658 10.5574C12.609 10.6941 12.5258 10.8183 12.4209 10.9228L9.79594 13.5478C9.5846 13.7592 9.29795 13.8779 8.99907 13.8779C8.70018 13.8779 8.41354 13.7592 8.20219 13.5478C7.99085 13.3365 7.87212 13.0498 7.87212 12.7509C7.87212 12.4521 7.99085 12.1654 8.20219 11.9541L10.8272 9.32906C10.9317 9.22418 11.0559 9.14097 11.1926 9.08419C11.3294 9.0274 11.476 8.99818 11.6241 8.99818C11.7721 8.99818 11.9187 9.0274 12.0555 9.08419C12.1922 9.14097 12.3164 9.22418 12.4209 9.32906ZM5.625 1.5C5.625 1.20163 5.74353 0.915483 5.95451 0.704505C6.16549 0.493526 6.45164 0.375 6.75 0.375H11.25C11.5484 0.375 11.8345 0.493526 12.0455 0.704505C12.2565 0.915483 12.375 1.20163 12.375 1.5C12.375 1.79837 12.2565 2.08452 12.0455 2.2955C11.8345 2.50647 11.5484 2.625 11.25 2.625H6.75C6.45164 2.625 6.16549 2.50647 5.95451 2.2955C5.74353 2.08452 5.625 1.79837 5.625 1.5Z" fill="white"/>
</svg>