
<svg width="410" height="353" viewBox="0 0 410 353" fill="none" xmlns="http://www.w3.org/2000/svg">
<mask id="path-1-outside-1_531_1083" maskUnits="userSpaceOnUse" x="-1" y="0" width="411" height="353" fill="black">
<rect fill="white" x="-1" width="411" height="353"/>
<path d="M77.739 102.93C77.739 99.0792 80.8668 95.9571 84.7253 95.9571H397.014V264.016H77.739V102.93Z"/>
<path d="M118.958 276.569H401.205V312.133C401.205 313.673 399.954 314.922 398.411 314.922H118.958V276.569Z"/>
<path d="M189.52 95.9571C189.52 90.1801 194.212 85.4969 200 85.4969H203.493C209.28 85.4969 213.972 90.1801 213.972 95.9571H189.52Z"/>
<path d="M134.328 6C132.399 6 130.835 7.56105 130.835 9.48671C130.835 11.4124 132.399 12.9734 134.328 12.9734H137.123V95.9571H171.356V12.9734H174.15C176.079 12.9734 177.643 11.4124 177.643 9.48671C177.643 7.56105 176.079 6 174.15 6H134.328Z"/>
<path d="M42.1087 264.016C42.1087 239.753 61.8144 220.084 86.1225 220.084H118.958V264.016H42.1087Z"/>
<path d="M21.821 278.164C22.2832 277.19 23.2666 276.569 24.3466 276.569H118.958V314.922H8.79791C6.74657 314.922 5.39433 312.79 6.27225 310.939L21.821 278.164Z"/>
<path fill-rule="evenodd" clip-rule="evenodd" d="M298.507 49.2352C296.192 49.2352 294.315 51.1084 294.315 53.4192C294.315 55.73 296.192 57.6033 298.507 57.6033H299.904V95.9571H397.014V57.6033H398.411C400.726 57.6033 402.603 55.73 402.603 53.4192C402.603 51.1084 400.726 49.2352 398.411 49.2352H298.507ZM308.287 65.274H388.63V88.2863H308.287V65.274Z"/>
<path d="M368.37 266.806C368.37 265.265 369.621 264.016 371.164 264.016H401.205C402.749 264.016 404 265.265 404 266.806V273.779C404 275.32 402.749 276.569 401.205 276.569H371.164C369.621 276.569 368.37 275.32 368.37 273.779V266.806Z"/>
<path d="M368.37 247.28C368.37 245.74 369.621 244.491 371.164 244.491H401.205C402.749 244.491 404 245.74 404 247.28V254.254C404 255.794 402.749 257.043 401.205 257.043H371.164C369.621 257.043 368.37 255.794 368.37 254.254V247.28Z"/>
<path d="M368.37 185.217C368.37 183.676 369.621 182.427 371.164 182.427H401.205C402.749 182.427 404 183.676 404 185.217V192.19C404 193.731 402.749 194.98 401.205 194.98H371.164C369.621 194.98 368.37 193.731 368.37 192.19V185.217Z"/>
<path d="M30.9306 266.806C30.9306 265.265 32.1818 264.016 33.7252 264.016H315.274V276.569H30.9306V266.806Z"/>
<path d="M100.095 116.18H372.562V235.425H100.095V116.18Z"/>
<path d="M116.862 310.041C116.862 328.142 102.161 342.816 84.0266 342.816C65.892 342.816 51.191 328.142 51.191 310.041C51.191 291.94 65.892 277.266 84.0266 277.266C102.161 277.266 116.862 291.94 116.862 310.041Z"/>
<path fill-rule="evenodd" clip-rule="evenodd" d="M121.054 310.041C121.054 330.453 104.476 347 84.0266 347C63.5769 347 46.9992 330.453 46.9992 310.041C46.9992 289.629 63.5769 273.082 84.0266 273.082C104.476 273.082 121.054 289.629 121.054 310.041ZM84.0266 342.816C102.161 342.816 116.862 328.142 116.862 310.041C116.862 291.94 102.161 277.266 84.0266 277.266C65.892 277.266 51.191 291.94 51.191 310.041C51.191 328.142 65.892 342.816 84.0266 342.816Z"/>
<path fill-rule="evenodd" clip-rule="evenodd" d="M116.862 310.041C116.862 328.142 102.161 342.816 84.0266 342.816C65.892 342.816 51.191 328.142 51.191 310.041C51.191 291.94 65.892 277.266 84.0266 277.266C102.161 277.266 116.862 291.94 116.862 310.041ZM80.5334 335.609V322.827C78.2915 322.218 76.2856 321.037 74.6827 319.452L63.5913 325.844C67.646 331.06 73.6612 334.682 80.5334 335.609ZM60.0932 319.807L71.1866 313.414C70.9033 312.337 70.7525 311.207 70.7525 310.041C70.7525 308.875 70.9033 307.745 71.1866 306.668L60.0932 300.275C58.8581 303.287 58.1773 306.585 58.1773 310.041C58.1773 313.497 58.8581 316.795 60.0932 319.807ZM63.5912 294.238L74.6827 300.63C76.2856 299.044 78.2915 297.864 80.5334 297.255V284.473C73.6611 285.4 67.646 289.022 63.5912 294.238ZM104.462 325.844C100.407 331.06 94.392 334.682 87.5197 335.609V322.827C89.7616 322.218 91.7674 321.037 93.3704 319.452L104.462 325.844ZM107.96 319.807L96.8664 313.414C97.1497 312.337 97.3005 311.207 97.3005 310.041C97.3005 308.875 97.1497 307.745 96.8665 306.668L107.96 300.275C109.195 303.287 109.876 306.585 109.876 310.041C109.876 313.497 109.195 316.795 107.96 319.807ZM104.462 294.238L93.3704 300.63C91.7675 299.044 89.7616 297.864 87.5197 297.255V284.473C94.392 285.399 100.407 289.022 104.462 294.238ZM90.3143 310.041C90.3143 313.507 87.4992 316.317 84.0266 316.317C80.554 316.317 77.739 313.507 77.739 310.041C77.739 306.575 80.554 303.765 84.0266 303.765C87.4992 303.765 90.3143 306.575 90.3143 310.041Z"/>
<path d="M265.311 298.883C265.311 322.449 246.172 341.553 222.563 341.553C198.954 341.553 179.814 322.449 179.814 298.883C179.814 275.318 198.954 256.214 222.563 256.214C246.172 256.214 265.311 275.318 265.311 298.883Z"/>
<path fill-rule="evenodd" clip-rule="evenodd" d="M270.768 298.883C270.768 325.457 249.186 347 222.563 347C195.94 347 174.357 325.457 174.357 298.883C174.357 272.309 195.94 250.767 222.563 250.767C249.186 250.767 270.768 272.309 270.768 298.883ZM222.563 341.553C246.172 341.553 265.311 322.449 265.311 298.883C265.311 275.318 246.172 256.214 222.563 256.214C198.954 256.214 179.814 275.318 179.814 298.883C179.814 322.449 198.954 341.553 222.563 341.553Z"/>
<path fill-rule="evenodd" clip-rule="evenodd" d="M265.311 298.883C265.311 322.449 246.172 341.553 222.563 341.553C198.954 341.553 179.814 322.449 179.814 298.883C179.814 275.318 198.954 256.214 222.563 256.214C246.172 256.214 265.311 275.318 265.311 298.883ZM218.015 332.17V315.529C215.096 314.737 212.485 313.2 210.398 311.135L195.958 319.457C201.237 326.248 209.068 330.964 218.015 332.17ZM191.404 311.598L205.847 303.275C205.478 301.873 205.282 300.401 205.282 298.883C205.282 297.366 205.478 295.894 205.847 294.492L191.404 286.169C189.796 290.091 188.91 294.384 188.91 298.883C188.91 303.383 189.796 307.676 191.404 311.598ZM195.958 278.31L210.398 286.631C212.485 284.567 215.096 283.03 218.015 282.238V265.597C209.068 266.803 201.237 271.519 195.958 278.31ZM249.167 319.457C243.889 326.248 236.057 330.964 227.11 332.17V315.529C230.029 314.737 232.641 313.2 234.728 311.135L249.167 319.457ZM253.721 311.598L239.279 303.275C239.648 301.873 239.844 300.401 239.844 298.883C239.844 297.366 239.648 295.894 239.279 294.492L253.721 286.169C255.329 290.091 256.216 294.384 256.216 298.883C256.216 303.383 255.329 307.676 253.721 311.598ZM249.167 278.31L234.727 286.632C232.641 284.567 230.029 283.03 227.11 282.238V265.597C236.057 266.803 243.889 271.519 249.167 278.31ZM230.749 298.884C230.749 303.396 227.084 307.054 222.563 307.054C218.042 307.054 214.377 303.396 214.377 298.884C214.377 294.371 218.042 290.713 222.563 290.713C227.084 290.713 230.749 294.371 230.749 298.884Z"/>
<path d="M387.507 298.883C387.507 322.449 368.368 341.553 344.758 341.553C321.149 341.553 302.01 322.449 302.01 298.883C302.01 275.318 321.149 256.214 344.758 256.214C368.368 256.214 387.507 275.318 387.507 298.883Z"/>
<path fill-rule="evenodd" clip-rule="evenodd" d="M392.964 298.883C392.964 325.457 371.382 347 344.758 347C318.135 347 296.553 325.457 296.553 298.883C296.553 272.309 318.135 250.767 344.758 250.767C371.382 250.767 392.964 272.309 392.964 298.883ZM344.758 341.553C368.368 341.553 387.507 322.449 387.507 298.883C387.507 275.318 368.368 256.214 344.758 256.214C321.149 256.214 302.01 275.318 302.01 298.883C302.01 322.449 321.149 341.553 344.758 341.553Z"/>
<path fill-rule="evenodd" clip-rule="evenodd" d="M387.507 298.883C387.507 322.449 368.368 341.553 344.758 341.553C321.149 341.553 302.01 322.449 302.01 298.883C302.01 275.318 321.149 256.214 344.758 256.214C368.368 256.214 387.507 275.318 387.507 298.883ZM340.211 332.17V315.529C337.292 314.737 334.681 313.2 332.594 311.135L318.154 319.457C323.433 326.248 331.264 330.964 340.211 332.17ZM313.6 311.598L328.042 303.275C327.674 301.873 327.477 300.401 327.477 298.883C327.477 297.366 327.674 295.894 328.042 294.492L313.6 286.169C311.992 290.09 311.105 294.384 311.105 298.883C311.105 303.383 311.992 307.676 313.6 311.598ZM318.154 278.31L332.594 286.631C334.681 284.567 337.292 283.03 340.211 282.238V265.597C331.264 266.803 323.433 271.519 318.154 278.31ZM371.363 319.456C366.084 326.248 358.253 330.964 349.306 332.17V315.529C352.225 314.737 354.836 313.2 356.923 311.135L371.363 319.456ZM375.917 311.598L361.475 303.275C361.843 301.873 362.04 300.401 362.04 298.883C362.04 297.366 361.843 295.894 361.475 294.492L375.917 286.169C377.525 290.091 378.411 294.384 378.411 298.883C378.411 303.383 377.525 307.676 375.917 311.598ZM371.363 278.31L356.923 286.632C354.836 284.567 352.225 283.03 349.306 282.238V265.597C358.253 266.803 366.084 271.519 371.363 278.31ZM352.944 298.884C352.944 303.396 349.28 307.054 344.759 307.054C340.238 307.054 336.573 303.396 336.573 298.884C336.573 294.371 340.238 290.713 344.759 290.713C349.28 290.713 352.944 294.371 352.944 298.884Z"/>
</mask>
<path d="M77.739 102.93C77.739 99.0792 80.8668 95.9571 84.7253 95.9571H397.014V264.016H77.739V102.93Z" fill="#222222"/>
<path d="M118.958 276.569H401.205V312.133C401.205 313.673 399.954 314.922 398.411 314.922H118.958V276.569Z" fill="#F2353C"/>
<path d="M189.52 95.9571C189.52 90.1801 194.212 85.4969 200 85.4969H203.493C209.28 85.4969 213.972 90.1801 213.972 95.9571H189.52Z" fill="#E7C36F"/>
<path d="M134.328 6C132.399 6 130.835 7.56105 130.835 9.48671C130.835 11.4124 132.399 12.9734 134.328 12.9734H137.123V95.9571H171.356V12.9734H174.15C176.079 12.9734 177.643 11.4124 177.643 9.48671C177.643 7.56105 176.079 6 174.15 6H134.328Z" fill="#E7C36F"/>
<path d="M42.1087 264.016C42.1087 239.753 61.8144 220.084 86.1225 220.084H118.958V264.016H42.1087Z" fill="#222222"/>
<path d="M21.821 278.164C22.2832 277.19 23.2666 276.569 24.3466 276.569H118.958V314.922H8.79791C6.74657 314.922 5.39433 312.79 6.27225 310.939L21.821 278.164Z" fill="#F2353C"/>
<path fill-rule="evenodd" clip-rule="evenodd" d="M298.507 49.2352C296.192 49.2352 294.315 51.1084 294.315 53.4192C294.315 55.73 296.192 57.6033 298.507 57.6033H299.904V95.9571H397.014V57.6033H398.411C400.726 57.6033 402.603 55.73 402.603 53.4192C402.603 51.1084 400.726 49.2352 398.411 49.2352H298.507ZM308.287 65.274H388.63V88.2863H308.287V65.274Z" fill="#E7C36F"/>
<path d="M368.37 266.806C368.37 265.265 369.621 264.016 371.164 264.016H401.205C402.749 264.016 404 265.265 404 266.806V273.779C404 275.32 402.749 276.569 401.205 276.569H371.164C369.621 276.569 368.37 275.32 368.37 273.779V266.806Z" fill="#E7C36F"/>
<path d="M368.37 247.28C368.37 245.74 369.621 244.491 371.164 244.491H401.205C402.749 244.491 404 245.74 404 247.28V254.254C404 255.794 402.749 257.043 401.205 257.043H371.164C369.621 257.043 368.37 255.794 368.37 254.254V247.28Z" fill="#E7C36F"/>
<path d="M368.37 185.217C368.37 183.676 369.621 182.427 371.164 182.427H401.205C402.749 182.427 404 183.676 404 185.217V192.19C404 193.731 402.749 194.98 401.205 194.98H371.164C369.621 194.98 368.37 193.731 368.37 192.19V185.217Z" fill="#E7C36F"/>
<path d="M30.9306 266.806C30.9306 265.265 32.1818 264.016 33.7252 264.016H315.274V276.569H30.9306V266.806Z" fill="#E7C36F"/>
<path d="M100.095 116.18H372.562V235.425H100.095V116.18Z" fill="white"/>
<path d="M116.862 310.041C116.862 328.142 102.161 342.816 84.0266 342.816C65.892 342.816 51.191 328.142 51.191 310.041C51.191 291.94 65.892 277.266 84.0266 277.266C102.161 277.266 116.862 291.94 116.862 310.041Z" fill="#615435"/>
<path fill-rule="evenodd" clip-rule="evenodd" d="M121.054 310.041C121.054 330.453 104.476 347 84.0266 347C63.5769 347 46.9992 330.453 46.9992 310.041C46.9992 289.629 63.5769 273.082 84.0266 273.082C104.476 273.082 121.054 289.629 121.054 310.041ZM84.0266 342.816C102.161 342.816 116.862 328.142 116.862 310.041C116.862 291.94 102.161 277.266 84.0266 277.266C65.892 277.266 51.191 291.94 51.191 310.041C51.191 328.142 65.892 342.816 84.0266 342.816Z" fill="#CDAC60"/>
<path fill-rule="evenodd" clip-rule="evenodd" d="M116.862 310.041C116.862 328.142 102.161 342.816 84.0266 342.816C65.892 342.816 51.191 328.142 51.191 310.041C51.191 291.94 65.892 277.266 84.0266 277.266C102.161 277.266 116.862 291.94 116.862 310.041ZM80.5334 335.609V322.827C78.2915 322.218 76.2856 321.037 74.6827 319.452L63.5913 325.844C67.646 331.06 73.6612 334.682 80.5334 335.609ZM60.0932 319.807L71.1866 313.414C70.9033 312.337 70.7525 311.207 70.7525 310.041C70.7525 308.875 70.9033 307.745 71.1866 306.668L60.0932 300.275C58.8581 303.287 58.1773 306.585 58.1773 310.041C58.1773 313.497 58.8581 316.795 60.0932 319.807ZM63.5912 294.238L74.6827 300.63C76.2856 299.044 78.2915 297.864 80.5334 297.255V284.473C73.6611 285.4 67.646 289.022 63.5912 294.238ZM104.462 325.844C100.407 331.06 94.392 334.682 87.5197 335.609V322.827C89.7616 322.218 91.7674 321.037 93.3704 319.452L104.462 325.844ZM107.96 319.807L96.8664 313.414C97.1497 312.337 97.3005 311.207 97.3005 310.041C97.3005 308.875 97.1497 307.745 96.8665 306.668L107.96 300.275C109.195 303.287 109.876 306.585 109.876 310.041C109.876 313.497 109.195 316.795 107.96 319.807ZM104.462 294.238L93.3704 300.63C91.7675 299.044 89.7616 297.864 87.5197 297.255V284.473C94.392 285.399 100.407 289.022 104.462 294.238ZM90.3143 310.041C90.3143 313.507 87.4992 316.317 84.0266 316.317C80.554 316.317 77.739 313.507 77.739 310.041C77.739 306.575 80.554 303.765 84.0266 303.765C87.4992 303.765 90.3143 306.575 90.3143 310.041Z" fill="#E7C36F"/>
<path d="M265.311 298.883C265.311 322.449 246.172 341.553 222.563 341.553C198.954 341.553 179.814 322.449 179.814 298.883C179.814 275.318 198.954 256.214 222.563 256.214C246.172 256.214 265.311 275.318 265.311 298.883Z" fill="#615435"/>
<path fill-rule="evenodd" clip-rule="evenodd" d="M270.768 298.883C270.768 325.457 249.186 347 222.563 347C195.94 347 174.357 325.457 174.357 298.883C174.357 272.309 195.94 250.767 222.563 250.767C249.186 250.767 270.768 272.309 270.768 298.883ZM222.563 341.553C246.172 341.553 265.311 322.449 265.311 298.883C265.311 275.318 246.172 256.214 222.563 256.214C198.954 256.214 179.814 275.318 179.814 298.883C179.814 322.449 198.954 341.553 222.563 341.553Z" fill="#CDAC60"/>
<path fill-rule="evenodd" clip-rule="evenodd" d="M265.311 298.883C265.311 322.449 246.172 341.553 222.563 341.553C198.954 341.553 179.814 322.449 179.814 298.883C179.814 275.318 198.954 256.214 222.563 256.214C246.172 256.214 265.311 275.318 265.311 298.883ZM218.015 332.17V315.529C215.096 314.737 212.485 313.2 210.398 311.135L195.958 319.457C201.237 326.248 209.068 330.964 218.015 332.17ZM191.404 311.598L205.847 303.275C205.478 301.873 205.282 300.401 205.282 298.883C205.282 297.366 205.478 295.894 205.847 294.492L191.404 286.169C189.796 290.091 188.91 294.384 188.91 298.883C188.91 303.383 189.796 307.676 191.404 311.598ZM195.958 278.31L210.398 286.631C212.485 284.567 215.096 283.03 218.015 282.238V265.597C209.068 266.803 201.237 271.519 195.958 278.31ZM249.167 319.457C243.889 326.248 236.057 330.964 227.11 332.17V315.529C230.029 314.737 232.641 313.2 234.728 311.135L249.167 319.457ZM253.721 311.598L239.279 303.275C239.648 301.873 239.844 300.401 239.844 298.883C239.844 297.366 239.648 295.894 239.279 294.492L253.721 286.169C255.329 290.091 256.216 294.384 256.216 298.883C256.216 303.383 255.329 307.676 253.721 311.598ZM249.167 278.31L234.727 286.632C232.641 284.567 230.029 283.03 227.11 282.238V265.597C236.057 266.803 243.889 271.519 249.167 278.31ZM230.749 298.884C230.749 303.396 227.084 307.054 222.563 307.054C218.042 307.054 214.377 303.396 214.377 298.884C214.377 294.371 218.042 290.713 222.563 290.713C227.084 290.713 230.749 294.371 230.749 298.884Z" fill="#E7C36F"/>
<path d="M387.507 298.883C387.507 322.449 368.368 341.553 344.758 341.553C321.149 341.553 302.01 322.449 302.01 298.883C302.01 275.318 321.149 256.214 344.758 256.214C368.368 256.214 387.507 275.318 387.507 298.883Z" fill="#615435"/>
<path fill-rule="evenodd" clip-rule="evenodd" d="M392.964 298.883C392.964 325.457 371.382 347 344.758 347C318.135 347 296.553 325.457 296.553 298.883C296.553 272.309 318.135 250.767 344.758 250.767C371.382 250.767 392.964 272.309 392.964 298.883ZM344.758 341.553C368.368 341.553 387.507 322.449 387.507 298.883C387.507 275.318 368.368 256.214 344.758 256.214C321.149 256.214 302.01 275.318 302.01 298.883C302.01 322.449 321.149 341.553 344.758 341.553Z" fill="#CDAC60"/>
<path fill-rule="evenodd" clip-rule="evenodd" d="M387.507 298.883C387.507 322.449 368.368 341.553 344.758 341.553C321.149 341.553 302.01 322.449 302.01 298.883C302.01 275.318 321.149 256.214 344.758 256.214C368.368 256.214 387.507 275.318 387.507 298.883ZM340.211 332.17V315.529C337.292 314.737 334.681 313.2 332.594 311.135L318.154 319.457C323.433 326.248 331.264 330.964 340.211 332.17ZM313.6 311.598L328.042 303.275C327.674 301.873 327.477 300.401 327.477 298.883C327.477 297.366 327.674 295.894 328.042 294.492L313.6 286.169C311.992 290.09 311.105 294.384 311.105 298.883C311.105 303.383 311.992 307.676 313.6 311.598ZM318.154 278.31L332.594 286.631C334.681 284.567 337.292 283.03 340.211 282.238V265.597C331.264 266.803 323.433 271.519 318.154 278.31ZM371.363 319.456C366.084 326.248 358.253 330.964 349.306 332.17V315.529C352.225 314.737 354.836 313.2 356.923 311.135L371.363 319.456ZM375.917 311.598L361.475 303.275C361.843 301.873 362.04 300.401 362.04 298.883C362.04 297.366 361.843 295.894 361.475 294.492L375.917 286.169C377.525 290.091 378.411 294.384 378.411 298.883C378.411 303.383 377.525 307.676 375.917 311.598ZM371.363 278.31L356.923 286.632C354.836 284.567 352.225 283.03 349.306 282.238V265.597C358.253 266.803 366.084 271.519 371.363 278.31ZM352.944 298.884C352.944 303.396 349.28 307.054 344.759 307.054C340.238 307.054 336.573 303.396 336.573 298.884C336.573 294.371 340.238 290.713 344.759 290.713C349.28 290.713 352.944 294.371 352.944 298.884Z" fill="#E7C36F"/>
<path d="M121.958 314.922V276.569H115.958V314.922H121.958ZM113.862 310.041C113.862 326.48 100.51 339.816 84.0266 339.816V345.816C103.813 345.816 119.862 329.804 119.862 310.041H113.862ZM84.0266 339.816C67.5436 339.816 54.191 326.48 54.191 310.041H48.191C48.191 329.804 64.2404 345.816 84.0266 345.816V339.816ZM54.191 310.041C54.191 293.602 67.5436 280.266 84.0266 280.266V274.266C64.2404 274.266 48.191 290.278 48.191 310.041H54.191ZM84.0266 280.266C100.51 280.266 113.862 293.602 113.862 310.041H119.862C119.862 290.278 103.813 274.266 84.0266 274.266V280.266ZM262.311 298.883C262.311 320.787 244.52 338.553 222.563 338.553V344.553C247.824 344.553 268.311 324.111 268.311 298.883H262.311ZM222.563 338.553C200.605 338.553 182.814 320.787 182.814 298.883H176.814C176.814 324.111 197.302 344.553 222.563 344.553V338.553ZM182.814 298.883C182.814 276.98 200.605 259.214 222.563 259.214V253.214C197.302 253.214 176.814 273.656 176.814 298.883H182.814ZM222.563 259.214C244.52 259.214 262.311 276.98 262.311 298.883H268.311C268.311 273.656 247.824 253.214 222.563 253.214V259.214ZM384.507 298.883C384.507 320.787 366.716 338.553 344.758 338.553V344.553C370.019 344.553 390.507 324.111 390.507 298.883H384.507ZM344.758 338.553C322.801 338.553 305.01 320.787 305.01 298.883H299.01C299.01 324.111 319.497 344.553 344.758 344.553V338.553ZM305.01 298.883C305.01 276.98 322.801 259.214 344.758 259.214V253.214C319.497 253.214 299.01 273.656 299.01 298.883H305.01ZM344.758 259.214C366.716 259.214 384.507 276.98 384.507 298.883H390.507C390.507 273.656 370.019 253.214 344.758 253.214V259.214ZM397.014 264.016V270.016H403.014V264.016H397.014ZM77.739 264.016H71.739V270.016H77.739V264.016ZM213.972 95.9571V101.957H219.972V95.9571H213.972ZM189.52 95.9571H183.52V101.957H189.52V95.9571ZM137.123 12.9734H143.123V6.97341H137.123V12.9734ZM137.123 95.9571H131.123V101.957H137.123V95.9571ZM171.356 95.9571V101.957H177.356V95.9571H171.356ZM171.356 12.9734V6.97341H165.356V12.9734H171.356ZM118.958 220.084H124.958V214.084H118.958V220.084ZM118.958 264.016V270.016H124.958V264.016H118.958ZM42.1087 264.016H36.1087V270.016H42.1087V264.016ZM6.27225 310.939L11.6932 313.511L6.27225 310.939ZM21.821 278.164L16.4001 275.592L21.821 278.164ZM299.904 57.6033H305.904V51.6033H299.904V57.6033ZM299.904 95.9571H293.904V101.957H299.904V95.9571ZM397.014 57.6033V51.6033H391.014V57.6033H397.014ZM388.63 65.274H394.63V59.274H388.63V65.274ZM308.287 65.274V59.274H302.287V65.274H308.287ZM388.63 88.2863V94.2863H394.63V88.2863H388.63ZM308.287 88.2863H302.287V94.2863H308.287V88.2863ZM315.274 264.016H321.274V258.016H315.274V264.016ZM315.274 276.569V282.569H321.274V276.569H315.274ZM30.9306 276.569H24.9306V282.569H30.9306V276.569ZM100.095 116.18V110.18H94.0952V116.18H100.095ZM372.562 116.18H378.562V110.18H372.562V116.18ZM372.562 235.425V241.425H378.562V235.425H372.562ZM100.095 235.425H94.0952V241.425H100.095V235.425ZM80.5334 335.609L79.7316 341.555L86.5334 342.472V335.609H80.5334ZM80.5334 322.827H86.5334V318.239L82.1057 317.036L80.5334 322.827ZM74.6827 319.452L78.9024 315.186L75.6503 311.969L71.6869 314.253L74.6827 319.452ZM63.5913 325.844L60.5955 320.645L54.6254 324.085L58.8541 329.526L63.5913 325.844ZM60.0932 319.807L54.5417 322.083L57.1445 328.432L63.0891 325.006L60.0932 319.807ZM71.1866 313.414L74.1824 318.613L78.1556 316.323L76.9893 311.888L71.1866 313.414ZM71.1866 306.668L76.9893 308.194L78.1556 303.759L74.1824 301.469L71.1866 306.668ZM60.0932 300.275L63.0891 295.076L57.1445 291.65L54.5417 297.999L60.0932 300.275ZM63.5912 294.238L58.854 290.556L54.6253 295.996L60.5954 299.437L63.5912 294.238ZM74.6827 300.63L71.6868 305.829L75.6503 308.113L78.9024 304.896L74.6827 300.63ZM80.5334 297.255L82.1057 303.045L86.5334 301.843V297.255H80.5334ZM80.5334 284.473H86.5334V277.609L79.7316 278.527L80.5334 284.473ZM87.5197 335.609H81.5197V342.472L88.3214 341.555L87.5197 335.609ZM104.462 325.844L109.199 329.526L113.428 324.086L107.458 320.645L104.462 325.844ZM87.5197 322.827L85.9473 317.036L81.5197 318.239V322.827H87.5197ZM93.3704 319.452L96.3662 314.253L92.4027 311.969L89.1507 315.186L93.3704 319.452ZM96.8664 313.414L91.0638 311.888L89.8974 316.323L93.8706 318.613L96.8664 313.414ZM107.96 319.807L104.964 325.006L110.909 328.432L113.512 322.083L107.96 319.807ZM96.8665 306.668L93.8706 301.469L89.8975 303.759L91.0638 308.194L96.8665 306.668ZM107.96 300.275L113.512 297.998L110.909 291.65L104.964 295.076L107.96 300.275ZM93.3704 300.63L89.1507 304.896L92.4028 308.113L96.3663 305.829L93.3704 300.63ZM104.462 294.238L107.458 299.437L113.428 295.996L109.199 290.556L104.462 294.238ZM87.5197 297.255H81.5197V301.843L85.9473 303.045L87.5197 297.255ZM87.5197 284.473L88.3214 278.527L81.5197 277.61V284.473H87.5197ZM218.015 332.17L217.213 338.116L224.015 339.033V332.17H218.015ZM218.015 315.529H224.015V310.941L219.587 309.739L218.015 315.529ZM210.398 311.135L214.618 306.87L211.366 303.653L207.402 305.937L210.398 311.135ZM195.958 319.457L192.962 314.258L186.992 317.699L191.221 323.139L195.958 319.457ZM191.404 311.598L185.853 313.874L188.455 320.222L194.4 316.797L191.404 311.598ZM205.847 303.275L208.842 308.474L212.816 306.184L211.649 301.749L205.847 303.275ZM205.847 294.492L211.649 296.018L212.816 291.583L208.843 289.293L205.847 294.492ZM191.404 286.169L194.4 280.97L188.456 277.544L185.853 283.892L191.404 286.169ZM195.958 278.31L191.221 274.628L186.992 280.068L192.962 283.509L195.958 278.31ZM210.398 286.631L207.402 291.83L211.366 294.114L214.618 290.897L210.398 286.631ZM218.015 282.238L219.587 288.028L224.015 286.826V282.238H218.015ZM218.015 265.597H224.015V258.733L217.213 259.65L218.015 265.597ZM227.11 332.17H221.11V339.033L227.912 338.116L227.11 332.17ZM249.167 319.457L253.905 323.139L258.133 317.698L252.163 314.258L249.167 319.457ZM227.11 315.529L225.538 309.739L221.11 310.941V315.529H227.11ZM234.728 311.135L237.723 305.937L233.76 303.652L230.508 306.87L234.728 311.135ZM239.279 303.275L233.476 301.749L232.31 306.184L236.283 308.474L239.279 303.275ZM253.721 311.598L250.726 316.796L256.67 320.222L259.273 313.874L253.721 311.598ZM239.279 294.492L236.283 289.293L232.31 291.583L233.476 296.018L239.279 294.492ZM253.721 286.169L259.273 283.893L256.67 277.544L250.726 280.97L253.721 286.169ZM234.727 286.632L230.508 290.897L233.76 294.114L237.723 291.83L234.727 286.632ZM249.167 278.31L252.163 283.509L258.133 280.068L253.905 274.628L249.167 278.31ZM227.11 282.238H221.11V286.826L225.538 288.028L227.11 282.238ZM227.11 265.597L227.912 259.65L221.11 258.733V265.597H227.11ZM340.211 332.17L339.409 338.116L346.211 339.033V332.17H340.211ZM340.211 315.529H346.211V310.941L341.783 309.739L340.211 315.529ZM332.594 311.135L336.814 306.87L333.561 303.653L329.598 305.937L332.594 311.135ZM318.154 319.457L315.158 314.258L309.188 317.699L313.417 323.139L318.154 319.457ZM313.6 311.598L308.048 313.874L310.651 320.222L316.596 316.797L313.6 311.598ZM328.042 303.275L331.038 308.474L335.011 306.184L333.845 301.749L328.042 303.275ZM328.042 294.492L333.845 296.018L335.011 291.583L331.038 289.293L328.042 294.492ZM313.6 286.169L316.596 280.97L310.651 277.544L308.048 283.892L313.6 286.169ZM318.154 278.31L313.417 274.628L309.188 280.068L315.158 283.508L318.154 278.31ZM332.594 286.631L329.598 291.83L333.562 294.114L336.814 290.897L332.594 286.631ZM340.211 282.238L341.783 288.028L346.211 286.826V282.238H340.211ZM340.211 265.597H346.211V258.733L339.409 259.65L340.211 265.597ZM349.306 332.17H343.306V339.033L350.108 338.116L349.306 332.17ZM371.363 319.456L376.1 323.139L380.329 317.698L374.359 314.258L371.363 319.456ZM349.306 315.529L347.734 309.739L343.306 310.941V315.529H349.306ZM356.923 311.135L359.919 305.937L355.956 303.652L352.704 306.87L356.923 311.135ZM361.475 303.275L355.672 301.749L354.506 306.184L358.479 308.474L361.475 303.275ZM375.917 311.598L372.921 316.796L378.866 320.222L381.469 313.874L375.917 311.598ZM361.475 294.492L358.479 289.293L354.506 291.583L355.672 296.018L361.475 294.492ZM375.917 286.169L381.469 283.893L378.866 277.544L372.921 280.97L375.917 286.169ZM356.923 286.632L352.703 290.897L355.955 294.114L359.919 291.83L356.923 286.632ZM371.363 278.31L374.359 283.509L380.329 280.068L376.1 274.628L371.363 278.31ZM349.306 282.238H343.306V286.826L347.734 288.028L349.306 282.238ZM349.306 265.597L350.108 259.65L343.306 258.733V265.597H349.306ZM84.7253 101.957H397.014V89.9571H84.7253V101.957ZM391.014 95.9571V264.016H403.014V95.9571H391.014ZM397.014 258.016H77.739V270.016H397.014V258.016ZM83.739 264.016V102.93H71.739V264.016H83.739ZM84.7253 89.9571C77.5636 89.9571 71.739 95.755 71.739 102.93H83.739C83.739 102.403 84.1701 101.957 84.7253 101.957V89.9571ZM118.958 282.569H401.205V270.569H118.958V282.569ZM395.205 276.569V312.133H407.205V276.569H395.205ZM398.411 308.922H118.958V320.922H398.411V308.922ZM395.205 312.133C395.205 310.349 396.651 308.922 398.411 308.922V320.922C403.258 320.922 407.205 316.998 407.205 312.133H395.205ZM200 91.4969H203.493V79.4969H200V91.4969ZM213.972 89.9571H189.52V101.957H213.972V89.9571ZM203.493 91.4969C205.977 91.4969 207.972 93.5042 207.972 95.9571H219.972C219.972 86.8559 212.584 79.4969 203.493 79.4969V91.4969ZM200 79.4969C190.909 79.4969 183.52 86.8559 183.52 95.9571H195.52C195.52 93.5042 197.515 91.4969 200 91.4969V79.4969ZM136.835 9.48671C136.835 10.8852 135.702 12 134.328 12V0C129.096 0 124.835 4.2369 124.835 9.48671H136.835ZM134.328 6.97341C135.702 6.97341 136.835 8.08821 136.835 9.48671H124.835C124.835 14.7365 129.096 18.9734 134.328 18.9734V6.97341ZM137.123 6.97341H134.328V18.9734H137.123V6.97341ZM143.123 95.9571V12.9734H131.123V95.9571H143.123ZM171.356 89.9571H137.123V101.957H171.356V89.9571ZM165.356 12.9734V95.9571H177.356V12.9734H165.356ZM174.15 6.97341H171.356V18.9734H174.15V6.97341ZM171.643 9.48671C171.643 8.08822 172.776 6.97341 174.15 6.97341V18.9734C179.383 18.9734 183.643 14.7365 183.643 9.48671H171.643ZM174.15 12C172.776 12 171.643 10.8852 171.643 9.48671H183.643C183.643 4.23691 179.383 0 174.15 0V12ZM134.328 12H174.15V0H134.328V12ZM86.1225 226.084H118.958V214.084H86.1225V226.084ZM112.958 220.084V264.016H124.958V220.084H112.958ZM118.958 258.016H42.1087V270.016H118.958V258.016ZM86.1225 214.084C58.5111 214.084 36.1087 236.429 36.1087 264.016H48.1087C48.1087 243.077 65.1176 226.084 86.1225 226.084V214.084ZM24.3466 282.569H118.958V270.569H24.3466V282.569ZM118.958 308.922H8.79791V320.922H118.958V308.922ZM11.6932 313.511L27.2419 280.736L16.4001 275.592L0.85134 308.367L11.6932 313.511ZM8.79791 308.922C11.1349 308.922 12.7115 311.364 11.6932 313.511L0.85134 308.367C-1.92284 314.215 2.35823 320.922 8.79791 320.922V308.922ZM24.3466 270.569C20.9537 270.569 17.8575 272.52 16.4001 275.592L27.2419 280.736C26.7089 281.859 25.5794 282.569 24.3466 282.569V270.569ZM300.315 53.4192C300.315 54.4326 299.495 55.2352 298.507 55.2352V43.2352C292.888 43.2352 288.315 47.7843 288.315 53.4192H300.315ZM298.507 51.6033C299.495 51.6033 300.315 52.4059 300.315 53.4192H288.315C288.315 59.0541 292.888 63.6033 298.507 63.6033V51.6033ZM299.904 51.6033H298.507V63.6033H299.904V51.6033ZM293.904 57.6033V95.9571H305.904V57.6033H293.904ZM299.904 101.957H397.014V89.9571H299.904V101.957ZM403.014 95.9571V57.6033H391.014V95.9571H403.014ZM398.411 51.6033H397.014V63.6033H398.411V51.6033ZM396.603 53.4192C396.603 52.4059 397.423 51.6033 398.411 51.6033V63.6033C404.029 63.6033 408.603 59.0541 408.603 53.4192H396.603ZM398.411 55.2352C397.423 55.2352 396.603 54.4326 396.603 53.4192H408.603C408.603 47.7843 404.029 43.2352 398.411 43.2352V55.2352ZM298.507 55.2352H398.411V43.2352H298.507V55.2352ZM388.63 59.274H308.287V71.274H388.63V59.274ZM394.63 88.2863V65.274H382.63V88.2863H394.63ZM308.287 94.2863H388.63V82.2863H308.287V94.2863ZM302.287 65.274V88.2863H314.287V65.274H302.287ZM371.164 270.016H401.205V258.016H371.164V270.016ZM398 266.806V273.779H410V266.806H398ZM401.205 270.569H371.164V282.569H401.205V270.569ZM374.37 273.779V266.806H362.37V273.779H374.37ZM371.164 270.569C372.924 270.569 374.37 271.996 374.37 273.779H362.37C362.37 278.644 366.318 282.569 371.164 282.569V270.569ZM398 273.779C398 271.996 399.446 270.569 401.205 270.569V282.569C406.052 282.569 410 278.644 410 273.779H398ZM401.205 270.016C399.446 270.016 398 268.589 398 266.806H410C410 261.941 406.052 258.016 401.205 258.016V270.016ZM371.164 258.016C366.318 258.016 362.37 261.941 362.37 266.806H374.37C374.37 268.589 372.924 270.016 371.164 270.016V258.016ZM371.164 250.491H401.205V238.491H371.164V250.491ZM398 247.28V254.254H410V247.28H398ZM401.205 251.043H371.164V263.043H401.205V251.043ZM374.37 254.254V247.28H362.37V254.254H374.37ZM371.164 251.043C372.924 251.043 374.37 252.47 374.37 254.254H362.37C362.37 259.118 366.318 263.043 371.164 263.043V251.043ZM398 254.254C398 252.47 399.446 251.043 401.205 251.043V263.043C406.052 263.043 410 259.118 410 254.254H398ZM401.205 250.491C399.446 250.491 398 249.064 398 247.28H410C410 242.415 406.052 238.491 401.205 238.491V250.491ZM371.164 238.491C366.318 238.491 362.37 242.415 362.37 247.28H374.37C374.37 249.064 372.924 250.491 371.164 250.491V238.491ZM371.164 188.427H401.205V176.427H371.164V188.427ZM398 185.217V192.19H410V185.217H398ZM401.205 188.98H371.164V200.98H401.205V188.98ZM374.37 192.19V185.217H362.37V192.19H374.37ZM371.164 188.98C372.924 188.98 374.37 190.407 374.37 192.19H362.37C362.37 197.055 366.318 200.98 371.164 200.98V188.98ZM398 192.19C398 190.407 399.446 188.98 401.205 188.98V200.98C406.052 200.98 410 197.055 410 192.19H398ZM401.205 188.427C399.446 188.427 398 187 398 185.217H410C410 180.352 406.052 176.427 401.205 176.427V188.427ZM371.164 176.427C366.318 176.427 362.37 180.352 362.37 185.217H374.37C374.37 187 372.924 188.427 371.164 188.427V176.427ZM33.7252 270.016H315.274V258.016H33.7252V270.016ZM309.274 264.016V276.569H321.274V264.016H309.274ZM315.274 270.569H30.9306V282.569H315.274V270.569ZM36.9306 276.569V266.806H24.9306V276.569H36.9306ZM33.7252 258.016C28.8785 258.016 24.9306 261.941 24.9306 266.806H36.9306C36.9306 268.589 35.485 270.016 33.7252 270.016V258.016ZM100.095 122.18H372.562V110.18H100.095V122.18ZM366.562 116.18V235.425H378.562V116.18H366.562ZM372.562 229.425H100.095V241.425H372.562V229.425ZM106.095 235.425V116.18H94.0952V235.425H106.095ZM84.0266 353C107.78 353 127.054 333.777 127.054 310.041H115.054C115.054 327.129 101.173 341 84.0266 341V353ZM40.9992 310.041C40.9992 333.777 60.2737 353 84.0266 353V341C66.8802 341 52.9992 327.129 52.9992 310.041H40.9992ZM84.0266 267.082C60.2737 267.082 40.9992 286.305 40.9992 310.041H52.9992C52.9992 292.953 66.8802 279.082 84.0266 279.082V267.082ZM127.054 310.041C127.054 286.305 107.78 267.082 84.0266 267.082V279.082C101.173 279.082 115.054 292.953 115.054 310.041H127.054ZM86.5334 335.609V322.827H74.5334V335.609H86.5334ZM82.1057 317.036C80.886 316.705 79.7863 316.061 78.9024 315.186L70.463 323.717C72.7849 326.014 75.6969 327.731 78.961 328.617L82.1057 317.036ZM71.6869 314.253L60.5955 320.645L66.5871 331.042L77.6785 324.65L71.6869 314.253ZM58.8541 329.526C63.8419 335.943 71.2515 340.412 79.7316 341.555L81.3352 329.663C76.0708 328.953 71.4501 326.177 68.3285 322.161L58.8541 329.526ZM63.0891 325.006L74.1824 318.613L68.1908 308.216L57.0974 314.609L63.0891 325.006ZM76.9893 311.888C76.8359 311.305 76.7525 310.687 76.7525 310.041H64.7525C64.7525 311.726 64.9708 313.37 65.3839 314.94L76.9893 311.888ZM76.7525 310.041C76.7525 309.395 76.8359 308.777 76.9893 308.194L65.3839 305.142C64.9708 306.712 64.7525 308.356 64.7525 310.041H76.7525ZM74.1824 301.469L63.0891 295.076L57.0974 305.473L68.1907 311.866L74.1824 301.469ZM54.5417 297.999C53.0156 301.721 52.1773 305.79 52.1773 310.041H64.1773C64.1773 307.379 64.7006 304.854 65.6447 302.551L54.5417 297.999ZM52.1773 310.041C52.1773 314.291 53.0156 318.361 54.5417 322.083L65.6447 317.531C64.7006 315.228 64.1773 312.703 64.1773 310.041H52.1773ZM60.5954 299.437L71.6868 305.829L77.6785 295.432L66.5871 289.04L60.5954 299.437ZM78.9024 304.896C79.7863 304.021 80.886 303.376 82.1057 303.045L78.961 291.465C75.6969 292.351 72.7849 294.068 70.463 296.365L78.9024 304.896ZM86.5334 297.255V284.473H74.5334V297.255H86.5334ZM79.7316 278.527C71.2515 279.67 63.8419 284.139 58.854 290.556L68.3285 297.92C71.4501 293.904 76.0708 291.129 81.3352 290.419L79.7316 278.527ZM88.3214 341.555C96.8016 340.412 104.211 335.943 109.199 329.526L99.7247 322.161C96.6031 326.177 91.9823 328.953 86.7179 329.663L88.3214 341.555ZM81.5197 322.827V335.609H93.5197V322.827H81.5197ZM89.1507 315.186C88.2667 316.061 87.167 316.705 85.9473 317.036L89.0921 328.617C92.3561 327.731 95.2682 326.014 97.5901 323.717L89.1507 315.186ZM107.458 320.645L96.3662 314.253L90.3745 324.65L101.466 331.042L107.458 320.645ZM93.8706 318.613L104.964 325.006L110.956 314.609L99.8623 308.216L93.8706 318.613ZM91.3005 310.041C91.3005 310.687 91.2171 311.305 91.0638 311.888L102.669 314.94C103.082 313.369 103.301 311.726 103.301 310.041H91.3005ZM91.0638 308.194C91.2171 308.777 91.3005 309.395 91.3005 310.041H103.301C103.301 308.356 103.082 306.712 102.669 305.142L91.0638 308.194ZM104.964 295.076L93.8706 301.469L99.8623 311.866L110.956 305.473L104.964 295.076ZM115.876 310.041C115.876 305.79 115.038 301.721 113.512 297.998L102.409 302.551C103.353 304.854 103.876 307.379 103.876 310.041H115.876ZM113.512 322.083C115.038 318.361 115.876 314.291 115.876 310.041H103.876C103.876 312.703 103.353 315.228 102.409 317.531L113.512 322.083ZM96.3663 305.829L107.458 299.437L101.466 289.04L90.3746 295.432L96.3663 305.829ZM85.9473 303.045C87.167 303.376 88.2667 304.021 89.1507 304.896L97.5901 296.365C95.2682 294.068 92.3562 292.351 89.0921 291.465L85.9473 303.045ZM81.5197 284.473V297.255H93.5197V284.473H81.5197ZM109.199 290.556C104.211 284.139 96.8016 279.67 88.3214 278.527L86.7179 290.419C91.9823 291.129 96.6031 293.904 99.7248 297.92L109.199 290.556ZM84.0266 322.317C90.8025 322.317 96.3143 316.831 96.3143 310.041H84.3143C84.3143 310.183 84.196 310.317 84.0266 310.317V322.317ZM71.739 310.041C71.739 316.831 77.2508 322.317 84.0266 322.317V310.317C83.8573 310.317 83.739 310.183 83.739 310.041H71.739ZM84.0266 297.765C77.2508 297.765 71.739 303.251 71.739 310.041H83.739C83.739 309.899 83.8573 309.765 84.0266 309.765V297.765ZM96.3143 310.041C96.3143 303.251 90.8025 297.765 84.0266 297.765V309.765C84.196 309.765 84.3143 309.899 84.3143 310.041H96.3143ZM222.563 353C252.489 353 276.768 328.782 276.768 298.883H264.768C264.768 322.133 245.883 341 222.563 341V353ZM168.357 298.883C168.357 328.782 192.636 353 222.563 353V341C199.243 341 180.357 322.133 180.357 298.883H168.357ZM222.563 244.767C192.636 244.767 168.357 268.985 168.357 298.883H180.357C180.357 275.634 199.243 256.767 222.563 256.767V244.767ZM276.768 298.883C276.768 268.985 252.489 244.767 222.563 244.767V256.767C245.883 256.767 264.768 275.634 264.768 298.883H276.768ZM224.015 332.17V315.529H212.015V332.17H224.015ZM219.587 309.739C217.691 309.224 215.986 308.223 214.618 306.87L206.178 315.401C208.984 318.176 212.502 320.249 216.443 321.32L219.587 309.739ZM207.402 305.937L192.962 314.258L198.954 324.655L213.394 316.334L207.402 305.937ZM191.221 323.139C197.433 331.131 206.658 336.693 217.213 338.116L218.817 326.224C211.478 325.234 205.041 321.365 200.696 315.774L191.221 323.139ZM194.4 316.797L208.842 308.474L202.851 298.077L188.408 306.399L194.4 316.797ZM211.649 301.749C211.41 300.841 211.282 299.882 211.282 298.883H199.282C199.282 300.921 199.545 302.905 200.044 304.801L211.649 301.749ZM211.282 298.883C211.282 297.885 211.41 296.926 211.649 296.018L200.044 292.965C199.545 294.861 199.282 296.846 199.282 298.883H211.282ZM208.843 289.293L194.4 280.97L188.408 291.367L202.851 299.69L208.843 289.293ZM185.853 283.892C183.954 288.524 182.91 293.589 182.91 298.883H194.91C194.91 295.178 195.639 291.657 196.956 288.445L185.853 283.892ZM182.91 298.883C182.91 304.177 183.954 309.243 185.853 313.874L196.956 309.322C195.639 306.11 194.91 302.589 194.91 298.883H182.91ZM192.962 283.509L207.402 291.83L213.394 281.433L198.954 273.111L192.962 283.509ZM214.618 290.897C215.986 289.544 217.691 288.543 219.587 288.028L216.443 276.447C212.502 277.518 208.984 279.59 206.179 282.366L214.618 290.897ZM224.015 282.238V265.597H212.015V282.238H224.015ZM217.213 259.65C206.659 261.074 197.433 266.636 191.221 274.628L200.696 281.992C205.041 276.401 211.478 272.532 218.817 271.543L217.213 259.65ZM227.912 338.116C238.467 336.693 247.693 331.131 253.905 323.139L244.43 315.774C240.084 321.365 233.648 325.234 226.309 326.224L227.912 338.116ZM221.11 315.529V332.17H233.11V315.529H221.11ZM230.508 306.87C229.14 308.223 227.435 309.224 225.538 309.739L228.683 321.32C232.624 320.249 236.141 318.176 238.947 315.401L230.508 306.87ZM252.163 314.258L237.723 305.937L231.732 316.334L246.172 324.655L252.163 314.258ZM236.283 308.474L250.726 316.796L256.717 306.399L242.275 298.076L236.283 308.474ZM233.844 298.883C233.844 299.881 233.715 300.841 233.476 301.749L245.082 304.801C245.58 302.905 245.844 300.921 245.844 298.883H233.844ZM233.476 296.018C233.715 296.926 233.844 297.885 233.844 298.883H245.844C245.844 296.846 245.58 294.862 245.082 292.966L233.476 296.018ZM250.726 280.97L236.283 289.293L242.275 299.69L256.717 291.367L250.726 280.97ZM262.216 298.883C262.216 293.589 261.172 288.524 259.273 283.893L248.17 288.445C249.487 291.657 250.216 295.178 250.216 298.883H262.216ZM259.273 313.874C261.172 309.242 262.216 304.177 262.216 298.883H250.216C250.216 302.589 249.487 306.11 248.17 309.322L259.273 313.874ZM237.723 291.83L252.163 283.509L246.171 273.112L231.732 281.433L237.723 291.83ZM225.538 288.028C227.435 288.543 229.14 289.544 230.508 290.897L238.947 282.366C236.141 279.59 232.624 277.517 228.683 276.447L225.538 288.028ZM221.11 265.597V282.238H233.11V265.597H221.11ZM253.905 274.628C247.693 266.636 238.467 261.074 227.912 259.65L226.309 271.543C233.648 272.532 240.084 276.401 244.43 281.992L253.905 274.628ZM222.563 313.054C230.387 313.054 236.749 306.72 236.749 298.884H224.749C224.749 300.072 223.781 301.054 222.563 301.054V313.054ZM208.377 298.884C208.377 306.72 214.739 313.054 222.563 313.054V301.054C221.345 301.054 220.377 300.072 220.377 298.884H208.377ZM222.563 284.713C214.739 284.713 208.377 291.047 208.377 298.884H220.377C220.377 297.695 221.345 296.713 222.563 296.713V284.713ZM236.749 298.884C236.749 291.047 230.387 284.713 222.563 284.713V296.713C223.781 296.713 224.749 297.695 224.749 298.884H236.749ZM344.758 353C374.685 353 398.964 328.782 398.964 298.883H386.964C386.964 322.133 368.078 341 344.758 341V353ZM290.553 298.883C290.553 328.782 314.832 353 344.758 353V341C321.438 341 302.553 322.133 302.553 298.883H290.553ZM344.758 244.767C314.832 244.767 290.553 268.985 290.553 298.883H302.553C302.553 275.634 321.438 256.767 344.758 256.767V244.767ZM398.964 298.883C398.964 268.985 374.685 244.767 344.758 244.767V256.767C368.078 256.767 386.964 275.634 386.964 298.883H398.964ZM346.211 332.17V315.529H334.211V332.17H346.211ZM341.783 309.739C339.887 309.224 338.181 308.223 336.814 306.87L328.374 315.401C331.18 318.176 334.698 320.249 338.639 321.32L341.783 309.739ZM329.598 305.937L315.158 314.258L321.15 324.655L335.59 316.334L329.598 305.937ZM313.417 323.139C319.629 331.131 328.854 336.693 339.409 338.116L341.013 326.224C333.674 325.234 327.237 321.365 322.891 315.774L313.417 323.139ZM316.596 316.797L331.038 308.474L325.047 298.077L310.604 306.4L316.596 316.797ZM333.845 301.749C333.606 300.841 333.477 299.882 333.477 298.883H321.477C321.477 300.921 321.741 302.905 322.24 304.801L333.845 301.749ZM333.477 298.883C333.477 297.885 333.606 296.926 333.845 296.018L322.24 292.965C321.741 294.861 321.477 296.846 321.477 298.883H333.477ZM331.038 289.293L316.596 280.97L310.604 291.367L325.047 299.69L331.038 289.293ZM308.048 283.892C306.149 288.524 305.105 293.589 305.105 298.883H317.105C317.105 295.178 317.834 291.657 319.151 288.445L308.048 283.892ZM305.105 298.883C305.105 304.177 306.149 309.243 308.048 313.874L319.151 309.322C317.834 306.11 317.105 302.589 317.105 298.883H305.105ZM315.158 283.508L329.598 291.83L335.59 281.433L321.15 273.111L315.158 283.508ZM336.814 290.897C338.182 289.544 339.887 288.543 341.783 288.028L338.639 276.447C334.698 277.517 331.18 279.59 328.374 282.366L336.814 290.897ZM346.211 282.238V265.597H334.211V282.238H346.211ZM339.409 259.65C328.854 261.074 319.629 266.636 313.417 274.628L322.891 281.992C327.237 276.401 333.674 272.532 341.013 271.543L339.409 259.65ZM350.108 338.116C360.663 336.693 369.888 331.13 376.1 323.139L366.626 315.774C362.28 321.365 355.843 325.234 348.504 326.224L350.108 338.116ZM343.306 315.529V332.17H355.306V315.529H343.306ZM352.704 306.87C351.336 308.223 349.63 309.224 347.734 309.739L350.879 321.32C354.82 320.249 358.337 318.176 361.143 315.401L352.704 306.87ZM374.359 314.258L359.919 305.937L353.927 316.334L368.367 324.655L374.359 314.258ZM358.479 308.474L372.921 316.796L378.913 306.399L364.471 298.076L358.479 308.474ZM356.04 298.883C356.04 299.881 355.911 300.841 355.672 301.749L367.277 304.801C367.776 302.905 368.04 300.921 368.04 298.883H356.04ZM355.672 296.018C355.911 296.926 356.04 297.885 356.04 298.883H368.04C368.04 296.846 367.776 294.862 367.277 292.966L355.672 296.018ZM372.921 280.97L358.479 289.293L364.47 299.69L378.913 291.367L372.921 280.97ZM384.411 298.883C384.411 293.589 383.367 288.524 381.469 283.893L370.365 288.445C371.682 291.657 372.411 295.178 372.411 298.883H384.411ZM381.469 313.874C383.367 309.242 384.411 304.177 384.411 298.883H372.411C372.411 302.589 371.682 306.109 370.365 309.322L381.469 313.874ZM359.919 291.83L374.359 283.509L368.367 273.112L353.927 281.433L359.919 291.83ZM347.734 288.028C349.63 288.543 351.336 289.544 352.703 290.897L361.143 282.366C358.337 279.59 354.82 277.518 350.879 276.447L347.734 288.028ZM343.306 265.597V282.238H355.306V265.597H343.306ZM376.1 274.628C369.888 266.636 360.663 261.074 350.108 259.65L348.504 271.543C355.843 272.532 362.28 276.402 366.626 281.992L376.1 274.628ZM344.759 313.054C352.583 313.054 358.944 306.72 358.944 298.884H346.944C346.944 300.072 345.976 301.054 344.759 301.054V313.054ZM330.573 298.884C330.573 306.72 336.934 313.054 344.759 313.054V301.054C343.541 301.054 342.573 300.072 342.573 298.884H330.573ZM344.759 284.713C336.934 284.713 330.573 291.047 330.573 298.884H342.573C342.573 297.695 343.541 296.713 344.759 296.713V284.713ZM358.944 298.884C358.944 291.047 352.583 284.713 344.759 284.713V296.713C345.976 296.713 346.944 297.695 346.944 298.884H358.944Z" fill="#605858" mask="url(#path-1-outside-1_531_1083)"/>
<path d="M77.739 102.93C77.739 99.0792 80.8668 95.9571 84.7253 95.9571H397.014V264.016H77.739V102.93Z" fill="#7C7777"/>
<path d="M118.958 276.569H401.205V312.133C401.205 313.673 399.954 314.922 398.411 314.922H118.958V276.569Z" fill="#A377FF"/>
<path d="M189.52 95.9571C189.52 90.1801 194.212 85.4969 200 85.4969H203.493C209.28 85.4969 213.972 90.1801 213.972 95.9571H189.52Z" fill="#E7C36F"/>
<path d="M134.328 6C132.399 6 130.835 7.56105 130.835 9.48671C130.835 11.4124 132.399 12.9734 134.328 12.9734H137.123V95.9571H171.356V12.9734H174.15C176.079 12.9734 177.643 11.4124 177.643 9.48671C177.643 7.56105 176.079 6 174.15 6H134.328Z" fill="#E7C36F"/>
<path d="M42.1087 264.016C42.1087 239.753 61.8144 220.084 86.1225 220.084H118.958V264.016H42.1087Z" fill="#7C7777"/>
<path d="M21.821 278.164C22.2832 277.19 23.2666 276.569 24.3466 276.569H118.958V314.922H8.79791C6.74657 314.922 5.39433 312.79 6.27225 310.939L21.821 278.164Z" fill="#A377FF"/>
<path fill-rule="evenodd" clip-rule="evenodd" d="M298.507 49.2352C296.192 49.2352 294.315 51.1084 294.315 53.4192C294.315 55.73 296.192 57.6033 298.507 57.6033H299.904V95.9571H397.014V57.6033H398.411C400.726 57.6033 402.603 55.73 402.603 53.4192C402.603 51.1084 400.726 49.2352 398.411 49.2352H298.507ZM308.287 65.274H388.63V88.2863H308.287V65.274Z" fill="#E7C36F"/>
<path d="M368.37 266.806C368.37 265.265 369.621 264.016 371.164 264.016H401.205C402.749 264.016 404 265.265 404 266.806V273.779C404 275.32 402.749 276.569 401.205 276.569H371.164C369.621 276.569 368.37 275.32 368.37 273.779V266.806Z" fill="#E7C36F"/>
<path d="M368.37 247.28C368.37 245.74 369.621 244.491 371.164 244.491H401.205C402.749 244.491 404 245.74 404 247.28V254.254C404 255.794 402.749 257.043 401.205 257.043H371.164C369.621 257.043 368.37 255.794 368.37 254.254V247.28Z" fill="#E7C36F"/>
<path d="M368.37 185.217C368.37 183.676 369.621 182.427 371.164 182.427H401.205C402.749 182.427 404 183.676 404 185.217V192.19C404 193.731 402.749 194.98 401.205 194.98H371.164C369.621 194.98 368.37 193.731 368.37 192.19V185.217Z" fill="#E7C36F"/>
<path d="M30.9306 266.806C30.9306 265.265 32.1818 264.016 33.7252 264.016H315.274V276.569H30.9306V266.806Z" fill="#E7C36F"/>
<path d="M116.862 310.041C116.862 328.142 102.161 342.816 84.0266 342.816C65.892 342.816 51.191 328.142 51.191 310.041C51.191 291.94 65.892 277.266 84.0266 277.266C102.161 277.266 116.862 291.94 116.862 310.041Z" fill="#888171"/>
<path fill-rule="evenodd" clip-rule="evenodd" d="M121.054 310.041C121.054 330.453 104.476 347 84.0266 347C63.5769 347 46.9992 330.453 46.9992 310.041C46.9992 289.629 63.5769 273.082 84.0266 273.082C104.476 273.082 121.054 289.629 121.054 310.041ZM84.0266 342.816C102.161 342.816 116.862 328.142 116.862 310.041C116.862 291.94 102.161 277.266 84.0266 277.266C65.892 277.266 51.191 291.94 51.191 310.041C51.191 328.142 65.892 342.816 84.0266 342.816Z" fill="#CDAC60"/>
<path fill-rule="evenodd" clip-rule="evenodd" d="M116.862 310.041C116.862 328.142 102.161 342.816 84.0266 342.816C65.892 342.816 51.191 328.142 51.191 310.041C51.191 291.94 65.892 277.266 84.0266 277.266C102.161 277.266 116.862 291.94 116.862 310.041ZM80.5334 335.609V322.827C78.2915 322.218 76.2856 321.037 74.6827 319.452L63.5913 325.844C67.646 331.06 73.6612 334.682 80.5334 335.609ZM60.0932 319.807L71.1866 313.414C70.9033 312.337 70.7525 311.207 70.7525 310.041C70.7525 308.875 70.9033 307.745 71.1866 306.668L60.0932 300.275C58.8581 303.287 58.1773 306.585 58.1773 310.041C58.1773 313.497 58.8581 316.795 60.0932 319.807ZM63.5912 294.238L74.6827 300.63C76.2856 299.044 78.2915 297.864 80.5334 297.255V284.473C73.6611 285.4 67.646 289.022 63.5912 294.238ZM104.462 325.844C100.407 331.06 94.392 334.682 87.5197 335.609V322.827C89.7616 322.218 91.7674 321.037 93.3704 319.452L104.462 325.844ZM107.96 319.807L96.8664 313.414C97.1497 312.337 97.3005 311.207 97.3005 310.041C97.3005 308.875 97.1497 307.745 96.8665 306.668L107.96 300.275C109.195 303.287 109.876 306.585 109.876 310.041C109.876 313.497 109.195 316.795 107.96 319.807ZM104.462 294.238L93.3704 300.63C91.7675 299.044 89.7616 297.864 87.5197 297.255V284.473C94.392 285.399 100.407 289.022 104.462 294.238ZM90.3143 310.041C90.3143 313.507 87.4992 316.317 84.0266 316.317C80.554 316.317 77.739 313.507 77.739 310.041C77.739 306.575 80.554 303.765 84.0266 303.765C87.4992 303.765 90.3143 306.575 90.3143 310.041Z" fill="#E7C36F"/>
<path d="M265.311 298.883C265.311 322.449 246.172 341.553 222.563 341.553C198.954 341.553 179.814 322.449 179.814 298.883C179.814 275.318 198.954 256.214 222.563 256.214C246.172 256.214 265.311 275.318 265.311 298.883Z" fill="#888171"/>
<path fill-rule="evenodd" clip-rule="evenodd" d="M270.768 298.883C270.768 325.457 249.186 347 222.563 347C195.94 347 174.357 325.457 174.357 298.883C174.357 272.309 195.94 250.767 222.563 250.767C249.186 250.767 270.768 272.309 270.768 298.883ZM222.563 341.553C246.172 341.553 265.311 322.449 265.311 298.883C265.311 275.318 246.172 256.214 222.563 256.214C198.954 256.214 179.814 275.318 179.814 298.883C179.814 322.449 198.954 341.553 222.563 341.553Z" fill="#CDAC60"/>
<path fill-rule="evenodd" clip-rule="evenodd" d="M265.311 298.883C265.311 322.449 246.172 341.553 222.563 341.553C198.954 341.553 179.814 322.449 179.814 298.883C179.814 275.318 198.954 256.214 222.563 256.214C246.172 256.214 265.311 275.318 265.311 298.883ZM218.015 332.17V315.529C215.096 314.737 212.485 313.2 210.398 311.135L195.958 319.457C201.237 326.248 209.068 330.964 218.015 332.17ZM191.404 311.598L205.847 303.275C205.478 301.873 205.282 300.401 205.282 298.883C205.282 297.366 205.478 295.894 205.847 294.492L191.404 286.169C189.796 290.091 188.91 294.384 188.91 298.883C188.91 303.383 189.796 307.676 191.404 311.598ZM195.958 278.31L210.398 286.631C212.485 284.567 215.096 283.03 218.015 282.238V265.597C209.068 266.803 201.237 271.519 195.958 278.31ZM249.167 319.457C243.889 326.248 236.057 330.964 227.11 332.17V315.529C230.029 314.737 232.641 313.2 234.728 311.135L249.167 319.457ZM253.721 311.598L239.279 303.275C239.648 301.873 239.844 300.401 239.844 298.883C239.844 297.366 239.648 295.894 239.279 294.492L253.721 286.169C255.329 290.091 256.216 294.384 256.216 298.883C256.216 303.383 255.329 307.676 253.721 311.598ZM249.167 278.31L234.727 286.632C232.641 284.567 230.029 283.03 227.11 282.238V265.597C236.057 266.803 243.889 271.519 249.167 278.31ZM230.749 298.884C230.749 303.396 227.084 307.054 222.563 307.054C218.042 307.054 214.377 303.396 214.377 298.884C214.377 294.371 218.042 290.713 222.563 290.713C227.084 290.713 230.749 294.371 230.749 298.884Z" fill="#E7C36F"/>
<path d="M387.507 298.883C387.507 322.449 368.368 341.553 344.758 341.553C321.149 341.553 302.01 322.449 302.01 298.883C302.01 275.318 321.149 256.214 344.758 256.214C368.368 256.214 387.507 275.318 387.507 298.883Z" fill="#888171"/>
<path fill-rule="evenodd" clip-rule="evenodd" d="M392.964 298.883C392.964 325.457 371.382 347 344.758 347C318.135 347 296.553 325.457 296.553 298.883C296.553 272.309 318.135 250.767 344.758 250.767C371.382 250.767 392.964 272.309 392.964 298.883ZM344.758 341.553C368.368 341.553 387.507 322.449 387.507 298.883C387.507 275.318 368.368 256.214 344.758 256.214C321.149 256.214 302.01 275.318 302.01 298.883C302.01 322.449 321.149 341.553 344.758 341.553Z" fill="#CDAC60"/>
<path fill-rule="evenodd" clip-rule="evenodd" d="M387.507 298.883C387.507 322.449 368.368 341.553 344.758 341.553C321.149 341.553 302.01 322.449 302.01 298.883C302.01 275.318 321.149 256.214 344.758 256.214C368.368 256.214 387.507 275.318 387.507 298.883ZM340.211 332.17V315.529C337.292 314.737 334.681 313.2 332.594 311.135L318.154 319.457C323.433 326.248 331.264 330.964 340.211 332.17ZM313.6 311.598L328.042 303.275C327.674 301.873 327.477 300.401 327.477 298.883C327.477 297.366 327.674 295.894 328.042 294.492L313.6 286.169C311.992 290.09 311.105 294.384 311.105 298.883C311.105 303.383 311.992 307.676 313.6 311.598ZM318.154 278.31L332.594 286.631C334.681 284.567 337.292 283.03 340.211 282.238V265.597C331.264 266.803 323.433 271.519 318.154 278.31ZM371.363 319.456C366.084 326.248 358.253 330.964 349.306 332.17V315.529C352.225 314.737 354.836 313.2 356.923 311.135L371.363 319.456ZM375.917 311.598L361.475 303.275C361.843 301.873 362.04 300.401 362.04 298.883C362.04 297.366 361.843 295.894 361.475 294.492L375.917 286.169C377.525 290.091 378.411 294.384 378.411 298.883C378.411 303.383 377.525 307.676 375.917 311.598ZM371.363 278.31L356.923 286.632C354.836 284.567 352.225 283.03 349.306 282.238V265.597C358.253 266.803 366.084 271.519 371.363 278.31ZM352.944 298.884C352.944 303.396 349.28 307.054 344.759 307.054C340.238 307.054 336.573 303.396 336.573 298.884C336.573 294.371 340.238 290.713 344.759 290.713C349.28 290.713 352.944 294.371 352.944 298.884Z" fill="#E7C36F"/>
</svg>
