
<svg width="368" height="360" viewBox="0 0 368 360" fill="none" xmlns="http://www.w3.org/2000/svg">
<path d="M357.682 2.5H10C5.85787 2.5 2.5 5.85785 2.5 9.99999V350C2.5 354.142 5.85786 357.5 10 357.5H357.682C361.824 357.5 365.182 354.142 365.182 350V10C365.182 5.85787 361.824 2.5 357.682 2.5Z" fill="#494949" stroke="#A3A3A3" stroke-width="5"/>
<path d="M5 247.092H362.682" stroke="#A3A3A3" stroke-width="3"/>
<path d="M141.348 235.947C138.388 235.947 136.153 233.732 136.153 230.807C136.153 227.881 138.375 225.666 141.307 225.666C142.907 225.666 144.343 226.322 145.286 227.539L144.124 228.414C143.427 227.484 142.449 227.067 141.307 227.074C139.161 227.067 137.657 228.619 137.657 230.807C137.657 232.994 139.175 234.546 141.348 234.539C143.098 234.546 144.288 233.534 144.534 231.969H141.663V230.656H146.011C146.038 230.875 146.058 231.114 146.052 231.367C146.058 234.047 144.09 235.947 141.348 235.947ZM154.05 235.756L153.093 233.104H148.95L147.979 235.756H146.366L150.167 225.857H151.876L155.677 235.756H154.05ZM149.442 231.736H152.587L151.055 227.512H150.987L149.442 231.736ZM159.669 235.947C158.042 235.947 156.921 234.936 156.552 233.24L158.014 232.939C158.261 234.04 158.848 234.546 159.669 234.539C160.742 234.546 161.453 233.698 161.46 232.352V225.857H162.95V232.352C162.95 234.512 161.61 235.947 159.669 235.947ZM164.837 235.756V225.857H171.044V227.238H166.313V229.932H170.661V231.258H166.313V234.375H171.153V235.756H164.837ZM177.401 235.947C174.469 235.947 172.247 233.732 172.247 230.807C172.247 227.881 174.469 225.666 177.401 225.666C180.341 225.666 182.555 227.881 182.555 230.807C182.555 233.732 180.341 235.947 177.401 235.947ZM177.401 234.539C179.548 234.546 181.058 232.994 181.065 230.807C181.058 228.619 179.548 227.067 177.401 227.074C175.261 227.067 173.751 228.619 173.751 230.807C173.751 232.994 175.261 234.546 177.401 234.539ZM184.114 235.756V225.857H185.823L190.882 233.418H190.936V225.857H192.413V235.756H190.745L185.659 228.141H185.591V235.756H184.114ZM197.417 227.238V225.857H205.155V227.238H202.024V235.756H200.548V227.238H197.417ZM212.716 235.756L211.759 233.104H207.616L206.645 235.756H205.032L208.833 225.857H210.542L214.343 235.756H212.716ZM208.108 231.736H211.253L209.721 227.512H209.653L208.108 231.736ZM215.587 235.756V225.857H221.794V227.238H217.063V229.932H221.411V231.258H217.063V234.375H221.903V235.756H215.587ZM223.503 235.756V225.857H224.979V230.205H225.034L228.889 225.857H230.79L226.538 230.561L230.94 235.756H228.999L225.048 231.012H224.979V235.756H223.503Z" fill="white"/>
<path d="M93.9205 267.266C93.9205 269.859 91.9024 271.927 89.4527 271.927C87.003 271.927 84.9849 269.859 84.9849 267.266C84.9849 264.674 87.003 262.605 89.4527 262.605C91.9024 262.605 93.9205 264.674 93.9205 267.266Z" fill="#D9D9D9" stroke="black"/>
<path d="M275.471 267.266C275.471 269.859 273.453 271.927 271.003 271.927C268.553 271.927 266.535 269.859 266.535 267.266C266.535 264.674 268.553 262.605 271.003 262.605C273.453 262.605 275.471 264.674 275.471 267.266Z" fill="#D9D9D9" stroke="black"/>
<path d="M187.857 267.266C187.857 269.859 185.839 271.927 183.389 271.927C180.939 271.927 178.921 269.859 178.921 267.266C178.921 264.674 180.939 262.605 183.389 262.605C185.839 262.605 187.857 264.674 187.857 267.266Z" fill="#D9D9D9" stroke="black"/>
</svg>
