<svg width="338" height="204" viewBox="0 0 338 204" fill="none" xmlns="http://www.w3.org/2000/svg">
<g filter="url(#filter0_d_2076_2604)">
<path d="M4 10C4 4.47715 8.47715 0 14 0H324C329.523 0 334 4.47715 334 10V186C334 191.523 329.523 196 324 196H14C8.47714 196 4 191.523 4 186V10Z" fill="url(#paint0_radial_2076_2604)"/>
</g>
<path d="M116.127 76.808C117.364 76.808 118.303 76.8933 118.943 77.064C120.095 77.3627 120.671 78.024 120.671 79.048C120.671 80.3707 119.284 81.096 116.511 81.224C114.506 81.2667 112.052 81.4587 109.151 81.8C107.999 81.928 106.356 81.992 104.223 81.992C102.388 81.992 101.364 82.0133 101.151 82.056C100.81 82.1413 100.639 82.3333 100.639 82.632C100.682 83.8267 100.81 85.2773 101.023 86.984C101.236 88.648 101.428 89.608 101.599 89.864C101.77 90.2053 102.388 90.4187 103.455 90.504C104.735 90.5893 107.53 90.632 111.839 90.632H112.927H116.127C118.516 90.632 119.882 90.6533 120.223 90.696C120.948 90.7813 121.439 91.1013 121.695 91.656L121.759 91.784C121.93 92.1253 122.015 92.5093 122.015 92.936C122.015 93.448 121.866 93.9173 121.567 94.344C121.268 94.728 120.842 94.984 120.287 95.112C119.775 95.24 116.575 95.304 110.687 95.304C104.756 95.304 101.471 95.24 100.831 95.112C99.4657 94.856 98.4843 94.344 97.887 93.576C97.3323 92.808 96.991 91.5067 96.863 89.672C96.7777 88.4773 96.5857 87.048 96.287 85.384C96.031 83.6773 95.8177 82.696 95.647 82.44C95.5617 82.2267 95.071 82.12 94.175 82.12C93.1083 82.12 92.3617 81.9493 91.935 81.608C91.551 81.2667 91.3377 80.648 91.295 79.752V79.496C91.295 78.728 91.5937 78.1733 92.191 77.832C92.7883 77.4907 94.0257 77.3627 95.903 77.448C97.2683 77.4907 99.103 77.512 101.407 77.512C104.479 77.512 106.911 77.448 108.703 77.32L110.879 77.128C111.604 77.0427 112.308 76.9787 112.991 76.936L116.127 76.808ZM123.039 101.256C125.3 100.957 126.986 100.872 128.095 101C128.692 101.128 129.14 101.341 129.439 101.64C129.738 101.896 129.887 102.28 129.887 102.792C129.887 103.432 129.588 103.987 128.991 104.456C128.436 104.925 127.711 105.203 126.815 105.288L123.359 105.8C120.372 106.227 118.282 106.44 117.087 106.44C116.447 106.44 115.978 106.547 115.679 106.76C115.423 106.931 115.295 107.251 115.295 107.72C115.295 108.061 115.359 108.531 115.487 109.128L115.807 111.24C115.935 112.307 116.148 113.16 116.447 113.8C116.66 114.269 116.767 114.824 116.767 115.464C116.767 116.403 116.468 117.213 115.871 117.896C115.274 118.579 114.506 118.92 113.567 118.92C112.884 118.92 112.394 118.643 112.095 118.088C111.796 117.576 111.626 116.723 111.583 115.528C111.498 114.248 111.412 113.395 111.327 112.968L111.007 110.664C110.836 108.531 110.623 107.336 110.367 107.08C110.324 107.037 110.047 107.016 109.535 107.016C108.468 107.016 107.508 107.059 106.655 107.144C103.626 107.315 100.938 107.4 98.591 107.4C97.3963 107.4 96.5857 107.379 96.159 107.336C94.239 107.251 93.151 106.931 92.895 106.376C92.5963 105.608 92.447 105.053 92.447 104.712C92.447 103.987 92.703 103.432 93.215 103.048C93.727 102.621 94.4097 102.408 95.263 102.408C96.6283 102.451 98.911 102.472 102.111 102.472C104.628 102.472 105.908 102.451 105.951 102.408C106.676 102.323 107.956 102.216 109.791 102.088C111.668 101.96 113.098 101.896 114.079 101.896C116.767 101.811 119.754 101.597 123.039 101.256ZM172.76 73.096C177.283 73.096 179.821 73.352 180.376 73.864C180.717 74.1627 180.973 74.696 181.144 75.464C181.315 76.232 181.357 76.936 181.272 77.576C181.144 78.3867 181.08 79.0693 181.08 79.624C181.08 80.3067 180.931 81.3093 180.632 82.632C180.291 84.3387 179.992 85.6827 179.736 86.664C179.565 87.3467 179.267 87.9227 178.84 88.392C178.541 88.7333 178.392 88.968 178.392 89.096C178.392 89.224 179.245 89.288 180.952 89.288C182.744 89.288 184.088 89.2027 184.984 89.032C186.136 88.8613 187.267 88.776 188.376 88.776C188.888 88.776 189.571 88.8187 190.424 88.904C192.045 89.16 192.856 89.8 192.856 90.824C192.856 91.6347 192.472 92.4027 191.704 93.128C190.979 93.8107 190.189 94.152 189.336 94.152C188.995 94.152 188.696 94.088 188.44 93.96C188.013 93.7467 187.352 93.64 186.456 93.64C185.645 93.64 184.813 93.7253 183.96 93.896C182.936 94.0667 181.229 94.1733 178.84 94.216C176.323 94.2587 174.317 94.3867 172.824 94.6C171.501 94.7707 169.667 94.8987 167.32 94.984L159.448 95.304C157.101 95.432 155.565 95.4533 154.84 95.368C154.243 95.2827 153.752 94.9627 153.368 94.408C153.069 93.9813 152.92 93.4693 152.92 92.872C152.92 92.5307 152.984 92.232 153.112 91.976C153.24 91.6773 153.411 91.464 153.624 91.336C154.093 91.0373 154.648 90.8667 155.288 90.824C155.544 90.7813 156.227 90.76 157.336 90.76L159.32 90.696C163.373 90.6533 168.003 90.312 173.208 89.672C174.872 89.4587 175.704 89.2667 175.704 89.096V89.032C175.704 88.9893 175.619 88.7973 175.448 88.456C175.32 88.2 175.256 87.816 175.256 87.304C175.256 86.536 175.384 85.5547 175.64 84.36C176.109 82.44 176.344 80.84 176.344 79.56C176.344 78.4933 176.131 77.9387 175.704 77.896C175.576 77.8533 174.744 77.832 173.208 77.832C171.672 77.832 170.093 77.8533 168.472 77.896C166.893 77.9387 165.507 77.9813 164.312 78.024C163.117 78.0667 162.819 78.088 163.416 78.088C162.776 78.088 162.221 77.9173 161.752 77.576C161.325 77.2347 161.048 76.744 160.92 76.104C160.877 75.9333 160.856 75.6987 160.856 75.4C160.856 74.7173 161.133 74.248 161.688 73.992C162.371 73.608 163.949 73.352 166.424 73.224L172.76 73.096ZM171.224 98.824C173.869 98.696 176.067 98.632 177.816 98.632C178.797 98.632 179.843 98.6747 180.952 98.76C182.829 98.9307 184.109 99.3573 184.792 100.04C185.347 100.723 185.624 101.405 185.624 102.088C185.624 102.813 185.368 103.944 184.856 105.48L184.216 107.784C184.045 108.509 183.661 109.107 183.064 109.576C182.467 110.045 181.72 110.323 180.824 110.408C180.227 110.451 179.48 110.557 178.584 110.728C177.987 110.856 177.027 110.963 175.704 111.048C174.68 111.091 173.741 111.197 172.888 111.368L170.392 111.88C169.24 112.093 168.643 112.221 168.6 112.264C168.387 112.264 168.28 112.349 168.28 112.52C168.195 112.733 168.195 113.352 168.28 114.376C168.365 115.443 168.451 116.168 168.536 116.552C168.664 116.893 168.92 117.064 169.304 117.064C169.56 117.064 170.072 116.957 170.84 116.744C171.565 116.488 172.355 116.339 173.208 116.296C174.019 116.253 175 116.147 176.152 115.976C177.304 115.805 178.968 115.699 181.144 115.656C183.661 115.528 185.432 115.336 186.456 115.08C187.309 114.824 187.885 114.696 188.184 114.696C188.397 114.696 188.76 114.803 189.272 115.016C189.571 115.101 189.805 115.315 189.976 115.656C190.147 115.955 190.232 116.296 190.232 116.68C190.232 117.192 190.061 117.619 189.72 117.96C188.739 118.856 187.245 119.432 185.24 119.688C181.357 120.2 179.053 120.456 178.328 120.456C177.816 120.456 177.261 120.52 176.664 120.648L173.528 121.16C171.949 121.373 170.691 121.629 169.752 121.928C168.515 122.269 167.576 122.44 166.936 122.44C166.04 122.44 165.379 122.12 164.952 121.48C164.568 120.883 164.269 119.859 164.056 118.408C163.544 114.483 163.288 111.944 163.288 110.792C163.288 109.683 163.608 108.893 164.248 108.424C164.803 107.997 165.677 107.677 166.872 107.464C167.981 107.293 170.456 107.037 174.296 106.696C176.643 106.483 178.093 106.312 178.648 106.184C179.416 106.056 179.949 105.864 180.248 105.608C180.547 105.309 180.717 104.84 180.76 104.2L180.824 103.56L174.488 103.496C170.392 103.496 167.768 103.603 166.616 103.816C165.933 103.987 165.336 104.072 164.824 104.072C163.928 104.072 163.309 103.624 162.968 102.728C162.797 102.344 162.712 101.939 162.712 101.512C162.712 100.744 163.075 100.189 163.8 99.848C164.824 99.3787 167.299 99.0373 171.224 98.824ZM229.374 80.712C229.758 80.2853 230.206 80.072 230.718 80.072C231.145 80.072 231.614 80.2 232.126 80.456C232.766 80.7547 233.15 81.3093 233.278 82.12C233.321 82.2907 233.342 82.632 233.342 83.144C233.342 83.912 233.278 84.9147 233.15 86.152C233.107 86.536 233.086 87.1547 233.086 88.008C233.086 90.568 233.449 93.5973 234.174 97.096C234.302 97.736 234.515 98.0773 234.814 98.12L235.454 98.184L237.246 98.056C240.19 97.7147 242.153 97.544 243.134 97.544C244.286 97.6293 245.011 97.864 245.31 98.248C245.566 98.5467 245.694 98.888 245.694 99.272C245.694 99.7413 245.459 100.211 244.99 100.68C244.563 101.107 243.966 101.405 243.198 101.576L241.406 101.96C240.937 102.131 240.318 102.237 239.55 102.28C237.801 102.451 236.179 102.707 234.686 103.048C234.387 103.091 234.131 103.773 233.918 105.096C233.705 106.376 233.513 108.637 233.342 111.88C233.299 113.459 233.171 114.44 232.958 114.824C232.787 115.251 232.339 115.464 231.614 115.464C230.419 115.464 229.587 114.824 229.118 113.544C228.862 112.776 228.734 111.752 228.734 110.472C228.734 109.533 228.798 108.424 228.926 107.144C229.054 105.864 229.118 104.413 229.118 102.792L229.054 99.784L228.99 94.792C228.99 94.28 228.905 93.5333 228.734 92.552C228.606 91.8267 228.499 89.9067 228.414 86.792C228.414 84.7013 228.457 83.2293 228.542 82.376C228.585 81.8213 228.862 81.2667 229.374 80.712ZM202.238 83.72C202.323 83.6773 202.665 83.656 203.262 83.656C204.115 83.656 205.161 83.72 206.398 83.848C207.678 83.9333 208.659 84.0613 209.342 84.232C210.835 84.5733 211.859 84.936 212.414 85.32C212.969 85.704 213.246 86.3227 213.246 87.176C213.246 87.6453 213.139 88.3707 212.926 89.352C212.073 92.8933 211.646 94.8133 211.646 95.112C211.646 95.6667 212.691 96.648 214.782 98.056C216.147 98.952 217.598 100.04 219.134 101.32C220.67 102.557 221.523 103.347 221.694 103.688C221.907 104.115 222.014 104.541 222.014 104.968C222.014 105.48 221.886 105.949 221.63 106.376C221.374 106.803 221.033 107.08 220.606 107.208L219.966 107.336C219.71 107.336 219.411 107.251 219.07 107.08C218.686 106.909 217.939 106.269 216.83 105.16C215.934 104.264 215.251 103.645 214.782 103.304C214.355 102.963 213.694 102.536 212.798 102.024C211.39 101.256 210.494 100.872 210.11 100.872C209.726 100.872 209.363 101.235 209.022 101.96C208.553 103.069 207.891 104.435 207.038 106.056C206.185 107.677 205.609 108.659 205.31 109C204.755 109.555 204.158 109.832 203.518 109.832C202.963 109.832 202.409 109.597 201.854 109.128C201.385 108.744 201.214 108.253 201.342 107.656C201.513 106.973 202.046 105.715 202.942 103.88C204.649 100.467 205.715 97.928 206.142 96.264C206.27 95.6667 206.483 94.984 206.782 94.216C207.081 93.5333 207.337 92.744 207.55 91.848C207.763 90.952 207.87 90.2267 207.87 89.672C207.87 89.2027 207.785 88.904 207.614 88.776C207.102 88.6053 205.886 88.52 203.966 88.52C202.473 88.52 201.406 88.5627 200.766 88.648C200.339 88.648 199.913 88.6693 199.486 88.712C198.547 88.712 197.886 88.5413 197.502 88.2C197.118 87.8587 196.862 87.24 196.734 86.344C196.606 85.5333 196.777 84.9573 197.246 84.616C197.758 84.2747 198.697 84.04 200.062 83.912C201.385 83.8693 202.11 83.8053 202.238 83.72Z" fill="black"/>
<defs>
<filter id="filter0_d_2076_2604" x="0" y="0" width="338" height="204" filterUnits="userSpaceOnUse" color-interpolation-filters="sRGB">
<feFlood flood-opacity="0" result="BackgroundImageFix"/>
<feColorMatrix in="SourceAlpha" type="matrix" values="0 0 0 0 0 0 0 0 0 0 0 0 0 0 0 0 0 0 127 0" result="hardAlpha"/>
<feOffset dy="4"/>
<feGaussianBlur stdDeviation="2"/>
<feComposite in2="hardAlpha" operator="out"/>
<feColorMatrix type="matrix" values="0 0 0 0 0 0 0 0 0 0 0 0 0 0 0 0 0 0 0.25 0"/>
<feBlend mode="normal" in2="BackgroundImageFix" result="effect1_dropShadow_2076_2604"/>
<feBlend mode="normal" in="SourceGraphic" in2="effect1_dropShadow_2076_2604" result="shape"/>
</filter>
<radialGradient id="paint0_radial_2076_2604" cx="0" cy="0" r="1" gradientUnits="userSpaceOnUse" gradientTransform="translate(174.5 85.5) rotate(178.824) scale(170.536 287.127)">
<stop stop-color="white"/>
<stop stop-color="#FAFAFA"/>
<stop offset="1" stop-color="#999999"/>
</radialGradient>
</defs>
</svg>
