<svg width="646" height="285" viewBox="0 0 646 285" fill="none" xmlns="http://www.w3.org/2000/svg">
<mask id="path-1-inside-1_1940_2823" fill="white">
<rect width="646" height="285" rx="5"/>
</mask>
<rect width="646" height="285" rx="5" fill="white"/>
<rect width="646" height="285" rx="5" stroke="#A5A5A5" stroke-width="30" mask="url(#path-1-inside-1_1940_2823)"/>
<rect width="646" height="285" rx="5" stroke="#838282" stroke-width="30" mask="url(#path-1-inside-1_1940_2823)"/>
<mask id="path-2-inside-2_1940_2823" fill="white">
<rect x="8" y="8" width="631" height="268" rx="5"/>
</mask>
<rect x="8" y="8" width="631" height="268" rx="5" fill="white" stroke="#A0A0A0" stroke-width="16" mask="url(#path-2-inside-2_1940_2823)"/>
<path d="M0 0L19 0V14C19 16.7614 16.7614 19 14 19H0L0 0Z" fill="#282828"/>
<path d="M632 18C629.239 18 627 15.7614 627 13V0H641C643.761 0 646 2.23858 646 5V18H632Z" fill="#282828"/>
<path d="M645 280C645 282.761 642.761 285 640 285H627V271C627 268.239 629.239 266 632 266H645V280Z" fill="#282828"/>
<path d="M5 285C2.23858 285 0 282.761 0 280L0 267H14C16.7614 267 19 269.239 19 272V285H5Z" fill="#282828"/>
</svg>
